M48
;GenerationSoftware,Autodesk,EAGLE,9.3.0*%
;CreationDate,2020-03-16T22:03:28Z*%
FMAT,2
ICI,OFF
METRIC,TZ,000.000
T3C0.350
T2C0.950
T1C1.020
%
G90
M71
T1
X29667Y32067
X27127Y32067
T2
X32065Y25585
X36465Y25585
T3
X39954Y47307
X36775Y44167
X25489Y47168
X30652Y36880
X25854Y43062
X33325Y31344
X40805Y27915
X41542Y34404
X35725Y45352
X46333Y36259
X30037Y44471
X24447Y37567
X37046Y37529
X47752Y30594
X32347Y36500
X38143Y38930
X33160Y46672
X38176Y36411
X46660Y38976
X31511Y36005
X24651Y28765
X38506Y38085
X24079Y45110
X34239Y36119
X26968Y40627
X35264Y32026
X28600Y42316
X39472Y33630
X33528Y25883
X35204Y22365
X42875Y27318
X28867Y20574
X27419Y39802
X35281Y31079
X28804Y40157
X36487Y33769
X34709Y29578
X24441Y35046
X31639Y40015
X31544Y42964
X25463Y34163
X31648Y28562
M30