G04 EAGLE Gerber RS-274X export*
G75*
%MOMM*%
%FSLAX34Y34*%
%LPD*%
%INSilkscreen Top*%
%IPPOS*%
%AMOC8*
5,1,8,0,0,1.08239X$1,22.5*%
G01*
%ADD10C,0.101600*%
%ADD11C,0.152400*%
%ADD12R,0.014731X0.014731*%
%ADD13R,0.147319X0.014731*%
%ADD14R,0.265175X0.014731*%
%ADD15R,0.383031X0.014731*%
%ADD16R,0.515619X0.014731*%
%ADD17R,0.633475X0.014731*%
%ADD18R,0.751331X0.014731*%
%ADD19R,0.883919X0.014731*%
%ADD20R,1.001775X0.014731*%
%ADD21R,1.119631X0.014731*%
%ADD22R,1.134363X0.014731*%
%ADD23R,1.149094X0.014731*%
%ADD24R,1.163825X0.014731*%
%ADD25R,1.178556X0.014731*%
%ADD26R,1.193288X0.014731*%
%ADD27R,1.222756X0.014731*%
%ADD28R,1.237488X0.014731*%
%ADD29R,1.266950X0.014731*%
%ADD30R,1.281681X0.014731*%
%ADD31R,1.311144X0.014731*%
%ADD32R,1.325881X0.014731*%
%ADD33R,1.355344X0.014731*%
%ADD34R,1.370075X0.014731*%
%ADD35R,1.384806X0.014731*%
%ADD36R,1.399538X0.014731*%
%ADD37R,1.414275X0.014731*%
%ADD38R,1.443738X0.014731*%
%ADD39R,1.458469X0.014731*%
%ADD40R,1.487931X0.014731*%
%ADD41R,1.502663X0.014731*%
%ADD42R,1.517394X0.014731*%
%ADD43R,1.532125X0.014731*%
%ADD44R,1.546856X0.014731*%
%ADD45R,1.576319X0.014731*%
%ADD46R,1.605788X0.014731*%
%ADD47R,1.620519X0.014731*%
%ADD48R,1.649981X0.014731*%
%ADD49R,1.664713X0.014731*%
%ADD50R,1.694175X0.014731*%
%ADD51R,1.708913X0.014731*%
%ADD52R,1.738375X0.014731*%
%ADD53R,1.753106X0.014731*%
%ADD54R,1.767838X0.014731*%
%ADD55R,1.782569X0.014731*%
%ADD56R,1.797306X0.014731*%
%ADD57R,0.117856X0.014731*%
%ADD58R,1.826769X0.014731*%
%ADD59R,0.235713X0.014731*%
%ADD60R,0.353569X0.014731*%
%ADD61R,1.856231X0.014731*%
%ADD62R,0.486156X0.014731*%
%ADD63R,1.870963X0.014731*%
%ADD64R,0.604013X0.014731*%
%ADD65R,0.721869X0.014731*%
%ADD66R,1.885694X0.014731*%
%ADD67R,0.839719X0.014731*%
%ADD68R,0.972306X0.014731*%
%ADD69R,1.090169X0.014731*%
%ADD70R,1.208025X0.014731*%
%ADD71R,1.252219X0.014731*%
%ADD72R,1.296412X0.014731*%
%ADD73R,1.340612X0.014731*%
%ADD74R,1.826763X0.014731*%
%ADD75R,1.414269X0.014731*%
%ADD76R,1.812031X0.014731*%
%ADD77R,1.429000X0.014731*%
%ADD78R,1.458462X0.014731*%
%ADD79R,1.473200X0.014731*%
%ADD80R,1.723644X0.014731*%
%ADD81R,1.694181X0.014731*%
%ADD82R,1.679450X0.014731*%
%ADD83R,1.561594X0.014731*%
%ADD84R,1.576325X0.014731*%
%ADD85R,1.591056X0.014731*%
%ADD86R,1.635250X0.014731*%
%ADD87R,1.561588X0.014731*%
%ADD88R,1.443731X0.014731*%
%ADD89R,1.797300X0.014731*%
%ADD90R,1.841500X0.014731*%
%ADD91R,1.311150X0.014731*%
%ADD92R,1.296419X0.014731*%
%ADD93R,1.193294X0.014731*%
%ADD94R,0.957575X0.014731*%
%ADD95R,0.589281X0.014731*%
%ADD96R,0.471425X0.014731*%
%ADD97R,0.220975X0.014731*%
%ADD98R,1.812038X0.014731*%
%ADD99R,0.103119X0.014731*%
%ADD100R,0.029463X0.014731*%
%ADD101R,0.162050X0.014731*%
%ADD102R,0.397763X0.014731*%
%ADD103R,0.648206X0.014731*%
%ADD104R,1.679444X0.014731*%
%ADD105R,1.016506X0.014731*%
%ADD106R,1.104900X0.014731*%
%ADD107R,1.222750X0.014731*%
%ADD108R,1.429006X0.014731*%
%ADD109R,1.208019X0.014731*%
%ADD110R,0.987044X0.014731*%
%ADD111R,0.854456X0.014731*%
%ADD112R,0.618744X0.014731*%
%ADD113R,0.500888X0.014731*%
%ADD114R,0.368300X0.014731*%
%ADD115R,0.132587X0.014731*%
%ADD116R,1.664719X0.014731*%
%ADD117R,1.075438X0.014731*%
%ADD118R,0.942844X0.014731*%
%ADD119R,0.707131X0.014731*%
%ADD120R,0.456694X0.014731*%
%ADD121R,0.088388X0.014731*%
%ADD122C,0.127000*%
%ADD123C,0.076200*%
%ADD124C,0.200000*%
%ADD125C,0.150000*%


D10*
X403047Y478072D02*
X405705Y476210D01*
X405799Y476147D01*
X405895Y476087D01*
X405993Y476030D01*
X406093Y475977D01*
X406195Y475927D01*
X406299Y475881D01*
X406404Y475839D01*
X406510Y475800D01*
X406618Y475765D01*
X406727Y475734D01*
X406837Y475706D01*
X406948Y475683D01*
X407059Y475663D01*
X407171Y475647D01*
X407284Y475635D01*
X407397Y475627D01*
X407510Y475623D01*
X407624Y475623D01*
X407737Y475627D01*
X407850Y475635D01*
X407963Y475647D01*
X408075Y475663D01*
X408186Y475683D01*
X408297Y475706D01*
X408407Y475734D01*
X408516Y475765D01*
X408624Y475800D01*
X408730Y475839D01*
X408835Y475881D01*
X408939Y475927D01*
X409041Y475977D01*
X409141Y476030D01*
X409239Y476087D01*
X409335Y476147D01*
X409429Y476210D01*
X409520Y476277D01*
X409610Y476346D01*
X409697Y476419D01*
X409781Y476495D01*
X409862Y476574D01*
X409941Y476655D01*
X410017Y476739D01*
X410090Y476826D01*
X410159Y476916D01*
X410226Y477007D01*
X410289Y477101D01*
X410349Y477197D01*
X410406Y477295D01*
X410459Y477395D01*
X410509Y477497D01*
X410555Y477601D01*
X410597Y477706D01*
X410636Y477812D01*
X410671Y477920D01*
X410702Y478029D01*
X410730Y478139D01*
X410753Y478250D01*
X410773Y478361D01*
X410789Y478473D01*
X410801Y478586D01*
X410809Y478699D01*
X410813Y478812D01*
X410813Y478926D01*
X410809Y479039D01*
X410801Y479152D01*
X410789Y479265D01*
X410773Y479377D01*
X410753Y479488D01*
X410730Y479599D01*
X410702Y479709D01*
X410671Y479818D01*
X410636Y479926D01*
X410597Y480032D01*
X410555Y480137D01*
X410509Y480241D01*
X410459Y480343D01*
X410406Y480443D01*
X410349Y480541D01*
X410289Y480637D01*
X410226Y480731D01*
X410159Y480822D01*
X410090Y480912D01*
X410017Y480999D01*
X409941Y481083D01*
X409862Y481164D01*
X409781Y481243D01*
X409697Y481319D01*
X409610Y481392D01*
X409521Y481461D01*
X409429Y481528D01*
X412939Y485409D02*
X409748Y487643D01*
X412938Y485409D02*
X413019Y485349D01*
X413098Y485287D01*
X413175Y485221D01*
X413249Y485153D01*
X413320Y485082D01*
X413388Y485008D01*
X413454Y484931D01*
X413516Y484852D01*
X413576Y484771D01*
X413632Y484687D01*
X413685Y484602D01*
X413734Y484514D01*
X413780Y484425D01*
X413823Y484333D01*
X413862Y484240D01*
X413897Y484146D01*
X413929Y484051D01*
X413957Y483954D01*
X413981Y483856D01*
X414001Y483758D01*
X414018Y483658D01*
X414030Y483558D01*
X414039Y483458D01*
X414044Y483358D01*
X414045Y483257D01*
X414042Y483156D01*
X414035Y483056D01*
X414024Y482956D01*
X414010Y482856D01*
X413991Y482757D01*
X413969Y482659D01*
X413943Y482562D01*
X413913Y482465D01*
X413880Y482371D01*
X413843Y482277D01*
X413802Y482185D01*
X413757Y482094D01*
X413710Y482006D01*
X413658Y481919D01*
X413604Y481835D01*
X413546Y481752D01*
X413485Y481672D01*
X413421Y481594D01*
X413354Y481519D01*
X413285Y481446D01*
X413212Y481377D01*
X413137Y481310D01*
X413059Y481246D01*
X412979Y481185D01*
X412896Y481127D01*
X412812Y481073D01*
X412725Y481021D01*
X412637Y480974D01*
X412546Y480929D01*
X412454Y480888D01*
X412360Y480851D01*
X412266Y480818D01*
X412169Y480788D01*
X412072Y480762D01*
X411974Y480740D01*
X411875Y480721D01*
X411775Y480707D01*
X411675Y480696D01*
X411575Y480689D01*
X411474Y480686D01*
X411373Y480687D01*
X411273Y480692D01*
X411173Y480701D01*
X411073Y480713D01*
X410973Y480730D01*
X410875Y480750D01*
X410777Y480774D01*
X410680Y480802D01*
X410585Y480834D01*
X410491Y480869D01*
X410398Y480908D01*
X410306Y480951D01*
X410217Y480997D01*
X410129Y481046D01*
X410044Y481099D01*
X409960Y481155D01*
X407833Y482645D01*
X418579Y481459D02*
X415068Y469654D01*
X424960Y476992D01*
X421772Y464960D02*
X424431Y463098D01*
X424525Y463035D01*
X424621Y462975D01*
X424719Y462918D01*
X424819Y462865D01*
X424921Y462815D01*
X425025Y462769D01*
X425130Y462727D01*
X425236Y462688D01*
X425344Y462653D01*
X425453Y462622D01*
X425563Y462594D01*
X425674Y462571D01*
X425785Y462551D01*
X425897Y462535D01*
X426010Y462523D01*
X426123Y462515D01*
X426236Y462511D01*
X426350Y462511D01*
X426463Y462515D01*
X426576Y462523D01*
X426689Y462535D01*
X426801Y462551D01*
X426912Y462571D01*
X427023Y462594D01*
X427133Y462622D01*
X427242Y462653D01*
X427350Y462688D01*
X427456Y462727D01*
X427561Y462769D01*
X427665Y462815D01*
X427767Y462865D01*
X427867Y462918D01*
X427965Y462975D01*
X428061Y463035D01*
X428155Y463098D01*
X428246Y463165D01*
X428336Y463234D01*
X428423Y463307D01*
X428507Y463383D01*
X428588Y463462D01*
X428667Y463543D01*
X428743Y463627D01*
X428816Y463714D01*
X428885Y463804D01*
X428952Y463895D01*
X429015Y463989D01*
X429075Y464085D01*
X429132Y464183D01*
X429185Y464283D01*
X429235Y464385D01*
X429281Y464489D01*
X429323Y464594D01*
X429362Y464700D01*
X429397Y464808D01*
X429428Y464917D01*
X429456Y465027D01*
X429479Y465138D01*
X429499Y465249D01*
X429515Y465361D01*
X429527Y465474D01*
X429535Y465587D01*
X429539Y465700D01*
X429539Y465814D01*
X429535Y465927D01*
X429527Y466040D01*
X429515Y466153D01*
X429499Y466265D01*
X429479Y466376D01*
X429456Y466487D01*
X429428Y466597D01*
X429397Y466706D01*
X429362Y466814D01*
X429323Y466920D01*
X429281Y467025D01*
X429235Y467129D01*
X429185Y467231D01*
X429132Y467331D01*
X429075Y467429D01*
X429015Y467525D01*
X428952Y467619D01*
X428885Y467710D01*
X428816Y467800D01*
X428743Y467887D01*
X428667Y467971D01*
X428588Y468052D01*
X428507Y468131D01*
X428423Y468207D01*
X428336Y468280D01*
X428247Y468349D01*
X428155Y468416D01*
X431664Y472297D02*
X428474Y474531D01*
X431664Y472297D02*
X431745Y472237D01*
X431824Y472175D01*
X431901Y472109D01*
X431975Y472041D01*
X432046Y471970D01*
X432114Y471896D01*
X432180Y471819D01*
X432242Y471740D01*
X432302Y471659D01*
X432358Y471575D01*
X432411Y471490D01*
X432460Y471402D01*
X432506Y471313D01*
X432549Y471221D01*
X432588Y471128D01*
X432623Y471034D01*
X432655Y470939D01*
X432683Y470842D01*
X432707Y470744D01*
X432727Y470646D01*
X432744Y470546D01*
X432756Y470446D01*
X432765Y470346D01*
X432770Y470246D01*
X432771Y470145D01*
X432768Y470044D01*
X432761Y469944D01*
X432750Y469844D01*
X432736Y469744D01*
X432717Y469645D01*
X432695Y469547D01*
X432669Y469450D01*
X432639Y469353D01*
X432606Y469259D01*
X432569Y469165D01*
X432528Y469073D01*
X432483Y468982D01*
X432436Y468894D01*
X432384Y468807D01*
X432330Y468723D01*
X432272Y468640D01*
X432211Y468560D01*
X432147Y468482D01*
X432080Y468407D01*
X432011Y468334D01*
X431938Y468265D01*
X431863Y468198D01*
X431785Y468134D01*
X431705Y468073D01*
X431622Y468015D01*
X431538Y467961D01*
X431451Y467909D01*
X431363Y467862D01*
X431272Y467817D01*
X431180Y467776D01*
X431086Y467739D01*
X430992Y467706D01*
X430895Y467676D01*
X430798Y467650D01*
X430700Y467628D01*
X430601Y467609D01*
X430501Y467595D01*
X430401Y467584D01*
X430301Y467577D01*
X430200Y467574D01*
X430099Y467575D01*
X429999Y467580D01*
X429899Y467589D01*
X429799Y467601D01*
X429699Y467618D01*
X429601Y467638D01*
X429503Y467662D01*
X429406Y467690D01*
X429311Y467722D01*
X429217Y467757D01*
X429124Y467796D01*
X429032Y467839D01*
X428943Y467885D01*
X428855Y467934D01*
X428770Y467987D01*
X428686Y468043D01*
X426559Y469533D01*
X497242Y334770D02*
X497242Y331524D01*
X497242Y334770D02*
X497240Y334883D01*
X497234Y334996D01*
X497224Y335109D01*
X497210Y335222D01*
X497193Y335334D01*
X497171Y335445D01*
X497146Y335555D01*
X497116Y335665D01*
X497083Y335773D01*
X497046Y335880D01*
X497006Y335986D01*
X496961Y336090D01*
X496913Y336193D01*
X496862Y336294D01*
X496807Y336393D01*
X496749Y336490D01*
X496687Y336585D01*
X496622Y336678D01*
X496554Y336768D01*
X496483Y336856D01*
X496408Y336942D01*
X496331Y337025D01*
X496251Y337105D01*
X496168Y337182D01*
X496082Y337257D01*
X495994Y337328D01*
X495904Y337396D01*
X495811Y337461D01*
X495716Y337523D01*
X495619Y337581D01*
X495520Y337636D01*
X495419Y337687D01*
X495316Y337735D01*
X495212Y337780D01*
X495106Y337820D01*
X494999Y337857D01*
X494891Y337890D01*
X494781Y337920D01*
X494671Y337945D01*
X494560Y337967D01*
X494448Y337984D01*
X494335Y337998D01*
X494222Y338008D01*
X494109Y338014D01*
X493996Y338016D01*
X493883Y338014D01*
X493770Y338008D01*
X493657Y337998D01*
X493544Y337984D01*
X493432Y337967D01*
X493321Y337945D01*
X493211Y337920D01*
X493101Y337890D01*
X492993Y337857D01*
X492886Y337820D01*
X492780Y337780D01*
X492676Y337735D01*
X492573Y337687D01*
X492472Y337636D01*
X492373Y337581D01*
X492276Y337523D01*
X492181Y337461D01*
X492088Y337396D01*
X491998Y337328D01*
X491910Y337257D01*
X491824Y337182D01*
X491741Y337105D01*
X491661Y337025D01*
X491584Y336942D01*
X491509Y336856D01*
X491438Y336768D01*
X491370Y336678D01*
X491305Y336585D01*
X491243Y336490D01*
X491185Y336393D01*
X491130Y336294D01*
X491079Y336193D01*
X491031Y336090D01*
X490986Y335986D01*
X490946Y335880D01*
X490909Y335773D01*
X490876Y335665D01*
X490846Y335555D01*
X490821Y335445D01*
X490799Y335334D01*
X490782Y335222D01*
X490768Y335109D01*
X490758Y334996D01*
X490752Y334883D01*
X490750Y334770D01*
X485558Y335419D02*
X485558Y331524D01*
X485558Y335419D02*
X485560Y335520D01*
X485566Y335620D01*
X485576Y335720D01*
X485589Y335820D01*
X485607Y335919D01*
X485628Y336018D01*
X485653Y336115D01*
X485682Y336212D01*
X485715Y336307D01*
X485751Y336401D01*
X485791Y336493D01*
X485834Y336584D01*
X485881Y336673D01*
X485931Y336760D01*
X485985Y336846D01*
X486042Y336929D01*
X486102Y337009D01*
X486165Y337088D01*
X486232Y337164D01*
X486301Y337237D01*
X486373Y337307D01*
X486447Y337375D01*
X486524Y337440D01*
X486604Y337501D01*
X486686Y337560D01*
X486770Y337615D01*
X486856Y337667D01*
X486944Y337716D01*
X487034Y337761D01*
X487126Y337803D01*
X487219Y337841D01*
X487314Y337875D01*
X487409Y337906D01*
X487506Y337933D01*
X487604Y337956D01*
X487703Y337976D01*
X487803Y337991D01*
X487903Y338003D01*
X488003Y338011D01*
X488104Y338015D01*
X488204Y338015D01*
X488305Y338011D01*
X488405Y338003D01*
X488505Y337991D01*
X488605Y337976D01*
X488704Y337956D01*
X488802Y337933D01*
X488899Y337906D01*
X488994Y337875D01*
X489089Y337841D01*
X489182Y337803D01*
X489274Y337761D01*
X489364Y337716D01*
X489452Y337667D01*
X489538Y337615D01*
X489622Y337560D01*
X489704Y337501D01*
X489784Y337440D01*
X489861Y337375D01*
X489935Y337307D01*
X490007Y337237D01*
X490076Y337164D01*
X490143Y337088D01*
X490206Y337009D01*
X490266Y336929D01*
X490323Y336846D01*
X490377Y336760D01*
X490427Y336673D01*
X490474Y336584D01*
X490517Y336493D01*
X490557Y336401D01*
X490593Y336307D01*
X490626Y336212D01*
X490655Y336115D01*
X490680Y336018D01*
X490701Y335919D01*
X490719Y335820D01*
X490732Y335720D01*
X490742Y335620D01*
X490748Y335520D01*
X490750Y335419D01*
X490751Y335419D02*
X490751Y332823D01*
X485558Y342305D02*
X497242Y346200D01*
X485558Y350095D01*
X497242Y354384D02*
X497242Y357630D01*
X497240Y357743D01*
X497234Y357856D01*
X497224Y357969D01*
X497210Y358082D01*
X497193Y358194D01*
X497171Y358305D01*
X497146Y358415D01*
X497116Y358525D01*
X497083Y358633D01*
X497046Y358740D01*
X497006Y358846D01*
X496961Y358950D01*
X496913Y359053D01*
X496862Y359154D01*
X496807Y359253D01*
X496749Y359350D01*
X496687Y359445D01*
X496622Y359538D01*
X496554Y359628D01*
X496483Y359716D01*
X496408Y359802D01*
X496331Y359885D01*
X496251Y359965D01*
X496168Y360042D01*
X496082Y360117D01*
X495994Y360188D01*
X495904Y360256D01*
X495811Y360321D01*
X495716Y360383D01*
X495619Y360441D01*
X495520Y360496D01*
X495419Y360547D01*
X495316Y360595D01*
X495212Y360640D01*
X495106Y360680D01*
X494999Y360717D01*
X494891Y360750D01*
X494781Y360780D01*
X494671Y360805D01*
X494560Y360827D01*
X494448Y360844D01*
X494335Y360858D01*
X494222Y360868D01*
X494109Y360874D01*
X493996Y360876D01*
X493883Y360874D01*
X493770Y360868D01*
X493657Y360858D01*
X493544Y360844D01*
X493432Y360827D01*
X493321Y360805D01*
X493211Y360780D01*
X493101Y360750D01*
X492993Y360717D01*
X492886Y360680D01*
X492780Y360640D01*
X492676Y360595D01*
X492573Y360547D01*
X492472Y360496D01*
X492373Y360441D01*
X492276Y360383D01*
X492181Y360321D01*
X492088Y360256D01*
X491998Y360188D01*
X491910Y360117D01*
X491824Y360042D01*
X491741Y359965D01*
X491661Y359885D01*
X491584Y359802D01*
X491509Y359716D01*
X491438Y359628D01*
X491370Y359538D01*
X491305Y359445D01*
X491243Y359350D01*
X491185Y359253D01*
X491130Y359154D01*
X491079Y359053D01*
X491031Y358950D01*
X490986Y358846D01*
X490946Y358740D01*
X490909Y358633D01*
X490876Y358525D01*
X490846Y358415D01*
X490821Y358305D01*
X490799Y358194D01*
X490782Y358082D01*
X490768Y357969D01*
X490758Y357856D01*
X490752Y357743D01*
X490750Y357630D01*
X485558Y358279D02*
X485558Y354384D01*
X485558Y358279D02*
X485560Y358380D01*
X485566Y358480D01*
X485576Y358580D01*
X485589Y358680D01*
X485607Y358779D01*
X485628Y358878D01*
X485653Y358975D01*
X485682Y359072D01*
X485715Y359167D01*
X485751Y359261D01*
X485791Y359353D01*
X485834Y359444D01*
X485881Y359533D01*
X485931Y359620D01*
X485985Y359706D01*
X486042Y359789D01*
X486102Y359869D01*
X486165Y359948D01*
X486232Y360024D01*
X486301Y360097D01*
X486373Y360167D01*
X486447Y360235D01*
X486524Y360300D01*
X486604Y360361D01*
X486686Y360420D01*
X486770Y360475D01*
X486856Y360527D01*
X486944Y360576D01*
X487034Y360621D01*
X487126Y360663D01*
X487219Y360701D01*
X487314Y360735D01*
X487409Y360766D01*
X487506Y360793D01*
X487604Y360816D01*
X487703Y360836D01*
X487803Y360851D01*
X487903Y360863D01*
X488003Y360871D01*
X488104Y360875D01*
X488204Y360875D01*
X488305Y360871D01*
X488405Y360863D01*
X488505Y360851D01*
X488605Y360836D01*
X488704Y360816D01*
X488802Y360793D01*
X488899Y360766D01*
X488994Y360735D01*
X489089Y360701D01*
X489182Y360663D01*
X489274Y360621D01*
X489364Y360576D01*
X489452Y360527D01*
X489538Y360475D01*
X489622Y360420D01*
X489704Y360361D01*
X489784Y360300D01*
X489861Y360235D01*
X489935Y360167D01*
X490007Y360097D01*
X490076Y360024D01*
X490143Y359948D01*
X490206Y359869D01*
X490266Y359789D01*
X490323Y359706D01*
X490377Y359620D01*
X490427Y359533D01*
X490474Y359444D01*
X490517Y359353D01*
X490557Y359261D01*
X490593Y359167D01*
X490626Y359072D01*
X490655Y358975D01*
X490680Y358878D01*
X490701Y358779D01*
X490719Y358680D01*
X490732Y358580D01*
X490742Y358480D01*
X490748Y358380D01*
X490750Y358279D01*
X490751Y358279D02*
X490751Y355683D01*
X415201Y210302D02*
X412542Y208440D01*
X415201Y210301D02*
X415292Y210368D01*
X415382Y210437D01*
X415469Y210510D01*
X415553Y210586D01*
X415634Y210665D01*
X415713Y210746D01*
X415789Y210830D01*
X415862Y210917D01*
X415931Y211007D01*
X415998Y211098D01*
X416061Y211192D01*
X416121Y211288D01*
X416178Y211386D01*
X416231Y211486D01*
X416281Y211588D01*
X416327Y211692D01*
X416369Y211797D01*
X416408Y211903D01*
X416443Y212011D01*
X416474Y212120D01*
X416502Y212230D01*
X416525Y212341D01*
X416545Y212452D01*
X416561Y212564D01*
X416573Y212677D01*
X416581Y212790D01*
X416585Y212903D01*
X416585Y213017D01*
X416581Y213130D01*
X416573Y213243D01*
X416561Y213356D01*
X416545Y213468D01*
X416525Y213579D01*
X416502Y213690D01*
X416474Y213800D01*
X416443Y213909D01*
X416408Y214017D01*
X416369Y214123D01*
X416327Y214228D01*
X416281Y214332D01*
X416231Y214434D01*
X416178Y214534D01*
X416121Y214632D01*
X416061Y214728D01*
X415998Y214822D01*
X415931Y214913D01*
X415862Y215003D01*
X415789Y215090D01*
X415713Y215174D01*
X415634Y215255D01*
X415553Y215334D01*
X415469Y215410D01*
X415382Y215483D01*
X415293Y215552D01*
X415201Y215619D01*
X415107Y215682D01*
X415011Y215742D01*
X414913Y215799D01*
X414813Y215852D01*
X414711Y215902D01*
X414607Y215948D01*
X414502Y215990D01*
X414396Y216029D01*
X414288Y216064D01*
X414179Y216095D01*
X414069Y216123D01*
X413958Y216146D01*
X413847Y216166D01*
X413735Y216182D01*
X413622Y216194D01*
X413509Y216202D01*
X413396Y216206D01*
X413282Y216206D01*
X413169Y216202D01*
X413056Y216194D01*
X412943Y216182D01*
X412831Y216166D01*
X412720Y216146D01*
X412609Y216123D01*
X412499Y216095D01*
X412390Y216064D01*
X412282Y216029D01*
X412176Y215990D01*
X412071Y215948D01*
X411967Y215902D01*
X411865Y215852D01*
X411765Y215799D01*
X411667Y215742D01*
X411571Y215682D01*
X411477Y215619D01*
X409031Y220245D02*
X405841Y218011D01*
X409031Y220245D02*
X409115Y220301D01*
X409200Y220354D01*
X409288Y220403D01*
X409377Y220449D01*
X409469Y220492D01*
X409562Y220531D01*
X409656Y220566D01*
X409751Y220598D01*
X409848Y220626D01*
X409946Y220650D01*
X410044Y220670D01*
X410144Y220687D01*
X410244Y220699D01*
X410344Y220708D01*
X410445Y220713D01*
X410545Y220714D01*
X410646Y220711D01*
X410746Y220704D01*
X410846Y220693D01*
X410946Y220679D01*
X411045Y220660D01*
X411143Y220638D01*
X411240Y220612D01*
X411337Y220582D01*
X411432Y220549D01*
X411525Y220512D01*
X411617Y220471D01*
X411708Y220426D01*
X411796Y220379D01*
X411883Y220327D01*
X411967Y220273D01*
X412050Y220215D01*
X412130Y220154D01*
X412208Y220090D01*
X412283Y220023D01*
X412356Y219954D01*
X412425Y219881D01*
X412492Y219806D01*
X412556Y219728D01*
X412617Y219648D01*
X412675Y219565D01*
X412729Y219481D01*
X412781Y219394D01*
X412828Y219306D01*
X412873Y219215D01*
X412914Y219123D01*
X412951Y219029D01*
X412984Y218935D01*
X413014Y218838D01*
X413040Y218741D01*
X413062Y218643D01*
X413081Y218544D01*
X413095Y218444D01*
X413106Y218344D01*
X413113Y218244D01*
X413116Y218143D01*
X413115Y218043D01*
X413110Y217942D01*
X413101Y217842D01*
X413089Y217742D01*
X413072Y217642D01*
X413052Y217544D01*
X413028Y217446D01*
X413000Y217349D01*
X412968Y217254D01*
X412933Y217160D01*
X412894Y217067D01*
X412851Y216975D01*
X412805Y216886D01*
X412756Y216798D01*
X412703Y216713D01*
X412647Y216629D01*
X412587Y216548D01*
X412525Y216469D01*
X412459Y216392D01*
X412391Y216318D01*
X412320Y216247D01*
X412246Y216179D01*
X412169Y216113D01*
X412090Y216051D01*
X412009Y215991D01*
X409883Y214502D01*
X414672Y224195D02*
X424564Y216857D01*
X421052Y228662D01*
X431268Y221552D02*
X433927Y223413D01*
X434018Y223480D01*
X434108Y223549D01*
X434195Y223622D01*
X434279Y223698D01*
X434360Y223777D01*
X434439Y223858D01*
X434515Y223942D01*
X434588Y224029D01*
X434657Y224119D01*
X434724Y224210D01*
X434787Y224304D01*
X434847Y224400D01*
X434904Y224498D01*
X434957Y224598D01*
X435007Y224700D01*
X435053Y224804D01*
X435095Y224909D01*
X435134Y225015D01*
X435169Y225123D01*
X435200Y225232D01*
X435228Y225342D01*
X435251Y225453D01*
X435271Y225564D01*
X435287Y225676D01*
X435299Y225789D01*
X435307Y225902D01*
X435311Y226015D01*
X435311Y226129D01*
X435307Y226242D01*
X435299Y226355D01*
X435287Y226468D01*
X435271Y226580D01*
X435251Y226691D01*
X435228Y226802D01*
X435200Y226912D01*
X435169Y227021D01*
X435134Y227129D01*
X435095Y227235D01*
X435053Y227340D01*
X435007Y227444D01*
X434957Y227546D01*
X434904Y227646D01*
X434847Y227744D01*
X434787Y227840D01*
X434724Y227934D01*
X434657Y228025D01*
X434588Y228115D01*
X434515Y228202D01*
X434439Y228286D01*
X434360Y228367D01*
X434279Y228446D01*
X434195Y228522D01*
X434108Y228595D01*
X434019Y228664D01*
X433927Y228731D01*
X433833Y228794D01*
X433737Y228854D01*
X433639Y228911D01*
X433539Y228964D01*
X433437Y229014D01*
X433333Y229060D01*
X433228Y229102D01*
X433122Y229141D01*
X433014Y229176D01*
X432905Y229207D01*
X432795Y229235D01*
X432684Y229258D01*
X432573Y229278D01*
X432461Y229294D01*
X432348Y229306D01*
X432235Y229314D01*
X432122Y229318D01*
X432008Y229318D01*
X431895Y229314D01*
X431782Y229306D01*
X431669Y229294D01*
X431557Y229278D01*
X431446Y229258D01*
X431335Y229235D01*
X431225Y229207D01*
X431116Y229176D01*
X431008Y229141D01*
X430902Y229102D01*
X430797Y229060D01*
X430693Y229014D01*
X430591Y228964D01*
X430491Y228911D01*
X430393Y228854D01*
X430297Y228794D01*
X430203Y228731D01*
X427757Y233357D02*
X424566Y231123D01*
X427757Y233357D02*
X427841Y233413D01*
X427926Y233466D01*
X428014Y233515D01*
X428103Y233561D01*
X428195Y233604D01*
X428288Y233643D01*
X428382Y233678D01*
X428477Y233710D01*
X428574Y233738D01*
X428672Y233762D01*
X428770Y233782D01*
X428870Y233799D01*
X428970Y233811D01*
X429070Y233820D01*
X429171Y233825D01*
X429271Y233826D01*
X429372Y233823D01*
X429472Y233816D01*
X429572Y233805D01*
X429672Y233791D01*
X429771Y233772D01*
X429869Y233750D01*
X429966Y233724D01*
X430063Y233694D01*
X430158Y233661D01*
X430251Y233624D01*
X430343Y233583D01*
X430434Y233538D01*
X430522Y233491D01*
X430609Y233439D01*
X430693Y233385D01*
X430776Y233327D01*
X430856Y233266D01*
X430934Y233202D01*
X431009Y233135D01*
X431082Y233066D01*
X431151Y232993D01*
X431218Y232918D01*
X431282Y232840D01*
X431343Y232760D01*
X431401Y232677D01*
X431455Y232593D01*
X431507Y232506D01*
X431554Y232418D01*
X431599Y232327D01*
X431640Y232235D01*
X431677Y232141D01*
X431710Y232047D01*
X431740Y231950D01*
X431766Y231853D01*
X431788Y231755D01*
X431807Y231656D01*
X431821Y231556D01*
X431832Y231456D01*
X431839Y231356D01*
X431842Y231255D01*
X431841Y231155D01*
X431836Y231054D01*
X431827Y230954D01*
X431815Y230854D01*
X431798Y230754D01*
X431778Y230656D01*
X431754Y230558D01*
X431726Y230461D01*
X431694Y230366D01*
X431659Y230272D01*
X431620Y230179D01*
X431577Y230087D01*
X431531Y229998D01*
X431482Y229910D01*
X431429Y229825D01*
X431373Y229741D01*
X431313Y229660D01*
X431251Y229581D01*
X431185Y229504D01*
X431117Y229430D01*
X431046Y229359D01*
X430972Y229291D01*
X430895Y229225D01*
X430816Y229163D01*
X430735Y229103D01*
X428608Y227614D01*
X255806Y224810D02*
X253148Y226672D01*
X255806Y224810D02*
X255900Y224747D01*
X255996Y224687D01*
X256094Y224630D01*
X256194Y224577D01*
X256296Y224527D01*
X256400Y224481D01*
X256505Y224439D01*
X256611Y224400D01*
X256719Y224365D01*
X256828Y224334D01*
X256938Y224306D01*
X257049Y224283D01*
X257160Y224263D01*
X257272Y224247D01*
X257385Y224235D01*
X257498Y224227D01*
X257611Y224223D01*
X257725Y224223D01*
X257838Y224227D01*
X257951Y224235D01*
X258064Y224247D01*
X258176Y224263D01*
X258287Y224283D01*
X258398Y224306D01*
X258508Y224334D01*
X258617Y224365D01*
X258725Y224400D01*
X258831Y224439D01*
X258936Y224481D01*
X259040Y224527D01*
X259142Y224577D01*
X259242Y224630D01*
X259340Y224687D01*
X259436Y224747D01*
X259530Y224810D01*
X259621Y224877D01*
X259711Y224946D01*
X259798Y225019D01*
X259882Y225095D01*
X259963Y225174D01*
X260042Y225255D01*
X260118Y225339D01*
X260191Y225426D01*
X260260Y225516D01*
X260327Y225607D01*
X260390Y225701D01*
X260450Y225797D01*
X260507Y225895D01*
X260560Y225995D01*
X260610Y226097D01*
X260656Y226201D01*
X260698Y226306D01*
X260737Y226412D01*
X260772Y226520D01*
X260803Y226629D01*
X260831Y226739D01*
X260854Y226850D01*
X260874Y226961D01*
X260890Y227073D01*
X260902Y227186D01*
X260910Y227299D01*
X260914Y227412D01*
X260914Y227526D01*
X260910Y227639D01*
X260902Y227752D01*
X260890Y227865D01*
X260874Y227977D01*
X260854Y228088D01*
X260831Y228199D01*
X260803Y228309D01*
X260772Y228418D01*
X260737Y228526D01*
X260698Y228632D01*
X260656Y228737D01*
X260610Y228841D01*
X260560Y228943D01*
X260507Y229043D01*
X260450Y229141D01*
X260390Y229237D01*
X260327Y229331D01*
X260260Y229422D01*
X260191Y229512D01*
X260118Y229599D01*
X260042Y229683D01*
X259963Y229764D01*
X259882Y229843D01*
X259798Y229919D01*
X259711Y229992D01*
X259622Y230061D01*
X259530Y230128D01*
X263040Y234009D02*
X259849Y236243D01*
X263039Y234009D02*
X263120Y233949D01*
X263199Y233887D01*
X263276Y233821D01*
X263350Y233753D01*
X263421Y233682D01*
X263489Y233608D01*
X263555Y233531D01*
X263617Y233452D01*
X263677Y233371D01*
X263733Y233287D01*
X263786Y233202D01*
X263835Y233114D01*
X263881Y233025D01*
X263924Y232933D01*
X263963Y232840D01*
X263998Y232746D01*
X264030Y232651D01*
X264058Y232554D01*
X264082Y232456D01*
X264102Y232358D01*
X264119Y232258D01*
X264131Y232158D01*
X264140Y232058D01*
X264145Y231958D01*
X264146Y231857D01*
X264143Y231756D01*
X264136Y231656D01*
X264125Y231556D01*
X264111Y231456D01*
X264092Y231357D01*
X264070Y231259D01*
X264044Y231162D01*
X264014Y231065D01*
X263981Y230971D01*
X263944Y230877D01*
X263903Y230785D01*
X263858Y230694D01*
X263811Y230606D01*
X263759Y230519D01*
X263705Y230435D01*
X263647Y230352D01*
X263586Y230272D01*
X263522Y230194D01*
X263455Y230119D01*
X263386Y230046D01*
X263313Y229977D01*
X263238Y229910D01*
X263160Y229846D01*
X263080Y229785D01*
X262997Y229727D01*
X262913Y229673D01*
X262826Y229621D01*
X262738Y229574D01*
X262647Y229529D01*
X262555Y229488D01*
X262461Y229451D01*
X262367Y229418D01*
X262270Y229388D01*
X262173Y229362D01*
X262075Y229340D01*
X261976Y229321D01*
X261876Y229307D01*
X261776Y229296D01*
X261676Y229289D01*
X261575Y229286D01*
X261474Y229287D01*
X261374Y229292D01*
X261274Y229301D01*
X261174Y229313D01*
X261074Y229330D01*
X260976Y229350D01*
X260878Y229374D01*
X260781Y229402D01*
X260686Y229434D01*
X260592Y229469D01*
X260499Y229508D01*
X260407Y229551D01*
X260318Y229597D01*
X260230Y229646D01*
X260145Y229699D01*
X260061Y229755D01*
X257934Y231245D01*
X268680Y230059D02*
X265169Y218254D01*
X275061Y225592D01*
X271873Y213560D02*
X274532Y211698D01*
X274626Y211635D01*
X274722Y211575D01*
X274820Y211518D01*
X274920Y211465D01*
X275022Y211415D01*
X275126Y211369D01*
X275231Y211327D01*
X275337Y211288D01*
X275445Y211253D01*
X275554Y211222D01*
X275664Y211194D01*
X275775Y211171D01*
X275886Y211151D01*
X275998Y211135D01*
X276111Y211123D01*
X276224Y211115D01*
X276337Y211111D01*
X276451Y211111D01*
X276564Y211115D01*
X276677Y211123D01*
X276790Y211135D01*
X276902Y211151D01*
X277013Y211171D01*
X277124Y211194D01*
X277234Y211222D01*
X277343Y211253D01*
X277451Y211288D01*
X277557Y211327D01*
X277662Y211369D01*
X277766Y211415D01*
X277868Y211465D01*
X277968Y211518D01*
X278066Y211575D01*
X278162Y211635D01*
X278256Y211698D01*
X278347Y211765D01*
X278437Y211834D01*
X278524Y211907D01*
X278608Y211983D01*
X278689Y212062D01*
X278768Y212143D01*
X278844Y212227D01*
X278917Y212314D01*
X278986Y212404D01*
X279053Y212495D01*
X279116Y212589D01*
X279176Y212685D01*
X279233Y212783D01*
X279286Y212883D01*
X279336Y212985D01*
X279382Y213089D01*
X279424Y213194D01*
X279463Y213300D01*
X279498Y213408D01*
X279529Y213517D01*
X279557Y213627D01*
X279580Y213738D01*
X279600Y213849D01*
X279616Y213961D01*
X279628Y214074D01*
X279636Y214187D01*
X279640Y214300D01*
X279640Y214414D01*
X279636Y214527D01*
X279628Y214640D01*
X279616Y214753D01*
X279600Y214865D01*
X279580Y214976D01*
X279557Y215087D01*
X279529Y215197D01*
X279498Y215306D01*
X279463Y215414D01*
X279424Y215520D01*
X279382Y215625D01*
X279336Y215729D01*
X279286Y215831D01*
X279233Y215931D01*
X279176Y216029D01*
X279116Y216125D01*
X279053Y216219D01*
X278986Y216310D01*
X278917Y216400D01*
X278844Y216487D01*
X278768Y216571D01*
X278689Y216652D01*
X278608Y216731D01*
X278524Y216807D01*
X278437Y216880D01*
X278348Y216949D01*
X278256Y217016D01*
X281765Y220897D02*
X278575Y223131D01*
X281765Y220897D02*
X281846Y220837D01*
X281925Y220775D01*
X282002Y220709D01*
X282076Y220641D01*
X282147Y220570D01*
X282215Y220496D01*
X282281Y220419D01*
X282343Y220340D01*
X282403Y220259D01*
X282459Y220175D01*
X282512Y220090D01*
X282561Y220002D01*
X282607Y219913D01*
X282650Y219821D01*
X282689Y219728D01*
X282724Y219634D01*
X282756Y219539D01*
X282784Y219442D01*
X282808Y219344D01*
X282828Y219246D01*
X282845Y219146D01*
X282857Y219046D01*
X282866Y218946D01*
X282871Y218846D01*
X282872Y218745D01*
X282869Y218644D01*
X282862Y218544D01*
X282851Y218444D01*
X282837Y218344D01*
X282818Y218245D01*
X282796Y218147D01*
X282770Y218050D01*
X282740Y217953D01*
X282707Y217859D01*
X282670Y217765D01*
X282629Y217673D01*
X282584Y217582D01*
X282537Y217494D01*
X282485Y217407D01*
X282431Y217323D01*
X282373Y217240D01*
X282312Y217160D01*
X282248Y217082D01*
X282181Y217007D01*
X282112Y216934D01*
X282039Y216865D01*
X281964Y216798D01*
X281886Y216734D01*
X281806Y216673D01*
X281723Y216615D01*
X281639Y216561D01*
X281552Y216509D01*
X281464Y216462D01*
X281373Y216417D01*
X281281Y216376D01*
X281187Y216339D01*
X281093Y216306D01*
X280996Y216276D01*
X280899Y216250D01*
X280801Y216228D01*
X280702Y216209D01*
X280602Y216195D01*
X280502Y216184D01*
X280402Y216177D01*
X280301Y216174D01*
X280200Y216175D01*
X280100Y216180D01*
X280000Y216189D01*
X279900Y216201D01*
X279800Y216218D01*
X279702Y216238D01*
X279604Y216262D01*
X279507Y216290D01*
X279412Y216322D01*
X279318Y216357D01*
X279225Y216396D01*
X279133Y216439D01*
X279044Y216485D01*
X278956Y216534D01*
X278871Y216587D01*
X278787Y216643D01*
X276660Y218133D01*
X205572Y330762D02*
X205572Y334008D01*
X205570Y334121D01*
X205564Y334234D01*
X205554Y334347D01*
X205540Y334460D01*
X205523Y334572D01*
X205501Y334683D01*
X205476Y334793D01*
X205446Y334903D01*
X205413Y335011D01*
X205376Y335118D01*
X205336Y335224D01*
X205291Y335328D01*
X205243Y335431D01*
X205192Y335532D01*
X205137Y335631D01*
X205079Y335728D01*
X205017Y335823D01*
X204952Y335916D01*
X204884Y336006D01*
X204813Y336094D01*
X204738Y336180D01*
X204661Y336263D01*
X204581Y336343D01*
X204498Y336420D01*
X204412Y336495D01*
X204324Y336566D01*
X204234Y336634D01*
X204141Y336699D01*
X204046Y336761D01*
X203949Y336819D01*
X203850Y336874D01*
X203749Y336925D01*
X203646Y336973D01*
X203542Y337018D01*
X203436Y337058D01*
X203329Y337095D01*
X203221Y337128D01*
X203111Y337158D01*
X203001Y337183D01*
X202890Y337205D01*
X202778Y337222D01*
X202665Y337236D01*
X202552Y337246D01*
X202439Y337252D01*
X202326Y337254D01*
X202213Y337252D01*
X202100Y337246D01*
X201987Y337236D01*
X201874Y337222D01*
X201762Y337205D01*
X201651Y337183D01*
X201541Y337158D01*
X201431Y337128D01*
X201323Y337095D01*
X201216Y337058D01*
X201110Y337018D01*
X201006Y336973D01*
X200903Y336925D01*
X200802Y336874D01*
X200703Y336819D01*
X200606Y336761D01*
X200511Y336699D01*
X200418Y336634D01*
X200328Y336566D01*
X200240Y336495D01*
X200154Y336420D01*
X200071Y336343D01*
X199991Y336263D01*
X199914Y336180D01*
X199839Y336094D01*
X199768Y336006D01*
X199700Y335916D01*
X199635Y335823D01*
X199573Y335728D01*
X199515Y335631D01*
X199460Y335532D01*
X199409Y335431D01*
X199361Y335328D01*
X199316Y335224D01*
X199276Y335118D01*
X199239Y335011D01*
X199206Y334903D01*
X199176Y334793D01*
X199151Y334683D01*
X199129Y334572D01*
X199112Y334460D01*
X199098Y334347D01*
X199088Y334234D01*
X199082Y334121D01*
X199080Y334008D01*
X193888Y334657D02*
X193888Y330762D01*
X193888Y334657D02*
X193890Y334758D01*
X193896Y334858D01*
X193906Y334958D01*
X193919Y335058D01*
X193937Y335157D01*
X193958Y335256D01*
X193983Y335353D01*
X194012Y335450D01*
X194045Y335545D01*
X194081Y335639D01*
X194121Y335731D01*
X194164Y335822D01*
X194211Y335911D01*
X194261Y335998D01*
X194315Y336084D01*
X194372Y336167D01*
X194432Y336247D01*
X194495Y336326D01*
X194562Y336402D01*
X194631Y336475D01*
X194703Y336545D01*
X194777Y336613D01*
X194854Y336678D01*
X194934Y336739D01*
X195016Y336798D01*
X195100Y336853D01*
X195186Y336905D01*
X195274Y336954D01*
X195364Y336999D01*
X195456Y337041D01*
X195549Y337079D01*
X195644Y337113D01*
X195739Y337144D01*
X195836Y337171D01*
X195934Y337194D01*
X196033Y337214D01*
X196133Y337229D01*
X196233Y337241D01*
X196333Y337249D01*
X196434Y337253D01*
X196534Y337253D01*
X196635Y337249D01*
X196735Y337241D01*
X196835Y337229D01*
X196935Y337214D01*
X197034Y337194D01*
X197132Y337171D01*
X197229Y337144D01*
X197324Y337113D01*
X197419Y337079D01*
X197512Y337041D01*
X197604Y336999D01*
X197694Y336954D01*
X197782Y336905D01*
X197868Y336853D01*
X197952Y336798D01*
X198034Y336739D01*
X198114Y336678D01*
X198191Y336613D01*
X198265Y336545D01*
X198337Y336475D01*
X198406Y336402D01*
X198473Y336326D01*
X198536Y336247D01*
X198596Y336167D01*
X198653Y336084D01*
X198707Y335998D01*
X198757Y335911D01*
X198804Y335822D01*
X198847Y335731D01*
X198887Y335639D01*
X198923Y335545D01*
X198956Y335450D01*
X198985Y335353D01*
X199010Y335256D01*
X199031Y335157D01*
X199049Y335058D01*
X199062Y334958D01*
X199072Y334858D01*
X199078Y334758D01*
X199080Y334657D01*
X199081Y334657D02*
X199081Y332061D01*
X193888Y341543D02*
X205572Y345438D01*
X193888Y349333D01*
X205572Y353622D02*
X205572Y356868D01*
X205570Y356981D01*
X205564Y357094D01*
X205554Y357207D01*
X205540Y357320D01*
X205523Y357432D01*
X205501Y357543D01*
X205476Y357653D01*
X205446Y357763D01*
X205413Y357871D01*
X205376Y357978D01*
X205336Y358084D01*
X205291Y358188D01*
X205243Y358291D01*
X205192Y358392D01*
X205137Y358491D01*
X205079Y358588D01*
X205017Y358683D01*
X204952Y358776D01*
X204884Y358866D01*
X204813Y358954D01*
X204738Y359040D01*
X204661Y359123D01*
X204581Y359203D01*
X204498Y359280D01*
X204412Y359355D01*
X204324Y359426D01*
X204234Y359494D01*
X204141Y359559D01*
X204046Y359621D01*
X203949Y359679D01*
X203850Y359734D01*
X203749Y359785D01*
X203646Y359833D01*
X203542Y359878D01*
X203436Y359918D01*
X203329Y359955D01*
X203221Y359988D01*
X203111Y360018D01*
X203001Y360043D01*
X202890Y360065D01*
X202778Y360082D01*
X202665Y360096D01*
X202552Y360106D01*
X202439Y360112D01*
X202326Y360114D01*
X202213Y360112D01*
X202100Y360106D01*
X201987Y360096D01*
X201874Y360082D01*
X201762Y360065D01*
X201651Y360043D01*
X201541Y360018D01*
X201431Y359988D01*
X201323Y359955D01*
X201216Y359918D01*
X201110Y359878D01*
X201006Y359833D01*
X200903Y359785D01*
X200802Y359734D01*
X200703Y359679D01*
X200606Y359621D01*
X200511Y359559D01*
X200418Y359494D01*
X200328Y359426D01*
X200240Y359355D01*
X200154Y359280D01*
X200071Y359203D01*
X199991Y359123D01*
X199914Y359040D01*
X199839Y358954D01*
X199768Y358866D01*
X199700Y358776D01*
X199635Y358683D01*
X199573Y358588D01*
X199515Y358491D01*
X199460Y358392D01*
X199409Y358291D01*
X199361Y358188D01*
X199316Y358084D01*
X199276Y357978D01*
X199239Y357871D01*
X199206Y357763D01*
X199176Y357653D01*
X199151Y357543D01*
X199129Y357432D01*
X199112Y357320D01*
X199098Y357207D01*
X199088Y357094D01*
X199082Y356981D01*
X199080Y356868D01*
X193888Y357517D02*
X193888Y353622D01*
X193888Y357517D02*
X193890Y357618D01*
X193896Y357718D01*
X193906Y357818D01*
X193919Y357918D01*
X193937Y358017D01*
X193958Y358116D01*
X193983Y358213D01*
X194012Y358310D01*
X194045Y358405D01*
X194081Y358499D01*
X194121Y358591D01*
X194164Y358682D01*
X194211Y358771D01*
X194261Y358858D01*
X194315Y358944D01*
X194372Y359027D01*
X194432Y359107D01*
X194495Y359186D01*
X194562Y359262D01*
X194631Y359335D01*
X194703Y359405D01*
X194777Y359473D01*
X194854Y359538D01*
X194934Y359599D01*
X195016Y359658D01*
X195100Y359713D01*
X195186Y359765D01*
X195274Y359814D01*
X195364Y359859D01*
X195456Y359901D01*
X195549Y359939D01*
X195644Y359973D01*
X195739Y360004D01*
X195836Y360031D01*
X195934Y360054D01*
X196033Y360074D01*
X196133Y360089D01*
X196233Y360101D01*
X196333Y360109D01*
X196434Y360113D01*
X196534Y360113D01*
X196635Y360109D01*
X196735Y360101D01*
X196835Y360089D01*
X196935Y360074D01*
X197034Y360054D01*
X197132Y360031D01*
X197229Y360004D01*
X197324Y359973D01*
X197419Y359939D01*
X197512Y359901D01*
X197604Y359859D01*
X197694Y359814D01*
X197782Y359765D01*
X197868Y359713D01*
X197952Y359658D01*
X198034Y359599D01*
X198114Y359538D01*
X198191Y359473D01*
X198265Y359405D01*
X198337Y359335D01*
X198406Y359262D01*
X198473Y359186D01*
X198536Y359107D01*
X198596Y359027D01*
X198653Y358944D01*
X198707Y358858D01*
X198757Y358771D01*
X198804Y358682D01*
X198847Y358591D01*
X198887Y358499D01*
X198923Y358405D01*
X198956Y358310D01*
X198985Y358213D01*
X199010Y358116D01*
X199031Y358017D01*
X199049Y357918D01*
X199062Y357818D01*
X199072Y357718D01*
X199078Y357618D01*
X199080Y357517D01*
X199081Y357517D02*
X199081Y354921D01*
X264802Y459459D02*
X267461Y461321D01*
X267461Y461320D02*
X267552Y461387D01*
X267642Y461456D01*
X267729Y461529D01*
X267813Y461605D01*
X267894Y461684D01*
X267973Y461765D01*
X268049Y461849D01*
X268122Y461936D01*
X268191Y462026D01*
X268258Y462117D01*
X268321Y462211D01*
X268381Y462307D01*
X268438Y462405D01*
X268491Y462505D01*
X268541Y462607D01*
X268587Y462711D01*
X268629Y462816D01*
X268668Y462922D01*
X268703Y463030D01*
X268734Y463139D01*
X268762Y463249D01*
X268785Y463360D01*
X268805Y463471D01*
X268821Y463583D01*
X268833Y463696D01*
X268841Y463809D01*
X268845Y463922D01*
X268845Y464036D01*
X268841Y464149D01*
X268833Y464262D01*
X268821Y464375D01*
X268805Y464487D01*
X268785Y464598D01*
X268762Y464709D01*
X268734Y464819D01*
X268703Y464928D01*
X268668Y465036D01*
X268629Y465142D01*
X268587Y465247D01*
X268541Y465351D01*
X268491Y465453D01*
X268438Y465553D01*
X268381Y465651D01*
X268321Y465747D01*
X268258Y465841D01*
X268191Y465932D01*
X268122Y466022D01*
X268049Y466109D01*
X267973Y466193D01*
X267894Y466274D01*
X267813Y466353D01*
X267729Y466429D01*
X267642Y466502D01*
X267553Y466571D01*
X267461Y466638D01*
X267367Y466701D01*
X267271Y466761D01*
X267173Y466818D01*
X267073Y466871D01*
X266971Y466921D01*
X266867Y466967D01*
X266762Y467009D01*
X266656Y467048D01*
X266548Y467083D01*
X266439Y467114D01*
X266329Y467142D01*
X266218Y467165D01*
X266107Y467185D01*
X265995Y467201D01*
X265882Y467213D01*
X265769Y467221D01*
X265656Y467225D01*
X265542Y467225D01*
X265429Y467221D01*
X265316Y467213D01*
X265203Y467201D01*
X265091Y467185D01*
X264980Y467165D01*
X264869Y467142D01*
X264759Y467114D01*
X264650Y467083D01*
X264542Y467048D01*
X264436Y467009D01*
X264331Y466967D01*
X264227Y466921D01*
X264125Y466871D01*
X264025Y466818D01*
X263927Y466761D01*
X263831Y466701D01*
X263737Y466638D01*
X261291Y471264D02*
X258101Y469030D01*
X261291Y471264D02*
X261375Y471320D01*
X261460Y471373D01*
X261548Y471422D01*
X261637Y471468D01*
X261729Y471511D01*
X261822Y471550D01*
X261916Y471585D01*
X262011Y471617D01*
X262108Y471645D01*
X262206Y471669D01*
X262304Y471689D01*
X262404Y471706D01*
X262504Y471718D01*
X262604Y471727D01*
X262705Y471732D01*
X262805Y471733D01*
X262906Y471730D01*
X263006Y471723D01*
X263106Y471712D01*
X263206Y471698D01*
X263305Y471679D01*
X263403Y471657D01*
X263500Y471631D01*
X263597Y471601D01*
X263692Y471568D01*
X263785Y471531D01*
X263877Y471490D01*
X263968Y471445D01*
X264056Y471398D01*
X264143Y471346D01*
X264227Y471292D01*
X264310Y471234D01*
X264390Y471173D01*
X264468Y471109D01*
X264543Y471042D01*
X264616Y470973D01*
X264685Y470900D01*
X264752Y470825D01*
X264816Y470747D01*
X264877Y470667D01*
X264935Y470584D01*
X264989Y470500D01*
X265041Y470413D01*
X265088Y470325D01*
X265133Y470234D01*
X265174Y470142D01*
X265211Y470048D01*
X265244Y469954D01*
X265274Y469857D01*
X265300Y469760D01*
X265322Y469662D01*
X265341Y469563D01*
X265355Y469463D01*
X265366Y469363D01*
X265373Y469263D01*
X265376Y469162D01*
X265375Y469062D01*
X265370Y468961D01*
X265361Y468861D01*
X265349Y468761D01*
X265332Y468661D01*
X265312Y468563D01*
X265288Y468465D01*
X265260Y468368D01*
X265228Y468273D01*
X265193Y468179D01*
X265154Y468086D01*
X265111Y467994D01*
X265065Y467905D01*
X265016Y467817D01*
X264963Y467732D01*
X264907Y467648D01*
X264847Y467567D01*
X264785Y467488D01*
X264719Y467411D01*
X264651Y467337D01*
X264580Y467266D01*
X264506Y467198D01*
X264429Y467132D01*
X264350Y467070D01*
X264269Y467010D01*
X262143Y465521D01*
X266932Y475214D02*
X276824Y467876D01*
X273312Y479681D01*
X283528Y472571D02*
X286187Y474432D01*
X286278Y474499D01*
X286368Y474568D01*
X286455Y474641D01*
X286539Y474717D01*
X286620Y474796D01*
X286699Y474877D01*
X286775Y474961D01*
X286848Y475048D01*
X286917Y475138D01*
X286984Y475229D01*
X287047Y475323D01*
X287107Y475419D01*
X287164Y475517D01*
X287217Y475617D01*
X287267Y475719D01*
X287313Y475823D01*
X287355Y475928D01*
X287394Y476034D01*
X287429Y476142D01*
X287460Y476251D01*
X287488Y476361D01*
X287511Y476472D01*
X287531Y476583D01*
X287547Y476695D01*
X287559Y476808D01*
X287567Y476921D01*
X287571Y477034D01*
X287571Y477148D01*
X287567Y477261D01*
X287559Y477374D01*
X287547Y477487D01*
X287531Y477599D01*
X287511Y477710D01*
X287488Y477821D01*
X287460Y477931D01*
X287429Y478040D01*
X287394Y478148D01*
X287355Y478254D01*
X287313Y478359D01*
X287267Y478463D01*
X287217Y478565D01*
X287164Y478665D01*
X287107Y478763D01*
X287047Y478859D01*
X286984Y478953D01*
X286917Y479044D01*
X286848Y479134D01*
X286775Y479221D01*
X286699Y479305D01*
X286620Y479386D01*
X286539Y479465D01*
X286455Y479541D01*
X286368Y479614D01*
X286279Y479683D01*
X286187Y479750D01*
X286093Y479813D01*
X285997Y479873D01*
X285899Y479930D01*
X285799Y479983D01*
X285697Y480033D01*
X285593Y480079D01*
X285488Y480121D01*
X285382Y480160D01*
X285274Y480195D01*
X285165Y480226D01*
X285055Y480254D01*
X284944Y480277D01*
X284833Y480297D01*
X284721Y480313D01*
X284608Y480325D01*
X284495Y480333D01*
X284382Y480337D01*
X284268Y480337D01*
X284155Y480333D01*
X284042Y480325D01*
X283929Y480313D01*
X283817Y480297D01*
X283706Y480277D01*
X283595Y480254D01*
X283485Y480226D01*
X283376Y480195D01*
X283268Y480160D01*
X283162Y480121D01*
X283057Y480079D01*
X282953Y480033D01*
X282851Y479983D01*
X282751Y479930D01*
X282653Y479873D01*
X282557Y479813D01*
X282463Y479750D01*
X280017Y484376D02*
X276826Y482142D01*
X280017Y484376D02*
X280101Y484432D01*
X280186Y484485D01*
X280274Y484534D01*
X280363Y484580D01*
X280455Y484623D01*
X280548Y484662D01*
X280642Y484697D01*
X280737Y484729D01*
X280834Y484757D01*
X280932Y484781D01*
X281030Y484801D01*
X281130Y484818D01*
X281230Y484830D01*
X281330Y484839D01*
X281431Y484844D01*
X281531Y484845D01*
X281632Y484842D01*
X281732Y484835D01*
X281832Y484824D01*
X281932Y484810D01*
X282031Y484791D01*
X282129Y484769D01*
X282226Y484743D01*
X282323Y484713D01*
X282418Y484680D01*
X282511Y484643D01*
X282603Y484602D01*
X282694Y484557D01*
X282782Y484510D01*
X282869Y484458D01*
X282953Y484404D01*
X283036Y484346D01*
X283116Y484285D01*
X283194Y484221D01*
X283269Y484154D01*
X283342Y484085D01*
X283411Y484012D01*
X283478Y483937D01*
X283542Y483859D01*
X283603Y483779D01*
X283661Y483696D01*
X283715Y483612D01*
X283767Y483525D01*
X283814Y483437D01*
X283859Y483346D01*
X283900Y483254D01*
X283937Y483160D01*
X283970Y483066D01*
X284000Y482969D01*
X284026Y482872D01*
X284048Y482774D01*
X284067Y482675D01*
X284081Y482575D01*
X284092Y482475D01*
X284099Y482375D01*
X284102Y482274D01*
X284101Y482174D01*
X284096Y482073D01*
X284087Y481973D01*
X284075Y481873D01*
X284058Y481773D01*
X284038Y481675D01*
X284014Y481577D01*
X283986Y481480D01*
X283954Y481385D01*
X283919Y481291D01*
X283880Y481198D01*
X283837Y481106D01*
X283791Y481017D01*
X283742Y480929D01*
X283689Y480844D01*
X283633Y480760D01*
X283573Y480679D01*
X283511Y480600D01*
X283445Y480523D01*
X283377Y480449D01*
X283306Y480378D01*
X283232Y480310D01*
X283155Y480244D01*
X283076Y480182D01*
X282995Y480122D01*
X280868Y478633D01*
D11*
X431664Y411890D02*
X431664Y394110D01*
X431664Y411890D02*
X436603Y411890D01*
X436743Y411888D01*
X436882Y411882D01*
X437022Y411872D01*
X437161Y411858D01*
X437300Y411841D01*
X437438Y411819D01*
X437575Y411793D01*
X437712Y411764D01*
X437848Y411731D01*
X437982Y411694D01*
X438116Y411653D01*
X438248Y411608D01*
X438380Y411559D01*
X438509Y411507D01*
X438637Y411452D01*
X438764Y411392D01*
X438889Y411329D01*
X439012Y411263D01*
X439133Y411193D01*
X439252Y411120D01*
X439369Y411043D01*
X439483Y410963D01*
X439596Y410880D01*
X439706Y410794D01*
X439813Y410704D01*
X439918Y410612D01*
X440020Y410517D01*
X440120Y410419D01*
X440217Y410318D01*
X440311Y410214D01*
X440401Y410108D01*
X440489Y409999D01*
X440574Y409888D01*
X440655Y409774D01*
X440734Y409659D01*
X440809Y409541D01*
X440880Y409421D01*
X440948Y409298D01*
X441013Y409175D01*
X441074Y409049D01*
X441132Y408921D01*
X441186Y408793D01*
X441236Y408662D01*
X441283Y408530D01*
X441326Y408397D01*
X441365Y408263D01*
X441400Y408128D01*
X441431Y407992D01*
X441459Y407854D01*
X441482Y407717D01*
X441502Y407578D01*
X441518Y407439D01*
X441530Y407300D01*
X441538Y407161D01*
X441542Y407021D01*
X441542Y406881D01*
X441538Y406741D01*
X441530Y406602D01*
X441518Y406463D01*
X441502Y406324D01*
X441482Y406185D01*
X441459Y406048D01*
X441431Y405910D01*
X441400Y405774D01*
X441365Y405639D01*
X441326Y405505D01*
X441283Y405372D01*
X441236Y405240D01*
X441186Y405109D01*
X441132Y404981D01*
X441074Y404853D01*
X441013Y404727D01*
X440948Y404604D01*
X440880Y404482D01*
X440809Y404361D01*
X440734Y404243D01*
X440655Y404128D01*
X440574Y404014D01*
X440489Y403903D01*
X440401Y403794D01*
X440311Y403688D01*
X440217Y403584D01*
X440120Y403483D01*
X440020Y403385D01*
X439918Y403290D01*
X439813Y403198D01*
X439706Y403108D01*
X439596Y403022D01*
X439483Y402939D01*
X439369Y402859D01*
X439252Y402782D01*
X439133Y402709D01*
X439012Y402639D01*
X438889Y402573D01*
X438764Y402510D01*
X438637Y402450D01*
X438509Y402395D01*
X438380Y402343D01*
X438248Y402294D01*
X438116Y402249D01*
X437982Y402208D01*
X437848Y402171D01*
X437712Y402138D01*
X437575Y402109D01*
X437438Y402083D01*
X437300Y402061D01*
X437161Y402044D01*
X437022Y402030D01*
X436882Y402020D01*
X436743Y402014D01*
X436603Y402012D01*
X431664Y402012D01*
X447659Y407939D02*
X452598Y411890D01*
X452598Y394110D01*
X457536Y394110D02*
X447659Y394110D01*
X448936Y310482D02*
X448936Y292702D01*
X448936Y310482D02*
X453875Y310482D01*
X454015Y310480D01*
X454154Y310474D01*
X454294Y310464D01*
X454433Y310450D01*
X454572Y310433D01*
X454710Y310411D01*
X454847Y310385D01*
X454984Y310356D01*
X455120Y310323D01*
X455254Y310286D01*
X455388Y310245D01*
X455520Y310200D01*
X455652Y310151D01*
X455781Y310099D01*
X455909Y310044D01*
X456036Y309984D01*
X456161Y309921D01*
X456284Y309855D01*
X456405Y309785D01*
X456524Y309712D01*
X456641Y309635D01*
X456755Y309555D01*
X456868Y309472D01*
X456978Y309386D01*
X457085Y309296D01*
X457190Y309204D01*
X457292Y309109D01*
X457392Y309011D01*
X457489Y308910D01*
X457583Y308806D01*
X457673Y308700D01*
X457761Y308591D01*
X457846Y308480D01*
X457927Y308366D01*
X458006Y308251D01*
X458081Y308133D01*
X458152Y308013D01*
X458220Y307890D01*
X458285Y307767D01*
X458346Y307641D01*
X458404Y307513D01*
X458458Y307385D01*
X458508Y307254D01*
X458555Y307122D01*
X458598Y306989D01*
X458637Y306855D01*
X458672Y306720D01*
X458703Y306584D01*
X458731Y306446D01*
X458754Y306309D01*
X458774Y306170D01*
X458790Y306031D01*
X458802Y305892D01*
X458810Y305753D01*
X458814Y305613D01*
X458814Y305473D01*
X458810Y305333D01*
X458802Y305194D01*
X458790Y305055D01*
X458774Y304916D01*
X458754Y304777D01*
X458731Y304640D01*
X458703Y304502D01*
X458672Y304366D01*
X458637Y304231D01*
X458598Y304097D01*
X458555Y303964D01*
X458508Y303832D01*
X458458Y303701D01*
X458404Y303573D01*
X458346Y303445D01*
X458285Y303319D01*
X458220Y303196D01*
X458152Y303074D01*
X458081Y302953D01*
X458006Y302835D01*
X457927Y302720D01*
X457846Y302606D01*
X457761Y302495D01*
X457673Y302386D01*
X457583Y302280D01*
X457489Y302176D01*
X457392Y302075D01*
X457292Y301977D01*
X457190Y301882D01*
X457085Y301790D01*
X456978Y301700D01*
X456868Y301614D01*
X456755Y301531D01*
X456641Y301451D01*
X456524Y301374D01*
X456405Y301301D01*
X456284Y301231D01*
X456161Y301165D01*
X456036Y301102D01*
X455909Y301042D01*
X455781Y300987D01*
X455652Y300935D01*
X455520Y300886D01*
X455388Y300841D01*
X455254Y300800D01*
X455120Y300763D01*
X454984Y300730D01*
X454847Y300701D01*
X454710Y300675D01*
X454572Y300653D01*
X454433Y300636D01*
X454294Y300622D01*
X454154Y300612D01*
X454015Y300606D01*
X453875Y300604D01*
X448936Y300604D01*
X470363Y310482D02*
X470495Y310480D01*
X470626Y310474D01*
X470758Y310464D01*
X470889Y310451D01*
X471019Y310433D01*
X471149Y310412D01*
X471279Y310387D01*
X471407Y310358D01*
X471535Y310325D01*
X471661Y310288D01*
X471787Y310248D01*
X471911Y310204D01*
X472034Y310156D01*
X472155Y310105D01*
X472275Y310050D01*
X472393Y309992D01*
X472509Y309930D01*
X472623Y309864D01*
X472736Y309796D01*
X472846Y309724D01*
X472954Y309649D01*
X473060Y309570D01*
X473164Y309489D01*
X473265Y309404D01*
X473363Y309317D01*
X473459Y309226D01*
X473552Y309133D01*
X473643Y309037D01*
X473730Y308939D01*
X473815Y308838D01*
X473896Y308734D01*
X473975Y308628D01*
X474050Y308520D01*
X474122Y308410D01*
X474190Y308297D01*
X474256Y308183D01*
X474318Y308067D01*
X474376Y307949D01*
X474431Y307829D01*
X474482Y307708D01*
X474530Y307585D01*
X474574Y307461D01*
X474614Y307335D01*
X474651Y307209D01*
X474684Y307081D01*
X474713Y306953D01*
X474738Y306823D01*
X474759Y306693D01*
X474777Y306563D01*
X474790Y306432D01*
X474800Y306300D01*
X474806Y306169D01*
X474808Y306037D01*
X470363Y310482D02*
X470213Y310480D01*
X470064Y310474D01*
X469915Y310464D01*
X469766Y310451D01*
X469617Y310433D01*
X469469Y310412D01*
X469321Y310386D01*
X469175Y310357D01*
X469029Y310324D01*
X468884Y310287D01*
X468740Y310246D01*
X468597Y310202D01*
X468455Y310154D01*
X468315Y310102D01*
X468176Y310047D01*
X468038Y309988D01*
X467903Y309925D01*
X467768Y309859D01*
X467636Y309789D01*
X467506Y309716D01*
X467377Y309639D01*
X467250Y309559D01*
X467126Y309476D01*
X467004Y309390D01*
X466884Y309300D01*
X466767Y309207D01*
X466652Y309112D01*
X466539Y309013D01*
X466429Y308911D01*
X466322Y308807D01*
X466218Y308700D01*
X466116Y308590D01*
X466018Y308477D01*
X465922Y308362D01*
X465830Y308244D01*
X465740Y308124D01*
X465654Y308002D01*
X465571Y307878D01*
X465491Y307751D01*
X465415Y307623D01*
X465342Y307492D01*
X465272Y307359D01*
X465206Y307225D01*
X465144Y307089D01*
X465085Y306952D01*
X465029Y306813D01*
X464978Y306672D01*
X464930Y306531D01*
X473326Y302580D02*
X473422Y302673D01*
X473514Y302769D01*
X473604Y302868D01*
X473691Y302969D01*
X473776Y303072D01*
X473857Y303177D01*
X473935Y303285D01*
X474010Y303395D01*
X474083Y303507D01*
X474152Y303621D01*
X474218Y303737D01*
X474280Y303855D01*
X474339Y303974D01*
X474395Y304095D01*
X474448Y304218D01*
X474497Y304342D01*
X474542Y304467D01*
X474585Y304594D01*
X474623Y304721D01*
X474658Y304850D01*
X474689Y304979D01*
X474717Y305110D01*
X474741Y305241D01*
X474762Y305373D01*
X474778Y305505D01*
X474791Y305638D01*
X474801Y305771D01*
X474806Y305904D01*
X474808Y306037D01*
X473327Y302580D02*
X464931Y292702D01*
X474808Y292702D01*
X220640Y290543D02*
X220640Y308323D01*
X225579Y308323D01*
X225719Y308321D01*
X225858Y308315D01*
X225998Y308305D01*
X226137Y308291D01*
X226276Y308274D01*
X226414Y308252D01*
X226551Y308226D01*
X226688Y308197D01*
X226824Y308164D01*
X226958Y308127D01*
X227092Y308086D01*
X227224Y308041D01*
X227356Y307992D01*
X227485Y307940D01*
X227613Y307885D01*
X227740Y307825D01*
X227865Y307762D01*
X227988Y307696D01*
X228109Y307626D01*
X228228Y307553D01*
X228345Y307476D01*
X228459Y307396D01*
X228572Y307313D01*
X228682Y307227D01*
X228789Y307137D01*
X228894Y307045D01*
X228996Y306950D01*
X229096Y306852D01*
X229193Y306751D01*
X229287Y306647D01*
X229377Y306541D01*
X229465Y306432D01*
X229550Y306321D01*
X229631Y306207D01*
X229710Y306092D01*
X229785Y305974D01*
X229856Y305854D01*
X229924Y305731D01*
X229989Y305608D01*
X230050Y305482D01*
X230108Y305354D01*
X230162Y305226D01*
X230212Y305095D01*
X230259Y304963D01*
X230302Y304830D01*
X230341Y304696D01*
X230376Y304561D01*
X230407Y304425D01*
X230435Y304287D01*
X230458Y304150D01*
X230478Y304011D01*
X230494Y303872D01*
X230506Y303733D01*
X230514Y303594D01*
X230518Y303454D01*
X230518Y303314D01*
X230514Y303174D01*
X230506Y303035D01*
X230494Y302896D01*
X230478Y302757D01*
X230458Y302618D01*
X230435Y302481D01*
X230407Y302343D01*
X230376Y302207D01*
X230341Y302072D01*
X230302Y301938D01*
X230259Y301805D01*
X230212Y301673D01*
X230162Y301542D01*
X230108Y301414D01*
X230050Y301286D01*
X229989Y301160D01*
X229924Y301037D01*
X229856Y300915D01*
X229785Y300794D01*
X229710Y300676D01*
X229631Y300561D01*
X229550Y300447D01*
X229465Y300336D01*
X229377Y300227D01*
X229287Y300121D01*
X229193Y300017D01*
X229096Y299916D01*
X228996Y299818D01*
X228894Y299723D01*
X228789Y299631D01*
X228682Y299541D01*
X228572Y299455D01*
X228459Y299372D01*
X228345Y299292D01*
X228228Y299215D01*
X228109Y299142D01*
X227988Y299072D01*
X227865Y299006D01*
X227740Y298943D01*
X227613Y298883D01*
X227485Y298828D01*
X227356Y298776D01*
X227224Y298727D01*
X227092Y298682D01*
X226958Y298641D01*
X226824Y298604D01*
X226688Y298571D01*
X226551Y298542D01*
X226414Y298516D01*
X226276Y298494D01*
X226137Y298477D01*
X225998Y298463D01*
X225858Y298453D01*
X225719Y298447D01*
X225579Y298445D01*
X220640Y298445D01*
X236635Y290543D02*
X241574Y290543D01*
X241714Y290545D01*
X241853Y290551D01*
X241993Y290561D01*
X242132Y290575D01*
X242271Y290592D01*
X242409Y290614D01*
X242546Y290640D01*
X242683Y290669D01*
X242819Y290702D01*
X242953Y290739D01*
X243087Y290780D01*
X243219Y290825D01*
X243351Y290874D01*
X243480Y290926D01*
X243608Y290981D01*
X243735Y291041D01*
X243860Y291104D01*
X243983Y291170D01*
X244104Y291240D01*
X244223Y291313D01*
X244340Y291390D01*
X244454Y291470D01*
X244567Y291553D01*
X244677Y291639D01*
X244784Y291729D01*
X244889Y291821D01*
X244991Y291916D01*
X245091Y292014D01*
X245188Y292115D01*
X245282Y292219D01*
X245372Y292325D01*
X245460Y292434D01*
X245545Y292545D01*
X245626Y292659D01*
X245705Y292774D01*
X245780Y292892D01*
X245851Y293013D01*
X245919Y293135D01*
X245984Y293258D01*
X246045Y293384D01*
X246103Y293512D01*
X246157Y293640D01*
X246207Y293771D01*
X246254Y293903D01*
X246297Y294036D01*
X246336Y294170D01*
X246371Y294305D01*
X246402Y294441D01*
X246430Y294579D01*
X246453Y294716D01*
X246473Y294855D01*
X246489Y294994D01*
X246501Y295133D01*
X246509Y295272D01*
X246513Y295412D01*
X246513Y295552D01*
X246509Y295692D01*
X246501Y295831D01*
X246489Y295970D01*
X246473Y296109D01*
X246453Y296248D01*
X246430Y296385D01*
X246402Y296523D01*
X246371Y296659D01*
X246336Y296794D01*
X246297Y296928D01*
X246254Y297061D01*
X246207Y297193D01*
X246157Y297324D01*
X246103Y297452D01*
X246045Y297580D01*
X245984Y297706D01*
X245919Y297829D01*
X245851Y297952D01*
X245780Y298072D01*
X245705Y298190D01*
X245626Y298305D01*
X245545Y298419D01*
X245460Y298530D01*
X245372Y298639D01*
X245282Y298745D01*
X245188Y298849D01*
X245091Y298950D01*
X244991Y299048D01*
X244889Y299143D01*
X244784Y299235D01*
X244677Y299325D01*
X244567Y299411D01*
X244454Y299494D01*
X244340Y299574D01*
X244223Y299651D01*
X244104Y299724D01*
X243983Y299794D01*
X243860Y299860D01*
X243735Y299923D01*
X243608Y299983D01*
X243480Y300038D01*
X243351Y300090D01*
X243219Y300139D01*
X243087Y300184D01*
X242953Y300225D01*
X242819Y300262D01*
X242683Y300295D01*
X242546Y300324D01*
X242409Y300350D01*
X242271Y300372D01*
X242132Y300389D01*
X241993Y300403D01*
X241853Y300413D01*
X241714Y300419D01*
X241574Y300421D01*
X242561Y308323D02*
X236635Y308323D01*
X242561Y308323D02*
X242685Y308321D01*
X242809Y308315D01*
X242933Y308305D01*
X243056Y308292D01*
X243179Y308274D01*
X243301Y308253D01*
X243423Y308228D01*
X243544Y308199D01*
X243663Y308166D01*
X243782Y308130D01*
X243899Y308089D01*
X244015Y308046D01*
X244130Y307998D01*
X244243Y307947D01*
X244355Y307892D01*
X244464Y307834D01*
X244572Y307773D01*
X244678Y307708D01*
X244782Y307640D01*
X244883Y307568D01*
X244983Y307494D01*
X245079Y307416D01*
X245174Y307336D01*
X245266Y307252D01*
X245355Y307166D01*
X245441Y307077D01*
X245525Y306985D01*
X245605Y306890D01*
X245683Y306794D01*
X245757Y306694D01*
X245829Y306593D01*
X245897Y306489D01*
X245962Y306383D01*
X246023Y306275D01*
X246081Y306166D01*
X246136Y306054D01*
X246187Y305941D01*
X246235Y305826D01*
X246278Y305710D01*
X246319Y305593D01*
X246355Y305474D01*
X246388Y305355D01*
X246417Y305234D01*
X246442Y305112D01*
X246463Y304990D01*
X246481Y304867D01*
X246494Y304744D01*
X246504Y304620D01*
X246510Y304496D01*
X246512Y304372D01*
X246510Y304248D01*
X246504Y304124D01*
X246494Y304000D01*
X246481Y303877D01*
X246463Y303754D01*
X246442Y303632D01*
X246417Y303510D01*
X246388Y303389D01*
X246355Y303270D01*
X246319Y303151D01*
X246278Y303034D01*
X246235Y302918D01*
X246187Y302803D01*
X246136Y302690D01*
X246081Y302578D01*
X246023Y302469D01*
X245962Y302361D01*
X245897Y302255D01*
X245829Y302151D01*
X245757Y302050D01*
X245683Y301950D01*
X245605Y301854D01*
X245525Y301759D01*
X245441Y301667D01*
X245355Y301578D01*
X245266Y301492D01*
X245174Y301408D01*
X245079Y301328D01*
X244983Y301250D01*
X244883Y301176D01*
X244782Y301104D01*
X244678Y301036D01*
X244572Y300971D01*
X244464Y300910D01*
X244355Y300852D01*
X244243Y300797D01*
X244130Y300746D01*
X244015Y300698D01*
X243899Y300655D01*
X243782Y300614D01*
X243663Y300578D01*
X243544Y300545D01*
X243423Y300516D01*
X243301Y300491D01*
X243179Y300470D01*
X243056Y300452D01*
X242933Y300439D01*
X242809Y300429D01*
X242685Y300423D01*
X242561Y300421D01*
X238610Y300421D01*
X231308Y389792D02*
X231308Y407572D01*
X236247Y407572D01*
X236387Y407570D01*
X236526Y407564D01*
X236666Y407554D01*
X236805Y407540D01*
X236944Y407523D01*
X237082Y407501D01*
X237219Y407475D01*
X237356Y407446D01*
X237492Y407413D01*
X237626Y407376D01*
X237760Y407335D01*
X237892Y407290D01*
X238024Y407241D01*
X238153Y407189D01*
X238281Y407134D01*
X238408Y407074D01*
X238533Y407011D01*
X238656Y406945D01*
X238777Y406875D01*
X238896Y406802D01*
X239013Y406725D01*
X239127Y406645D01*
X239240Y406562D01*
X239350Y406476D01*
X239457Y406386D01*
X239562Y406294D01*
X239664Y406199D01*
X239764Y406101D01*
X239861Y406000D01*
X239955Y405896D01*
X240045Y405790D01*
X240133Y405681D01*
X240218Y405570D01*
X240299Y405456D01*
X240378Y405341D01*
X240453Y405223D01*
X240524Y405103D01*
X240592Y404980D01*
X240657Y404857D01*
X240718Y404731D01*
X240776Y404603D01*
X240830Y404475D01*
X240880Y404344D01*
X240927Y404212D01*
X240970Y404079D01*
X241009Y403945D01*
X241044Y403810D01*
X241075Y403674D01*
X241103Y403536D01*
X241126Y403399D01*
X241146Y403260D01*
X241162Y403121D01*
X241174Y402982D01*
X241182Y402843D01*
X241186Y402703D01*
X241186Y402563D01*
X241182Y402423D01*
X241174Y402284D01*
X241162Y402145D01*
X241146Y402006D01*
X241126Y401867D01*
X241103Y401730D01*
X241075Y401592D01*
X241044Y401456D01*
X241009Y401321D01*
X240970Y401187D01*
X240927Y401054D01*
X240880Y400922D01*
X240830Y400791D01*
X240776Y400663D01*
X240718Y400535D01*
X240657Y400409D01*
X240592Y400286D01*
X240524Y400164D01*
X240453Y400043D01*
X240378Y399925D01*
X240299Y399810D01*
X240218Y399696D01*
X240133Y399585D01*
X240045Y399476D01*
X239955Y399370D01*
X239861Y399266D01*
X239764Y399165D01*
X239664Y399067D01*
X239562Y398972D01*
X239457Y398880D01*
X239350Y398790D01*
X239240Y398704D01*
X239127Y398621D01*
X239013Y398541D01*
X238896Y398464D01*
X238777Y398391D01*
X238656Y398321D01*
X238533Y398255D01*
X238408Y398192D01*
X238281Y398132D01*
X238153Y398077D01*
X238024Y398025D01*
X237892Y397976D01*
X237760Y397931D01*
X237626Y397890D01*
X237492Y397853D01*
X237356Y397820D01*
X237219Y397791D01*
X237082Y397765D01*
X236944Y397743D01*
X236805Y397726D01*
X236666Y397712D01*
X236526Y397702D01*
X236387Y397696D01*
X236247Y397694D01*
X231308Y397694D01*
X247303Y393743D02*
X251254Y407572D01*
X247303Y393743D02*
X257180Y393743D01*
X254217Y397694D02*
X254217Y389792D01*
X333518Y457894D02*
X333518Y475674D01*
X338457Y475674D01*
X338597Y475672D01*
X338736Y475666D01*
X338876Y475656D01*
X339015Y475642D01*
X339154Y475625D01*
X339292Y475603D01*
X339429Y475577D01*
X339566Y475548D01*
X339702Y475515D01*
X339836Y475478D01*
X339970Y475437D01*
X340102Y475392D01*
X340234Y475343D01*
X340363Y475291D01*
X340491Y475236D01*
X340618Y475176D01*
X340743Y475113D01*
X340866Y475047D01*
X340987Y474977D01*
X341106Y474904D01*
X341223Y474827D01*
X341337Y474747D01*
X341450Y474664D01*
X341560Y474578D01*
X341667Y474488D01*
X341772Y474396D01*
X341874Y474301D01*
X341974Y474203D01*
X342071Y474102D01*
X342165Y473998D01*
X342255Y473892D01*
X342343Y473783D01*
X342428Y473672D01*
X342509Y473558D01*
X342588Y473443D01*
X342663Y473325D01*
X342734Y473205D01*
X342802Y473082D01*
X342867Y472959D01*
X342928Y472833D01*
X342986Y472705D01*
X343040Y472577D01*
X343090Y472446D01*
X343137Y472314D01*
X343180Y472181D01*
X343219Y472047D01*
X343254Y471912D01*
X343285Y471776D01*
X343313Y471638D01*
X343336Y471501D01*
X343356Y471362D01*
X343372Y471223D01*
X343384Y471084D01*
X343392Y470945D01*
X343396Y470805D01*
X343396Y470665D01*
X343392Y470525D01*
X343384Y470386D01*
X343372Y470247D01*
X343356Y470108D01*
X343336Y469969D01*
X343313Y469832D01*
X343285Y469694D01*
X343254Y469558D01*
X343219Y469423D01*
X343180Y469289D01*
X343137Y469156D01*
X343090Y469024D01*
X343040Y468893D01*
X342986Y468765D01*
X342928Y468637D01*
X342867Y468511D01*
X342802Y468388D01*
X342734Y468266D01*
X342663Y468145D01*
X342588Y468027D01*
X342509Y467912D01*
X342428Y467798D01*
X342343Y467687D01*
X342255Y467578D01*
X342165Y467472D01*
X342071Y467368D01*
X341974Y467267D01*
X341874Y467169D01*
X341772Y467074D01*
X341667Y466982D01*
X341560Y466892D01*
X341450Y466806D01*
X341337Y466723D01*
X341223Y466643D01*
X341106Y466566D01*
X340987Y466493D01*
X340866Y466423D01*
X340743Y466357D01*
X340618Y466294D01*
X340491Y466234D01*
X340363Y466179D01*
X340234Y466127D01*
X340102Y466078D01*
X339970Y466033D01*
X339836Y465992D01*
X339702Y465955D01*
X339566Y465922D01*
X339429Y465893D01*
X339292Y465867D01*
X339154Y465845D01*
X339015Y465828D01*
X338876Y465814D01*
X338736Y465804D01*
X338597Y465798D01*
X338457Y465796D01*
X333518Y465796D01*
X349513Y457894D02*
X355439Y457894D01*
X355563Y457896D01*
X355687Y457902D01*
X355811Y457912D01*
X355934Y457925D01*
X356057Y457943D01*
X356179Y457964D01*
X356301Y457989D01*
X356422Y458018D01*
X356541Y458051D01*
X356660Y458087D01*
X356777Y458128D01*
X356893Y458171D01*
X357008Y458219D01*
X357121Y458270D01*
X357233Y458325D01*
X357342Y458383D01*
X357450Y458444D01*
X357556Y458509D01*
X357660Y458577D01*
X357761Y458649D01*
X357861Y458723D01*
X357957Y458801D01*
X358052Y458881D01*
X358144Y458965D01*
X358233Y459051D01*
X358319Y459140D01*
X358403Y459232D01*
X358483Y459327D01*
X358561Y459423D01*
X358635Y459523D01*
X358707Y459624D01*
X358775Y459728D01*
X358840Y459834D01*
X358901Y459942D01*
X358959Y460051D01*
X359014Y460163D01*
X359065Y460276D01*
X359113Y460391D01*
X359156Y460507D01*
X359197Y460624D01*
X359233Y460743D01*
X359266Y460862D01*
X359295Y460983D01*
X359320Y461105D01*
X359341Y461227D01*
X359359Y461350D01*
X359372Y461473D01*
X359382Y461597D01*
X359388Y461721D01*
X359390Y461845D01*
X359390Y463821D01*
X359388Y463945D01*
X359382Y464069D01*
X359372Y464193D01*
X359359Y464316D01*
X359341Y464439D01*
X359320Y464561D01*
X359295Y464683D01*
X359266Y464804D01*
X359233Y464923D01*
X359197Y465042D01*
X359156Y465159D01*
X359113Y465275D01*
X359065Y465390D01*
X359014Y465503D01*
X358959Y465615D01*
X358901Y465724D01*
X358840Y465832D01*
X358775Y465938D01*
X358707Y466042D01*
X358635Y466143D01*
X358561Y466243D01*
X358483Y466339D01*
X358403Y466434D01*
X358319Y466526D01*
X358233Y466615D01*
X358144Y466701D01*
X358052Y466785D01*
X357957Y466865D01*
X357861Y466943D01*
X357761Y467017D01*
X357660Y467089D01*
X357556Y467157D01*
X357450Y467222D01*
X357342Y467283D01*
X357233Y467341D01*
X357121Y467396D01*
X357008Y467447D01*
X356893Y467495D01*
X356777Y467538D01*
X356660Y467579D01*
X356541Y467615D01*
X356422Y467648D01*
X356301Y467677D01*
X356179Y467702D01*
X356057Y467723D01*
X355934Y467741D01*
X355811Y467754D01*
X355687Y467764D01*
X355563Y467770D01*
X355439Y467772D01*
X349513Y467772D01*
X349513Y475674D01*
X359390Y475674D01*
D12*
X421345Y293985D03*
D13*
X420830Y294132D03*
D14*
X420240Y294279D03*
D15*
X419799Y294427D03*
D16*
X419283Y294574D03*
D17*
X418841Y294721D03*
D18*
X418252Y294869D03*
D19*
X417736Y295016D03*
D20*
X417294Y295163D03*
D21*
X416852Y295311D03*
D22*
X416778Y295458D03*
D23*
X416852Y295605D03*
D24*
X416926Y295753D03*
D25*
X416852Y295900D03*
D26*
X416926Y296047D03*
D27*
X416926Y296194D03*
D28*
X416999Y296342D03*
X416999Y296489D03*
D29*
X416999Y296636D03*
D30*
X417073Y296784D03*
D31*
X417073Y296931D03*
X417073Y297078D03*
D32*
X417147Y297226D03*
D33*
X417147Y297373D03*
D34*
X417220Y297520D03*
D35*
X417147Y297668D03*
D36*
X417220Y297815D03*
D37*
X417294Y297962D03*
D38*
X417294Y298110D03*
X417294Y298257D03*
D39*
X417368Y298404D03*
D40*
X417368Y298552D03*
D41*
X417441Y298699D03*
D42*
X417368Y298846D03*
D43*
X417441Y298994D03*
D44*
X417515Y299141D03*
D45*
X417515Y299288D03*
X417515Y299436D03*
D46*
X417515Y299583D03*
D47*
X417589Y299730D03*
X417589Y299877D03*
D48*
X417589Y300025D03*
D49*
X417662Y300172D03*
D50*
X417662Y300319D03*
X417662Y300467D03*
D51*
X417736Y300614D03*
D52*
X417736Y300761D03*
D53*
X417810Y300909D03*
D54*
X417736Y301056D03*
D55*
X417810Y301203D03*
D56*
X417883Y301351D03*
D57*
X438361Y301351D03*
D58*
X417883Y301498D03*
D59*
X437772Y301498D03*
D58*
X417883Y301645D03*
D60*
X437330Y301645D03*
D61*
X417883Y301793D03*
D62*
X436814Y301793D03*
D63*
X417957Y301940D03*
D64*
X436372Y301940D03*
D63*
X417957Y302087D03*
D65*
X435783Y302087D03*
D66*
X417883Y302235D03*
D67*
X435341Y302235D03*
D66*
X417883Y302382D03*
D68*
X434825Y302382D03*
D63*
X417810Y302529D03*
D69*
X434383Y302529D03*
D66*
X417736Y302677D03*
D21*
X434236Y302677D03*
D66*
X417736Y302824D03*
D23*
X434236Y302824D03*
D66*
X417589Y302971D03*
D24*
X434310Y302971D03*
D66*
X417589Y303119D03*
D25*
X434383Y303119D03*
D63*
X417515Y303266D03*
D26*
X434310Y303266D03*
D66*
X417441Y303413D03*
D70*
X434383Y303413D03*
D66*
X417441Y303560D03*
D28*
X434383Y303560D03*
D66*
X417294Y303708D03*
D71*
X434457Y303708D03*
D66*
X417294Y303855D03*
D71*
X434457Y303855D03*
D63*
X417220Y304002D03*
D30*
X434457Y304002D03*
D66*
X417147Y304150D03*
D72*
X434531Y304150D03*
D66*
X417147Y304297D03*
D32*
X434531Y304297D03*
D66*
X416999Y304444D03*
D32*
X434531Y304444D03*
D66*
X416999Y304592D03*
D73*
X434604Y304592D03*
D63*
X416926Y304739D03*
D34*
X434604Y304739D03*
D61*
X416999Y304886D03*
D35*
X434678Y304886D03*
D61*
X416999Y305034D03*
D36*
X434604Y305034D03*
D74*
X416999Y305181D03*
D75*
X434678Y305181D03*
D76*
X417073Y305328D03*
D77*
X434751Y305328D03*
D55*
X417073Y305476D03*
D78*
X434751Y305476D03*
D55*
X417073Y305623D03*
D78*
X434751Y305623D03*
D54*
X417147Y305770D03*
D79*
X434825Y305770D03*
D52*
X417147Y305918D03*
D41*
X434825Y305918D03*
D80*
X417220Y306065D03*
D41*
X434825Y306065D03*
D51*
X417147Y306212D03*
D43*
X434825Y306212D03*
D81*
X417220Y306360D03*
D44*
X434899Y306360D03*
D82*
X417294Y306507D03*
D83*
X434972Y306507D03*
D48*
X417294Y306654D03*
D84*
X434899Y306654D03*
D48*
X417294Y306802D03*
D85*
X434972Y306802D03*
D86*
X417368Y306949D03*
D47*
X434972Y306949D03*
D46*
X417368Y307096D03*
D86*
X435046Y307096D03*
D46*
X417368Y307243D03*
D86*
X435046Y307243D03*
D84*
X417368Y307391D03*
D49*
X435046Y307391D03*
D87*
X417441Y307538D03*
D82*
X435120Y307538D03*
D44*
X417515Y307685D03*
D51*
X435120Y307685D03*
D43*
X417441Y307833D03*
D51*
X435120Y307833D03*
D42*
X417515Y307980D03*
D80*
X435193Y307980D03*
D40*
X417515Y308127D03*
D53*
X435193Y308127D03*
D79*
X417589Y308275D03*
D54*
X435267Y308275D03*
D79*
X417589Y308422D03*
D55*
X435193Y308422D03*
D88*
X417589Y308569D03*
D89*
X435267Y308569D03*
D77*
X417662Y308717D03*
D76*
X435341Y308717D03*
D36*
X417662Y308864D03*
D90*
X435341Y308864D03*
D36*
X417662Y309011D03*
D90*
X435341Y309011D03*
D35*
X417736Y309159D03*
D63*
X435341Y309159D03*
D33*
X417736Y309306D03*
D66*
X435414Y309306D03*
D73*
X417810Y309453D03*
D63*
X435341Y309453D03*
D32*
X417736Y309601D03*
D66*
X435267Y309601D03*
D91*
X417810Y309748D03*
D66*
X435267Y309748D03*
D92*
X417883Y309895D03*
D63*
X435193Y309895D03*
D29*
X417883Y310043D03*
D66*
X435120Y310043D03*
D29*
X417883Y310190D03*
D66*
X435120Y310190D03*
D71*
X417957Y310337D03*
D66*
X434972Y310337D03*
D27*
X417957Y310485D03*
D66*
X434972Y310485D03*
D70*
X418031Y310632D03*
D63*
X434899Y310632D03*
D93*
X417957Y310779D03*
D66*
X434825Y310779D03*
D25*
X418031Y310926D03*
D66*
X434825Y310926D03*
D24*
X418104Y311074D03*
D66*
X434678Y311074D03*
D23*
X418031Y311221D03*
D66*
X434678Y311221D03*
D22*
X418104Y311368D03*
D63*
X434604Y311368D03*
D69*
X418031Y311516D03*
D66*
X434531Y311516D03*
D94*
X417515Y311663D03*
D66*
X434531Y311663D03*
D67*
X416926Y311810D03*
D66*
X434383Y311810D03*
D65*
X416484Y311958D03*
D66*
X434383Y311958D03*
D95*
X415968Y312105D03*
D61*
X434383Y312105D03*
D96*
X415526Y312252D03*
D90*
X434457Y312252D03*
D60*
X414937Y312400D03*
D90*
X434457Y312400D03*
D97*
X414421Y312547D03*
D98*
X434457Y312547D03*
D99*
X413979Y312694D03*
D56*
X434531Y312694D03*
D100*
X423776Y312842D03*
D55*
X434457Y312842D03*
D101*
X423261Y312989D03*
D54*
X434531Y312989D03*
D14*
X422745Y313136D03*
D53*
X434604Y313136D03*
D102*
X422229Y313284D03*
D80*
X434604Y313284D03*
D16*
X421787Y313431D03*
D80*
X434604Y313431D03*
D103*
X421272Y313578D03*
D81*
X434604Y313578D03*
D18*
X420756Y313726D03*
D104*
X434678Y313726D03*
D19*
X420240Y313873D03*
D49*
X434751Y313873D03*
D105*
X419725Y314020D03*
D48*
X434678Y314020D03*
D106*
X419283Y314168D03*
D86*
X434751Y314168D03*
D22*
X419283Y314315D03*
D47*
X434825Y314315D03*
D23*
X419357Y314462D03*
D85*
X434825Y314462D03*
D24*
X419430Y314609D03*
D85*
X434825Y314609D03*
D25*
X419357Y314757D03*
D87*
X434825Y314757D03*
D26*
X419430Y314904D03*
D44*
X434899Y314904D03*
D107*
X419430Y315051D03*
D43*
X434972Y315051D03*
D28*
X419504Y315199D03*
D42*
X434899Y315199D03*
D28*
X419504Y315346D03*
D41*
X434972Y315346D03*
D29*
X419504Y315493D03*
D79*
X434972Y315493D03*
D30*
X419578Y315641D03*
D39*
X435046Y315641D03*
D31*
X419578Y315788D03*
D39*
X435046Y315788D03*
D31*
X419578Y315935D03*
D108*
X435046Y315935D03*
D32*
X419651Y316083D03*
D75*
X435120Y316083D03*
D33*
X419651Y316230D03*
D35*
X435120Y316230D03*
D34*
X419725Y316377D03*
D35*
X435120Y316377D03*
X419651Y316525D03*
D34*
X435193Y316525D03*
D36*
X419725Y316672D03*
D73*
X435193Y316672D03*
D75*
X419799Y316819D03*
D73*
X435193Y316819D03*
D38*
X419799Y316967D03*
D91*
X435193Y316967D03*
D38*
X419799Y317114D03*
D72*
X435267Y317114D03*
D79*
X419799Y317261D03*
D30*
X435341Y317261D03*
D40*
X419872Y317409D03*
D29*
X435267Y317409D03*
D41*
X419946Y317556D03*
D71*
X435341Y317556D03*
D42*
X419872Y317703D03*
D27*
X435341Y317703D03*
D43*
X419946Y317851D03*
D109*
X435414Y317851D03*
D87*
X419946Y317998D03*
D109*
X435414Y317998D03*
D45*
X420019Y318145D03*
D25*
X435414Y318145D03*
D45*
X420019Y318292D03*
D24*
X435488Y318292D03*
D46*
X420019Y318440D03*
D23*
X435562Y318440D03*
D47*
X420093Y318587D03*
D22*
X435488Y318587D03*
D47*
X420093Y318734D03*
D106*
X435488Y318734D03*
D48*
X420093Y318882D03*
D110*
X435046Y318882D03*
D49*
X420167Y319029D03*
D111*
X434531Y319029D03*
D50*
X420167Y319176D03*
D18*
X434015Y319176D03*
D50*
X420167Y319324D03*
D112*
X433499Y319324D03*
D51*
X420240Y319471D03*
D113*
X433057Y319471D03*
D52*
X420240Y319618D03*
D114*
X432542Y319618D03*
D53*
X420314Y319766D03*
D14*
X432026Y319766D03*
D54*
X420240Y319913D03*
D115*
X431510Y319913D03*
D55*
X420314Y320060D03*
D12*
X431068Y320060D03*
D56*
X420388Y320208D03*
D58*
X420388Y320355D03*
X420388Y320502D03*
D61*
X420388Y320650D03*
D63*
X420461Y320797D03*
X420461Y320944D03*
D66*
X420388Y321092D03*
X420388Y321239D03*
X420240Y321386D03*
X420240Y321534D03*
D63*
X420167Y321681D03*
D66*
X420093Y321828D03*
X420093Y321975D03*
X419946Y322123D03*
X419946Y322270D03*
D63*
X419872Y322417D03*
D66*
X419799Y322565D03*
X419799Y322712D03*
D63*
X419725Y322859D03*
D66*
X419651Y323007D03*
X419651Y323154D03*
X419504Y323301D03*
X419504Y323449D03*
D63*
X419430Y323596D03*
D61*
X419504Y323743D03*
X419504Y323891D03*
D74*
X419504Y324038D03*
D76*
X419578Y324185D03*
D55*
X419578Y324333D03*
X419578Y324480D03*
D54*
X419651Y324627D03*
D52*
X419651Y324775D03*
D80*
X419725Y324922D03*
D51*
X419651Y325069D03*
D81*
X419725Y325217D03*
D82*
X419799Y325364D03*
D116*
X419725Y325511D03*
D48*
X419799Y325658D03*
D47*
X419799Y325806D03*
D46*
X419872Y325953D03*
X419872Y326100D03*
D84*
X419872Y326248D03*
D87*
X419946Y326395D03*
D43*
X419946Y326542D03*
X419946Y326690D03*
D42*
X420019Y326837D03*
D40*
X420019Y326984D03*
D79*
X420093Y327132D03*
X420093Y327279D03*
D88*
X420093Y327426D03*
D77*
X420167Y327574D03*
D36*
X420167Y327721D03*
X420167Y327868D03*
D35*
X420240Y328016D03*
D33*
X420240Y328163D03*
D73*
X420314Y328310D03*
D32*
X420240Y328458D03*
D91*
X420314Y328605D03*
D92*
X420388Y328752D03*
D29*
X420388Y328900D03*
X420388Y329047D03*
D28*
X420388Y329194D03*
D27*
X420461Y329341D03*
D70*
X420535Y329489D03*
D93*
X420461Y329636D03*
D25*
X420535Y329783D03*
D23*
X420535Y329931D03*
X420535Y330078D03*
D22*
X420609Y330225D03*
D117*
X420461Y330373D03*
D118*
X419946Y330520D03*
D67*
X419430Y330667D03*
D119*
X418915Y330815D03*
D95*
X418473Y330962D03*
D120*
X417957Y331109D03*
D60*
X417441Y331257D03*
D97*
X416926Y331404D03*
D121*
X416410Y331551D03*
D122*
X384580Y314557D02*
X382080Y314557D01*
X379580Y314557D01*
X382080Y314557D02*
X384580Y309557D01*
X379580Y309557D02*
X382080Y314557D01*
X379580Y309557D02*
X384580Y309557D01*
X387080Y299557D02*
X377080Y299557D01*
X377080Y324557D01*
X387080Y324557D01*
X387080Y299557D01*
D123*
X386566Y326555D02*
X377168Y326555D01*
X377168Y329166D01*
X377170Y329266D01*
X377176Y329366D01*
X377185Y329465D01*
X377199Y329565D01*
X377216Y329663D01*
X377237Y329761D01*
X377261Y329858D01*
X377290Y329954D01*
X377322Y330049D01*
X377357Y330142D01*
X377396Y330234D01*
X377439Y330325D01*
X377485Y330413D01*
X377535Y330500D01*
X377587Y330585D01*
X377643Y330668D01*
X377702Y330749D01*
X377765Y330827D01*
X377830Y330903D01*
X377898Y330977D01*
X377968Y331047D01*
X378042Y331115D01*
X378118Y331180D01*
X378196Y331243D01*
X378277Y331302D01*
X378360Y331358D01*
X378445Y331410D01*
X378532Y331460D01*
X378620Y331506D01*
X378711Y331549D01*
X378803Y331588D01*
X378896Y331623D01*
X378991Y331655D01*
X379087Y331684D01*
X379184Y331708D01*
X379282Y331729D01*
X379380Y331746D01*
X379480Y331760D01*
X379579Y331769D01*
X379679Y331775D01*
X379779Y331777D01*
X379779Y331776D02*
X383956Y331776D01*
X383956Y331777D02*
X384056Y331775D01*
X384156Y331769D01*
X384255Y331760D01*
X384355Y331746D01*
X384453Y331729D01*
X384551Y331708D01*
X384648Y331684D01*
X384744Y331655D01*
X384839Y331623D01*
X384932Y331588D01*
X385024Y331549D01*
X385115Y331506D01*
X385203Y331460D01*
X385290Y331410D01*
X385375Y331358D01*
X385458Y331302D01*
X385539Y331243D01*
X385617Y331180D01*
X385693Y331115D01*
X385767Y331047D01*
X385837Y330977D01*
X385905Y330903D01*
X385970Y330827D01*
X386033Y330749D01*
X386092Y330668D01*
X386148Y330585D01*
X386200Y330500D01*
X386250Y330413D01*
X386296Y330325D01*
X386339Y330234D01*
X386378Y330142D01*
X386413Y330049D01*
X386445Y329954D01*
X386474Y329858D01*
X386498Y329761D01*
X386519Y329663D01*
X386536Y329565D01*
X386550Y329465D01*
X386559Y329366D01*
X386565Y329266D01*
X386567Y329166D01*
X386566Y329166D02*
X386566Y326555D01*
X379257Y336004D02*
X377168Y338614D01*
X386566Y338614D01*
X386566Y336004D02*
X386566Y341225D01*
X422327Y353654D02*
X422327Y363052D01*
X426503Y363052D01*
X426503Y358875D02*
X422327Y358875D01*
X430365Y358875D02*
X432976Y358875D01*
X432976Y358876D02*
X433077Y358874D01*
X433178Y358868D01*
X433279Y358858D01*
X433379Y358845D01*
X433479Y358827D01*
X433578Y358806D01*
X433676Y358780D01*
X433773Y358751D01*
X433869Y358719D01*
X433963Y358682D01*
X434056Y358642D01*
X434148Y358598D01*
X434237Y358551D01*
X434325Y358500D01*
X434411Y358446D01*
X434494Y358389D01*
X434576Y358329D01*
X434654Y358265D01*
X434731Y358199D01*
X434804Y358129D01*
X434875Y358057D01*
X434943Y357982D01*
X435008Y357904D01*
X435070Y357824D01*
X435129Y357742D01*
X435185Y357657D01*
X435237Y357570D01*
X435286Y357482D01*
X435332Y357391D01*
X435373Y357299D01*
X435412Y357205D01*
X435446Y357110D01*
X435477Y357014D01*
X435504Y356916D01*
X435528Y356818D01*
X435547Y356718D01*
X435563Y356618D01*
X435575Y356518D01*
X435583Y356417D01*
X435587Y356316D01*
X435587Y356214D01*
X435583Y356113D01*
X435575Y356012D01*
X435563Y355912D01*
X435547Y355812D01*
X435528Y355712D01*
X435504Y355614D01*
X435477Y355516D01*
X435446Y355420D01*
X435412Y355325D01*
X435373Y355231D01*
X435332Y355139D01*
X435286Y355048D01*
X435237Y354960D01*
X435185Y354873D01*
X435129Y354788D01*
X435070Y354706D01*
X435008Y354626D01*
X434943Y354548D01*
X434875Y354473D01*
X434804Y354401D01*
X434731Y354331D01*
X434654Y354265D01*
X434576Y354201D01*
X434494Y354141D01*
X434411Y354084D01*
X434325Y354030D01*
X434237Y353979D01*
X434148Y353932D01*
X434056Y353888D01*
X433963Y353848D01*
X433869Y353811D01*
X433773Y353779D01*
X433676Y353750D01*
X433578Y353724D01*
X433479Y353703D01*
X433379Y353685D01*
X433279Y353672D01*
X433178Y353662D01*
X433077Y353656D01*
X432976Y353654D01*
X430365Y353654D01*
X430365Y363052D01*
X432976Y363052D01*
X433066Y363050D01*
X433155Y363044D01*
X433245Y363035D01*
X433334Y363021D01*
X433422Y363004D01*
X433509Y362983D01*
X433596Y362958D01*
X433681Y362929D01*
X433765Y362897D01*
X433847Y362862D01*
X433928Y362822D01*
X434007Y362780D01*
X434084Y362734D01*
X434159Y362684D01*
X434232Y362632D01*
X434303Y362576D01*
X434371Y362518D01*
X434436Y362456D01*
X434499Y362392D01*
X434559Y362325D01*
X434616Y362256D01*
X434670Y362184D01*
X434721Y362110D01*
X434769Y362034D01*
X434813Y361956D01*
X434854Y361876D01*
X434892Y361794D01*
X434926Y361711D01*
X434956Y361626D01*
X434983Y361540D01*
X435006Y361454D01*
X435025Y361366D01*
X435040Y361277D01*
X435052Y361188D01*
X435060Y361099D01*
X435064Y361009D01*
X435064Y360919D01*
X435060Y360829D01*
X435052Y360740D01*
X435040Y360651D01*
X435025Y360562D01*
X435006Y360474D01*
X434983Y360388D01*
X434956Y360302D01*
X434926Y360217D01*
X434892Y360134D01*
X434854Y360052D01*
X434813Y359972D01*
X434769Y359894D01*
X434721Y359818D01*
X434670Y359744D01*
X434616Y359672D01*
X434559Y359603D01*
X434499Y359536D01*
X434436Y359472D01*
X434371Y359410D01*
X434303Y359352D01*
X434232Y359296D01*
X434159Y359244D01*
X434084Y359194D01*
X434007Y359148D01*
X433928Y359106D01*
X433847Y359066D01*
X433765Y359031D01*
X433681Y358999D01*
X433596Y358970D01*
X433509Y358945D01*
X433422Y358924D01*
X433334Y358907D01*
X433245Y358893D01*
X433155Y358884D01*
X433066Y358878D01*
X432976Y358876D01*
X439073Y360964D02*
X441684Y363052D01*
X441684Y353654D01*
X444294Y353654D02*
X439073Y353654D01*
X359969Y339709D02*
X359969Y330311D01*
X359969Y339709D02*
X362579Y339709D01*
X362680Y339707D01*
X362781Y339701D01*
X362882Y339691D01*
X362982Y339678D01*
X363082Y339660D01*
X363181Y339639D01*
X363279Y339613D01*
X363376Y339584D01*
X363472Y339552D01*
X363566Y339515D01*
X363659Y339475D01*
X363751Y339431D01*
X363840Y339384D01*
X363928Y339333D01*
X364014Y339279D01*
X364097Y339222D01*
X364179Y339162D01*
X364257Y339098D01*
X364334Y339032D01*
X364407Y338962D01*
X364478Y338890D01*
X364546Y338815D01*
X364611Y338737D01*
X364673Y338657D01*
X364732Y338575D01*
X364788Y338490D01*
X364840Y338403D01*
X364889Y338315D01*
X364935Y338224D01*
X364976Y338132D01*
X365015Y338038D01*
X365049Y337943D01*
X365080Y337847D01*
X365107Y337749D01*
X365131Y337651D01*
X365150Y337551D01*
X365166Y337451D01*
X365178Y337351D01*
X365186Y337250D01*
X365190Y337149D01*
X365190Y337047D01*
X365186Y336946D01*
X365178Y336845D01*
X365166Y336745D01*
X365150Y336645D01*
X365131Y336545D01*
X365107Y336447D01*
X365080Y336349D01*
X365049Y336253D01*
X365015Y336158D01*
X364976Y336064D01*
X364935Y335972D01*
X364889Y335881D01*
X364840Y335793D01*
X364788Y335706D01*
X364732Y335621D01*
X364673Y335539D01*
X364611Y335459D01*
X364546Y335381D01*
X364478Y335306D01*
X364407Y335234D01*
X364334Y335164D01*
X364257Y335098D01*
X364179Y335034D01*
X364097Y334974D01*
X364014Y334917D01*
X363928Y334863D01*
X363840Y334812D01*
X363751Y334765D01*
X363659Y334721D01*
X363566Y334681D01*
X363472Y334644D01*
X363376Y334612D01*
X363279Y334583D01*
X363181Y334557D01*
X363082Y334536D01*
X362982Y334518D01*
X362882Y334505D01*
X362781Y334495D01*
X362680Y334489D01*
X362579Y334487D01*
X362579Y334488D02*
X359969Y334488D01*
X363101Y334488D02*
X365190Y330311D01*
X369056Y337620D02*
X371666Y339709D01*
X371666Y330311D01*
X369056Y330311D02*
X374277Y330311D01*
X414515Y449039D02*
X414515Y458437D01*
X417126Y458437D01*
X417227Y458435D01*
X417328Y458429D01*
X417429Y458419D01*
X417529Y458406D01*
X417629Y458388D01*
X417728Y458367D01*
X417826Y458341D01*
X417923Y458312D01*
X418019Y458280D01*
X418113Y458243D01*
X418206Y458203D01*
X418298Y458159D01*
X418387Y458112D01*
X418475Y458061D01*
X418561Y458007D01*
X418644Y457950D01*
X418726Y457890D01*
X418804Y457826D01*
X418881Y457760D01*
X418954Y457690D01*
X419025Y457618D01*
X419093Y457543D01*
X419158Y457465D01*
X419220Y457385D01*
X419279Y457303D01*
X419335Y457218D01*
X419387Y457131D01*
X419436Y457043D01*
X419482Y456952D01*
X419523Y456860D01*
X419562Y456766D01*
X419596Y456671D01*
X419627Y456575D01*
X419654Y456477D01*
X419678Y456379D01*
X419697Y456279D01*
X419713Y456179D01*
X419725Y456079D01*
X419733Y455978D01*
X419737Y455877D01*
X419737Y455775D01*
X419733Y455674D01*
X419725Y455573D01*
X419713Y455473D01*
X419697Y455373D01*
X419678Y455273D01*
X419654Y455175D01*
X419627Y455077D01*
X419596Y454981D01*
X419562Y454886D01*
X419523Y454792D01*
X419482Y454700D01*
X419436Y454609D01*
X419387Y454521D01*
X419335Y454434D01*
X419279Y454349D01*
X419220Y454267D01*
X419158Y454187D01*
X419093Y454109D01*
X419025Y454034D01*
X418954Y453962D01*
X418881Y453892D01*
X418804Y453826D01*
X418726Y453762D01*
X418644Y453702D01*
X418561Y453645D01*
X418475Y453591D01*
X418387Y453540D01*
X418298Y453493D01*
X418206Y453449D01*
X418113Y453409D01*
X418019Y453372D01*
X417923Y453340D01*
X417826Y453311D01*
X417728Y453285D01*
X417629Y453264D01*
X417529Y453246D01*
X417429Y453233D01*
X417328Y453223D01*
X417227Y453217D01*
X417126Y453215D01*
X417126Y453216D02*
X414515Y453216D01*
X417648Y453216D02*
X419736Y449039D01*
X428824Y456087D02*
X428822Y456182D01*
X428816Y456276D01*
X428807Y456370D01*
X428794Y456464D01*
X428777Y456557D01*
X428756Y456649D01*
X428731Y456741D01*
X428703Y456831D01*
X428671Y456920D01*
X428636Y457008D01*
X428597Y457094D01*
X428555Y457179D01*
X428509Y457262D01*
X428460Y457343D01*
X428408Y457422D01*
X428353Y457499D01*
X428294Y457573D01*
X428233Y457645D01*
X428169Y457715D01*
X428102Y457782D01*
X428032Y457846D01*
X427960Y457907D01*
X427886Y457966D01*
X427809Y458021D01*
X427730Y458073D01*
X427649Y458122D01*
X427566Y458168D01*
X427481Y458210D01*
X427395Y458249D01*
X427307Y458284D01*
X427218Y458316D01*
X427128Y458344D01*
X427036Y458369D01*
X426944Y458390D01*
X426851Y458407D01*
X426757Y458420D01*
X426663Y458429D01*
X426569Y458435D01*
X426474Y458437D01*
X426474Y458436D02*
X426366Y458434D01*
X426257Y458428D01*
X426149Y458418D01*
X426042Y458405D01*
X425935Y458387D01*
X425828Y458366D01*
X425723Y458341D01*
X425618Y458312D01*
X425515Y458280D01*
X425413Y458243D01*
X425312Y458203D01*
X425213Y458160D01*
X425115Y458113D01*
X425019Y458062D01*
X424925Y458008D01*
X424833Y457951D01*
X424743Y457890D01*
X424655Y457826D01*
X424570Y457760D01*
X424487Y457690D01*
X424407Y457617D01*
X424329Y457541D01*
X424254Y457463D01*
X424182Y457382D01*
X424113Y457298D01*
X424047Y457212D01*
X423984Y457124D01*
X423925Y457033D01*
X423868Y456941D01*
X423815Y456846D01*
X423766Y456750D01*
X423720Y456651D01*
X423677Y456552D01*
X423638Y456450D01*
X423603Y456348D01*
X428041Y454259D02*
X428110Y454328D01*
X428176Y454399D01*
X428240Y454472D01*
X428301Y454548D01*
X428359Y454627D01*
X428413Y454707D01*
X428465Y454790D01*
X428513Y454874D01*
X428559Y454960D01*
X428600Y455048D01*
X428639Y455138D01*
X428674Y455229D01*
X428705Y455321D01*
X428733Y455414D01*
X428757Y455508D01*
X428777Y455603D01*
X428794Y455699D01*
X428807Y455796D01*
X428816Y455893D01*
X428822Y455990D01*
X428824Y456087D01*
X428040Y454260D02*
X423602Y449039D01*
X428823Y449039D01*
D11*
X209157Y357477D02*
X209157Y339697D01*
X209157Y357477D02*
X214095Y357477D01*
X214234Y357475D01*
X214372Y357469D01*
X214510Y357460D01*
X214648Y357446D01*
X214785Y357429D01*
X214922Y357407D01*
X215059Y357382D01*
X215194Y357353D01*
X215329Y357320D01*
X215462Y357284D01*
X215595Y357244D01*
X215726Y357200D01*
X215856Y357152D01*
X215985Y357101D01*
X216112Y357046D01*
X216238Y356988D01*
X216362Y356926D01*
X216484Y356861D01*
X216604Y356792D01*
X216723Y356720D01*
X216839Y356645D01*
X216953Y356566D01*
X217065Y356484D01*
X217174Y356399D01*
X217282Y356312D01*
X217386Y356221D01*
X217488Y356127D01*
X217587Y356030D01*
X217684Y355931D01*
X217778Y355829D01*
X217869Y355725D01*
X217956Y355617D01*
X218041Y355508D01*
X218123Y355396D01*
X218202Y355282D01*
X218277Y355166D01*
X218349Y355047D01*
X218418Y354927D01*
X218483Y354805D01*
X218545Y354681D01*
X218603Y354555D01*
X218658Y354428D01*
X218709Y354299D01*
X218757Y354169D01*
X218801Y354038D01*
X218841Y353905D01*
X218877Y353772D01*
X218910Y353637D01*
X218939Y353502D01*
X218964Y353365D01*
X218986Y353228D01*
X219003Y353091D01*
X219017Y352953D01*
X219026Y352815D01*
X219032Y352677D01*
X219034Y352538D01*
X219034Y344636D01*
X219032Y344497D01*
X219026Y344359D01*
X219017Y344221D01*
X219003Y344083D01*
X218986Y343946D01*
X218964Y343809D01*
X218939Y343672D01*
X218910Y343537D01*
X218877Y343402D01*
X218841Y343269D01*
X218801Y343136D01*
X218757Y343005D01*
X218709Y342875D01*
X218658Y342746D01*
X218603Y342619D01*
X218545Y342493D01*
X218483Y342369D01*
X218418Y342247D01*
X218349Y342127D01*
X218277Y342008D01*
X218202Y341892D01*
X218123Y341778D01*
X218041Y341666D01*
X217956Y341557D01*
X217869Y341449D01*
X217778Y341345D01*
X217684Y341243D01*
X217587Y341144D01*
X217488Y341047D01*
X217386Y340953D01*
X217282Y340862D01*
X217174Y340775D01*
X217065Y340690D01*
X216953Y340608D01*
X216839Y340529D01*
X216723Y340454D01*
X216604Y340382D01*
X216484Y340313D01*
X216362Y340248D01*
X216238Y340186D01*
X216112Y340128D01*
X215985Y340073D01*
X215856Y340022D01*
X215726Y339974D01*
X215595Y339930D01*
X215462Y339890D01*
X215329Y339854D01*
X215194Y339821D01*
X215059Y339792D01*
X214922Y339767D01*
X214785Y339745D01*
X214648Y339728D01*
X214510Y339714D01*
X214372Y339705D01*
X214234Y339699D01*
X214095Y339697D01*
X209157Y339697D01*
X212990Y364480D02*
X216941Y364480D01*
X212990Y364480D02*
X212866Y364482D01*
X212742Y364488D01*
X212618Y364498D01*
X212495Y364511D01*
X212372Y364529D01*
X212250Y364550D01*
X212128Y364575D01*
X212007Y364604D01*
X211888Y364637D01*
X211769Y364673D01*
X211652Y364714D01*
X211536Y364757D01*
X211421Y364805D01*
X211308Y364856D01*
X211196Y364911D01*
X211087Y364969D01*
X210979Y365030D01*
X210873Y365095D01*
X210769Y365163D01*
X210668Y365235D01*
X210568Y365309D01*
X210472Y365387D01*
X210377Y365467D01*
X210285Y365551D01*
X210196Y365637D01*
X210110Y365726D01*
X210026Y365818D01*
X209946Y365913D01*
X209868Y366009D01*
X209794Y366109D01*
X209722Y366210D01*
X209654Y366314D01*
X209589Y366420D01*
X209528Y366528D01*
X209470Y366637D01*
X209415Y366749D01*
X209364Y366862D01*
X209316Y366977D01*
X209273Y367093D01*
X209232Y367210D01*
X209196Y367329D01*
X209163Y367448D01*
X209134Y367569D01*
X209109Y367691D01*
X209088Y367813D01*
X209070Y367936D01*
X209057Y368059D01*
X209047Y368183D01*
X209041Y368307D01*
X209039Y368431D01*
X209039Y378309D01*
X209041Y378433D01*
X209047Y378557D01*
X209057Y378681D01*
X209070Y378804D01*
X209088Y378927D01*
X209109Y379049D01*
X209134Y379171D01*
X209163Y379292D01*
X209196Y379411D01*
X209232Y379530D01*
X209273Y379647D01*
X209316Y379763D01*
X209364Y379878D01*
X209415Y379991D01*
X209470Y380103D01*
X209528Y380212D01*
X209589Y380320D01*
X209654Y380426D01*
X209722Y380530D01*
X209794Y380631D01*
X209868Y380731D01*
X209946Y380827D01*
X210026Y380922D01*
X210110Y381014D01*
X210196Y381103D01*
X210285Y381189D01*
X210377Y381273D01*
X210472Y381353D01*
X210568Y381431D01*
X210668Y381505D01*
X210769Y381577D01*
X210873Y381645D01*
X210979Y381710D01*
X211087Y381771D01*
X211196Y381829D01*
X211308Y381884D01*
X211421Y381935D01*
X211536Y381983D01*
X211652Y382026D01*
X211769Y382067D01*
X211888Y382103D01*
X212007Y382136D01*
X212128Y382165D01*
X212250Y382190D01*
X212372Y382211D01*
X212495Y382229D01*
X212618Y382242D01*
X212742Y382252D01*
X212866Y382258D01*
X212990Y382260D01*
X216941Y382260D01*
X365600Y470961D02*
X370539Y470961D01*
X370679Y470959D01*
X370818Y470953D01*
X370958Y470943D01*
X371097Y470929D01*
X371236Y470912D01*
X371374Y470890D01*
X371511Y470864D01*
X371648Y470835D01*
X371784Y470802D01*
X371918Y470765D01*
X372052Y470724D01*
X372184Y470679D01*
X372316Y470630D01*
X372445Y470578D01*
X372573Y470523D01*
X372700Y470463D01*
X372825Y470400D01*
X372948Y470334D01*
X373069Y470264D01*
X373188Y470191D01*
X373305Y470114D01*
X373419Y470034D01*
X373532Y469951D01*
X373642Y469865D01*
X373749Y469775D01*
X373854Y469683D01*
X373956Y469588D01*
X374056Y469490D01*
X374153Y469389D01*
X374247Y469285D01*
X374337Y469179D01*
X374425Y469070D01*
X374510Y468959D01*
X374591Y468845D01*
X374670Y468730D01*
X374745Y468612D01*
X374816Y468492D01*
X374884Y468369D01*
X374949Y468246D01*
X375010Y468120D01*
X375068Y467992D01*
X375122Y467864D01*
X375172Y467733D01*
X375219Y467601D01*
X375262Y467468D01*
X375301Y467334D01*
X375336Y467199D01*
X375367Y467063D01*
X375395Y466925D01*
X375418Y466788D01*
X375438Y466649D01*
X375454Y466510D01*
X375466Y466371D01*
X375474Y466232D01*
X375478Y466092D01*
X375478Y465952D01*
X375474Y465812D01*
X375466Y465673D01*
X375454Y465534D01*
X375438Y465395D01*
X375418Y465256D01*
X375395Y465119D01*
X375367Y464981D01*
X375336Y464845D01*
X375301Y464710D01*
X375262Y464576D01*
X375219Y464443D01*
X375172Y464311D01*
X375122Y464180D01*
X375068Y464052D01*
X375010Y463924D01*
X374949Y463798D01*
X374884Y463675D01*
X374816Y463553D01*
X374745Y463432D01*
X374670Y463314D01*
X374591Y463199D01*
X374510Y463085D01*
X374425Y462974D01*
X374337Y462865D01*
X374247Y462759D01*
X374153Y462655D01*
X374056Y462554D01*
X373956Y462456D01*
X373854Y462361D01*
X373749Y462269D01*
X373642Y462179D01*
X373532Y462093D01*
X373419Y462010D01*
X373305Y461930D01*
X373188Y461853D01*
X373069Y461780D01*
X372948Y461710D01*
X372825Y461644D01*
X372700Y461581D01*
X372573Y461521D01*
X372445Y461466D01*
X372316Y461414D01*
X372184Y461365D01*
X372052Y461320D01*
X371918Y461279D01*
X371784Y461242D01*
X371648Y461209D01*
X371511Y461180D01*
X371374Y461154D01*
X371236Y461132D01*
X371097Y461115D01*
X370958Y461101D01*
X370818Y461091D01*
X370679Y461085D01*
X370539Y461083D01*
X370539Y461084D02*
X365600Y461084D01*
X365600Y478864D01*
X370539Y478864D01*
X370539Y478863D02*
X370663Y478861D01*
X370787Y478855D01*
X370911Y478845D01*
X371034Y478832D01*
X371157Y478814D01*
X371279Y478793D01*
X371401Y478768D01*
X371522Y478739D01*
X371641Y478706D01*
X371760Y478670D01*
X371877Y478629D01*
X371993Y478586D01*
X372108Y478538D01*
X372221Y478487D01*
X372333Y478432D01*
X372442Y478374D01*
X372550Y478313D01*
X372656Y478248D01*
X372760Y478180D01*
X372861Y478108D01*
X372961Y478034D01*
X373057Y477956D01*
X373152Y477876D01*
X373244Y477792D01*
X373333Y477706D01*
X373419Y477617D01*
X373503Y477525D01*
X373583Y477430D01*
X373661Y477334D01*
X373735Y477234D01*
X373807Y477133D01*
X373875Y477029D01*
X373940Y476923D01*
X374001Y476815D01*
X374059Y476706D01*
X374114Y476594D01*
X374165Y476481D01*
X374213Y476366D01*
X374256Y476250D01*
X374297Y476133D01*
X374333Y476014D01*
X374366Y475895D01*
X374395Y475774D01*
X374420Y475652D01*
X374441Y475530D01*
X374459Y475407D01*
X374472Y475284D01*
X374482Y475160D01*
X374488Y475036D01*
X374490Y474912D01*
X374488Y474788D01*
X374482Y474664D01*
X374472Y474540D01*
X374459Y474417D01*
X374441Y474294D01*
X374420Y474172D01*
X374395Y474050D01*
X374366Y473929D01*
X374333Y473810D01*
X374297Y473691D01*
X374256Y473574D01*
X374213Y473458D01*
X374165Y473343D01*
X374114Y473230D01*
X374059Y473118D01*
X374001Y473009D01*
X373940Y472901D01*
X373875Y472795D01*
X373807Y472691D01*
X373735Y472590D01*
X373661Y472490D01*
X373583Y472394D01*
X373503Y472299D01*
X373419Y472207D01*
X373333Y472118D01*
X373244Y472032D01*
X373152Y471948D01*
X373057Y471868D01*
X372961Y471790D01*
X372861Y471716D01*
X372760Y471644D01*
X372656Y471576D01*
X372550Y471511D01*
X372442Y471450D01*
X372333Y471392D01*
X372221Y471337D01*
X372108Y471286D01*
X371993Y471238D01*
X371877Y471195D01*
X371760Y471154D01*
X371641Y471118D01*
X371522Y471085D01*
X371401Y471056D01*
X371279Y471031D01*
X371157Y471010D01*
X371034Y470992D01*
X370911Y470979D01*
X370787Y470969D01*
X370663Y470963D01*
X370539Y470961D01*
X459390Y346151D02*
X459390Y328371D01*
X459390Y346151D02*
X464328Y346151D01*
X464468Y346149D01*
X464607Y346143D01*
X464747Y346133D01*
X464886Y346119D01*
X465025Y346102D01*
X465163Y346080D01*
X465300Y346054D01*
X465437Y346025D01*
X465573Y345992D01*
X465707Y345955D01*
X465841Y345914D01*
X465973Y345869D01*
X466105Y345820D01*
X466234Y345768D01*
X466362Y345713D01*
X466489Y345653D01*
X466614Y345590D01*
X466737Y345524D01*
X466858Y345454D01*
X466977Y345381D01*
X467094Y345304D01*
X467208Y345224D01*
X467321Y345141D01*
X467431Y345055D01*
X467538Y344965D01*
X467643Y344873D01*
X467745Y344778D01*
X467845Y344680D01*
X467942Y344579D01*
X468036Y344475D01*
X468126Y344369D01*
X468214Y344260D01*
X468299Y344149D01*
X468380Y344035D01*
X468459Y343920D01*
X468534Y343802D01*
X468605Y343682D01*
X468673Y343559D01*
X468738Y343436D01*
X468799Y343310D01*
X468857Y343182D01*
X468911Y343054D01*
X468961Y342923D01*
X469008Y342791D01*
X469051Y342658D01*
X469090Y342524D01*
X469125Y342389D01*
X469156Y342253D01*
X469184Y342115D01*
X469207Y341978D01*
X469227Y341839D01*
X469243Y341700D01*
X469255Y341561D01*
X469263Y341422D01*
X469267Y341282D01*
X469267Y341142D01*
X469263Y341002D01*
X469255Y340863D01*
X469243Y340724D01*
X469227Y340585D01*
X469207Y340446D01*
X469184Y340309D01*
X469156Y340171D01*
X469125Y340035D01*
X469090Y339900D01*
X469051Y339766D01*
X469008Y339633D01*
X468961Y339501D01*
X468911Y339370D01*
X468857Y339242D01*
X468799Y339114D01*
X468738Y338988D01*
X468673Y338865D01*
X468605Y338743D01*
X468534Y338622D01*
X468459Y338504D01*
X468380Y338389D01*
X468299Y338275D01*
X468214Y338164D01*
X468126Y338055D01*
X468036Y337949D01*
X467942Y337845D01*
X467845Y337744D01*
X467745Y337646D01*
X467643Y337551D01*
X467538Y337459D01*
X467431Y337369D01*
X467321Y337283D01*
X467208Y337200D01*
X467094Y337120D01*
X466977Y337043D01*
X466858Y336970D01*
X466737Y336900D01*
X466614Y336834D01*
X466489Y336771D01*
X466362Y336711D01*
X466234Y336656D01*
X466105Y336604D01*
X465973Y336555D01*
X465841Y336510D01*
X465707Y336469D01*
X465573Y336432D01*
X465437Y336399D01*
X465300Y336370D01*
X465163Y336344D01*
X465025Y336322D01*
X464886Y336305D01*
X464747Y336291D01*
X464607Y336281D01*
X464468Y336275D01*
X464328Y336273D01*
X459390Y336273D01*
X465316Y336273D02*
X469267Y328371D01*
D124*
X381146Y196850D02*
X304146Y196850D01*
X381146Y196850D02*
X381146Y213050D01*
X304146Y213050D02*
X304146Y196850D01*
X321530Y295390D02*
X321532Y295453D01*
X321538Y295516D01*
X321548Y295579D01*
X321562Y295640D01*
X321579Y295701D01*
X321601Y295760D01*
X321626Y295818D01*
X321654Y295875D01*
X321687Y295929D01*
X321722Y295981D01*
X321761Y296031D01*
X321803Y296079D01*
X321847Y296123D01*
X321895Y296165D01*
X321945Y296204D01*
X321997Y296239D01*
X322051Y296272D01*
X322108Y296300D01*
X322166Y296325D01*
X322225Y296347D01*
X322286Y296364D01*
X322347Y296378D01*
X322410Y296388D01*
X322473Y296394D01*
X322536Y296396D01*
X322599Y296394D01*
X322662Y296388D01*
X322725Y296378D01*
X322786Y296364D01*
X322847Y296347D01*
X322906Y296325D01*
X322964Y296300D01*
X323021Y296272D01*
X323075Y296239D01*
X323127Y296204D01*
X323177Y296165D01*
X323225Y296123D01*
X323269Y296079D01*
X323311Y296031D01*
X323350Y295981D01*
X323385Y295929D01*
X323418Y295875D01*
X323446Y295818D01*
X323471Y295760D01*
X323493Y295701D01*
X323510Y295640D01*
X323524Y295579D01*
X323534Y295516D01*
X323540Y295453D01*
X323542Y295390D01*
X323540Y295327D01*
X323534Y295264D01*
X323524Y295201D01*
X323510Y295140D01*
X323493Y295079D01*
X323471Y295020D01*
X323446Y294962D01*
X323418Y294905D01*
X323385Y294851D01*
X323350Y294799D01*
X323311Y294749D01*
X323269Y294701D01*
X323225Y294657D01*
X323177Y294615D01*
X323127Y294576D01*
X323075Y294541D01*
X323021Y294508D01*
X322964Y294480D01*
X322906Y294455D01*
X322847Y294433D01*
X322786Y294416D01*
X322725Y294402D01*
X322662Y294392D01*
X322599Y294386D01*
X322536Y294384D01*
X322473Y294386D01*
X322410Y294392D01*
X322347Y294402D01*
X322286Y294416D01*
X322225Y294433D01*
X322166Y294455D01*
X322108Y294480D01*
X322051Y294508D01*
X321997Y294541D01*
X321945Y294576D01*
X321895Y294615D01*
X321847Y294657D01*
X321803Y294701D01*
X321761Y294749D01*
X321722Y294799D01*
X321687Y294851D01*
X321654Y294905D01*
X321626Y294962D01*
X321601Y295020D01*
X321579Y295079D01*
X321562Y295140D01*
X321548Y295201D01*
X321538Y295264D01*
X321532Y295327D01*
X321530Y295390D01*
D10*
X388376Y211820D02*
X388376Y202722D01*
X388374Y202622D01*
X388368Y202523D01*
X388359Y202424D01*
X388346Y202325D01*
X388328Y202227D01*
X388308Y202130D01*
X388283Y202033D01*
X388255Y201938D01*
X388223Y201843D01*
X388188Y201750D01*
X388149Y201659D01*
X388106Y201569D01*
X388060Y201480D01*
X388011Y201394D01*
X387959Y201309D01*
X387903Y201227D01*
X387844Y201146D01*
X387782Y201068D01*
X387717Y200993D01*
X387650Y200920D01*
X387579Y200849D01*
X387506Y200782D01*
X387431Y200717D01*
X387353Y200655D01*
X387272Y200596D01*
X387190Y200540D01*
X387105Y200488D01*
X387019Y200439D01*
X386930Y200393D01*
X386840Y200350D01*
X386749Y200311D01*
X386655Y200276D01*
X386561Y200244D01*
X386466Y200216D01*
X386369Y200191D01*
X386272Y200171D01*
X386174Y200153D01*
X386075Y200140D01*
X385976Y200131D01*
X385877Y200125D01*
X385777Y200123D01*
X384477Y200123D01*
X393654Y209221D02*
X396903Y211820D01*
X396903Y200123D01*
X393654Y200123D02*
X400152Y200123D01*
D123*
X285242Y338709D02*
X275844Y338709D01*
X275844Y342886D01*
X280021Y342886D02*
X280021Y338709D01*
X280021Y346748D02*
X280021Y349358D01*
X280020Y349358D02*
X280022Y349459D01*
X280028Y349560D01*
X280038Y349661D01*
X280051Y349761D01*
X280069Y349861D01*
X280090Y349960D01*
X280116Y350058D01*
X280145Y350155D01*
X280177Y350251D01*
X280214Y350345D01*
X280254Y350438D01*
X280298Y350530D01*
X280345Y350619D01*
X280396Y350707D01*
X280450Y350793D01*
X280507Y350876D01*
X280567Y350958D01*
X280631Y351036D01*
X280697Y351113D01*
X280767Y351186D01*
X280839Y351257D01*
X280914Y351325D01*
X280992Y351390D01*
X281072Y351452D01*
X281154Y351511D01*
X281239Y351567D01*
X281326Y351619D01*
X281414Y351668D01*
X281505Y351714D01*
X281597Y351755D01*
X281691Y351794D01*
X281786Y351828D01*
X281882Y351859D01*
X281980Y351886D01*
X282078Y351910D01*
X282178Y351929D01*
X282278Y351945D01*
X282378Y351957D01*
X282479Y351965D01*
X282580Y351969D01*
X282682Y351969D01*
X282783Y351965D01*
X282884Y351957D01*
X282984Y351945D01*
X283084Y351929D01*
X283184Y351910D01*
X283282Y351886D01*
X283380Y351859D01*
X283476Y351828D01*
X283571Y351794D01*
X283665Y351755D01*
X283757Y351714D01*
X283848Y351668D01*
X283937Y351619D01*
X284023Y351567D01*
X284108Y351511D01*
X284190Y351452D01*
X284270Y351390D01*
X284348Y351325D01*
X284423Y351257D01*
X284495Y351186D01*
X284565Y351113D01*
X284631Y351036D01*
X284695Y350958D01*
X284755Y350876D01*
X284812Y350793D01*
X284866Y350707D01*
X284917Y350619D01*
X284964Y350530D01*
X285008Y350438D01*
X285048Y350345D01*
X285085Y350251D01*
X285117Y350155D01*
X285146Y350058D01*
X285172Y349960D01*
X285193Y349861D01*
X285211Y349761D01*
X285224Y349661D01*
X285234Y349560D01*
X285240Y349459D01*
X285242Y349358D01*
X285242Y346748D01*
X275844Y346748D01*
X275844Y349358D01*
X275846Y349448D01*
X275852Y349537D01*
X275861Y349627D01*
X275875Y349716D01*
X275892Y349804D01*
X275913Y349891D01*
X275938Y349978D01*
X275967Y350063D01*
X275999Y350147D01*
X276034Y350229D01*
X276074Y350310D01*
X276116Y350389D01*
X276162Y350466D01*
X276212Y350541D01*
X276264Y350614D01*
X276320Y350685D01*
X276378Y350753D01*
X276440Y350818D01*
X276504Y350881D01*
X276571Y350941D01*
X276640Y350998D01*
X276712Y351052D01*
X276786Y351103D01*
X276862Y351151D01*
X276940Y351195D01*
X277020Y351236D01*
X277102Y351274D01*
X277185Y351308D01*
X277270Y351338D01*
X277356Y351365D01*
X277442Y351388D01*
X277530Y351407D01*
X277619Y351422D01*
X277708Y351434D01*
X277797Y351442D01*
X277887Y351446D01*
X277977Y351446D01*
X278067Y351442D01*
X278156Y351434D01*
X278245Y351422D01*
X278334Y351407D01*
X278422Y351388D01*
X278508Y351365D01*
X278594Y351338D01*
X278679Y351308D01*
X278762Y351274D01*
X278844Y351236D01*
X278924Y351195D01*
X279002Y351151D01*
X279078Y351103D01*
X279152Y351052D01*
X279224Y350998D01*
X279293Y350941D01*
X279360Y350881D01*
X279424Y350818D01*
X279486Y350753D01*
X279544Y350685D01*
X279600Y350614D01*
X279652Y350541D01*
X279702Y350466D01*
X279748Y350389D01*
X279790Y350310D01*
X279830Y350229D01*
X279865Y350147D01*
X279897Y350063D01*
X279926Y349978D01*
X279951Y349891D01*
X279972Y349804D01*
X279989Y349716D01*
X280003Y349627D01*
X280012Y349537D01*
X280018Y349448D01*
X280020Y349358D01*
X275844Y358327D02*
X275846Y358422D01*
X275852Y358516D01*
X275861Y358610D01*
X275874Y358704D01*
X275891Y358797D01*
X275912Y358889D01*
X275937Y358981D01*
X275965Y359071D01*
X275997Y359160D01*
X276032Y359248D01*
X276071Y359334D01*
X276113Y359419D01*
X276159Y359502D01*
X276208Y359583D01*
X276260Y359662D01*
X276315Y359739D01*
X276374Y359813D01*
X276435Y359885D01*
X276499Y359955D01*
X276566Y360022D01*
X276636Y360086D01*
X276708Y360147D01*
X276782Y360206D01*
X276859Y360261D01*
X276938Y360313D01*
X277019Y360362D01*
X277102Y360408D01*
X277187Y360450D01*
X277273Y360489D01*
X277361Y360524D01*
X277450Y360556D01*
X277540Y360584D01*
X277632Y360609D01*
X277724Y360630D01*
X277817Y360647D01*
X277911Y360660D01*
X278005Y360669D01*
X278099Y360675D01*
X278194Y360677D01*
X275844Y358327D02*
X275846Y358219D01*
X275852Y358110D01*
X275862Y358002D01*
X275875Y357895D01*
X275893Y357788D01*
X275914Y357681D01*
X275939Y357576D01*
X275968Y357471D01*
X276000Y357368D01*
X276037Y357266D01*
X276077Y357165D01*
X276120Y357066D01*
X276167Y356968D01*
X276218Y356872D01*
X276272Y356778D01*
X276329Y356686D01*
X276390Y356596D01*
X276454Y356508D01*
X276520Y356423D01*
X276590Y356340D01*
X276663Y356260D01*
X276739Y356182D01*
X276817Y356107D01*
X276898Y356035D01*
X276982Y355966D01*
X277068Y355900D01*
X277156Y355837D01*
X277247Y355778D01*
X277339Y355721D01*
X277434Y355668D01*
X277531Y355619D01*
X277629Y355573D01*
X277728Y355530D01*
X277830Y355491D01*
X277932Y355456D01*
X280022Y359894D02*
X279953Y359963D01*
X279882Y360029D01*
X279809Y360093D01*
X279733Y360154D01*
X279654Y360212D01*
X279574Y360266D01*
X279491Y360318D01*
X279407Y360366D01*
X279321Y360412D01*
X279233Y360453D01*
X279143Y360492D01*
X279052Y360527D01*
X278960Y360558D01*
X278867Y360586D01*
X278773Y360610D01*
X278678Y360630D01*
X278582Y360647D01*
X278485Y360660D01*
X278388Y360669D01*
X278291Y360675D01*
X278194Y360677D01*
X280021Y359893D02*
X285242Y355455D01*
X285242Y360677D01*
D11*
X280937Y410248D02*
X260807Y410248D01*
D123*
X257683Y420172D02*
X257683Y422261D01*
X257683Y420172D02*
X257681Y420083D01*
X257675Y419995D01*
X257666Y419907D01*
X257653Y419819D01*
X257636Y419732D01*
X257616Y419646D01*
X257591Y419561D01*
X257564Y419476D01*
X257532Y419393D01*
X257498Y419312D01*
X257459Y419232D01*
X257418Y419154D01*
X257373Y419077D01*
X257325Y419003D01*
X257274Y418930D01*
X257220Y418860D01*
X257162Y418793D01*
X257102Y418727D01*
X257040Y418665D01*
X256974Y418605D01*
X256907Y418547D01*
X256837Y418493D01*
X256764Y418442D01*
X256690Y418394D01*
X256613Y418349D01*
X256535Y418308D01*
X256455Y418269D01*
X256374Y418235D01*
X256291Y418203D01*
X256206Y418176D01*
X256121Y418151D01*
X256035Y418131D01*
X255948Y418114D01*
X255860Y418101D01*
X255772Y418092D01*
X255684Y418086D01*
X255595Y418084D01*
X250373Y418084D01*
X250282Y418086D01*
X250191Y418092D01*
X250100Y418102D01*
X250010Y418116D01*
X249921Y418134D01*
X249832Y418155D01*
X249745Y418181D01*
X249659Y418210D01*
X249574Y418243D01*
X249490Y418280D01*
X249408Y418320D01*
X249329Y418364D01*
X249251Y418411D01*
X249175Y418462D01*
X249101Y418516D01*
X249030Y418573D01*
X248962Y418633D01*
X248896Y418696D01*
X248833Y418762D01*
X248773Y418830D01*
X248716Y418901D01*
X248662Y418975D01*
X248611Y419051D01*
X248564Y419128D01*
X248520Y419208D01*
X248480Y419290D01*
X248443Y419374D01*
X248410Y419458D01*
X248381Y419545D01*
X248355Y419632D01*
X248334Y419721D01*
X248316Y419810D01*
X248302Y419900D01*
X248292Y419991D01*
X248286Y420082D01*
X248284Y420173D01*
X248285Y420172D02*
X248285Y422261D01*
X250373Y425730D02*
X248285Y428340D01*
X257683Y428340D01*
X257683Y425730D02*
X257683Y430951D01*
X249329Y434874D02*
X248285Y434874D01*
X248285Y440095D01*
X257683Y437484D01*
D125*
X241016Y354837D02*
X241016Y338837D01*
X269016Y338837D02*
X269016Y354837D01*
D123*
X246820Y373444D02*
X244731Y373444D01*
X244642Y373446D01*
X244554Y373452D01*
X244466Y373461D01*
X244378Y373474D01*
X244291Y373491D01*
X244205Y373511D01*
X244120Y373536D01*
X244035Y373563D01*
X243952Y373595D01*
X243871Y373629D01*
X243791Y373668D01*
X243713Y373709D01*
X243636Y373754D01*
X243562Y373802D01*
X243489Y373853D01*
X243419Y373907D01*
X243352Y373965D01*
X243286Y374025D01*
X243224Y374087D01*
X243164Y374153D01*
X243106Y374220D01*
X243052Y374290D01*
X243001Y374363D01*
X242953Y374437D01*
X242908Y374514D01*
X242867Y374592D01*
X242828Y374672D01*
X242794Y374753D01*
X242762Y374836D01*
X242735Y374921D01*
X242710Y375006D01*
X242690Y375092D01*
X242673Y375179D01*
X242660Y375267D01*
X242651Y375355D01*
X242645Y375443D01*
X242643Y375532D01*
X242643Y380754D01*
X242645Y380845D01*
X242651Y380936D01*
X242661Y381027D01*
X242675Y381117D01*
X242692Y381206D01*
X242714Y381294D01*
X242740Y381382D01*
X242769Y381468D01*
X242802Y381553D01*
X242839Y381636D01*
X242879Y381718D01*
X242923Y381798D01*
X242970Y381876D01*
X243021Y381952D01*
X243074Y382025D01*
X243131Y382096D01*
X243192Y382165D01*
X243255Y382230D01*
X243320Y382293D01*
X243389Y382353D01*
X243460Y382411D01*
X243533Y382464D01*
X243609Y382515D01*
X243687Y382562D01*
X243767Y382606D01*
X243849Y382646D01*
X243932Y382683D01*
X244017Y382716D01*
X244103Y382745D01*
X244191Y382771D01*
X244279Y382793D01*
X244368Y382810D01*
X244458Y382824D01*
X244549Y382834D01*
X244640Y382840D01*
X244731Y382842D01*
X246820Y382842D01*
X250289Y380754D02*
X252899Y382842D01*
X252899Y373444D01*
X250289Y373444D02*
X255510Y373444D01*
X259433Y378665D02*
X262565Y378665D01*
X262654Y378663D01*
X262742Y378657D01*
X262830Y378648D01*
X262918Y378635D01*
X263005Y378618D01*
X263091Y378598D01*
X263176Y378573D01*
X263261Y378546D01*
X263344Y378514D01*
X263425Y378480D01*
X263505Y378441D01*
X263583Y378400D01*
X263660Y378355D01*
X263734Y378307D01*
X263807Y378256D01*
X263877Y378202D01*
X263944Y378144D01*
X264010Y378084D01*
X264072Y378022D01*
X264132Y377956D01*
X264190Y377889D01*
X264244Y377819D01*
X264295Y377746D01*
X264343Y377672D01*
X264388Y377595D01*
X264429Y377517D01*
X264468Y377437D01*
X264502Y377356D01*
X264534Y377273D01*
X264561Y377188D01*
X264586Y377103D01*
X264606Y377017D01*
X264623Y376930D01*
X264636Y376842D01*
X264645Y376754D01*
X264651Y376666D01*
X264653Y376577D01*
X264654Y376577D02*
X264654Y376055D01*
X264652Y375954D01*
X264646Y375853D01*
X264636Y375752D01*
X264623Y375652D01*
X264605Y375552D01*
X264584Y375453D01*
X264558Y375355D01*
X264529Y375258D01*
X264497Y375162D01*
X264460Y375068D01*
X264420Y374975D01*
X264376Y374883D01*
X264329Y374794D01*
X264278Y374706D01*
X264224Y374620D01*
X264167Y374537D01*
X264107Y374455D01*
X264043Y374377D01*
X263977Y374300D01*
X263907Y374227D01*
X263835Y374156D01*
X263760Y374088D01*
X263682Y374023D01*
X263602Y373961D01*
X263520Y373902D01*
X263435Y373846D01*
X263348Y373794D01*
X263260Y373745D01*
X263169Y373699D01*
X263077Y373658D01*
X262983Y373619D01*
X262888Y373585D01*
X262792Y373554D01*
X262694Y373527D01*
X262596Y373503D01*
X262496Y373484D01*
X262396Y373468D01*
X262296Y373456D01*
X262195Y373448D01*
X262094Y373444D01*
X261992Y373444D01*
X261891Y373448D01*
X261790Y373456D01*
X261690Y373468D01*
X261590Y373484D01*
X261490Y373503D01*
X261392Y373527D01*
X261294Y373554D01*
X261198Y373585D01*
X261103Y373619D01*
X261009Y373658D01*
X260917Y373699D01*
X260826Y373745D01*
X260738Y373794D01*
X260651Y373846D01*
X260566Y373902D01*
X260484Y373961D01*
X260404Y374023D01*
X260326Y374088D01*
X260251Y374156D01*
X260179Y374227D01*
X260109Y374300D01*
X260043Y374377D01*
X259979Y374455D01*
X259919Y374537D01*
X259862Y374620D01*
X259808Y374706D01*
X259757Y374794D01*
X259710Y374883D01*
X259666Y374975D01*
X259626Y375068D01*
X259589Y375162D01*
X259557Y375258D01*
X259528Y375355D01*
X259502Y375453D01*
X259481Y375552D01*
X259463Y375652D01*
X259450Y375752D01*
X259440Y375853D01*
X259434Y375954D01*
X259432Y376055D01*
X259433Y376055D02*
X259433Y378665D01*
X259435Y378794D01*
X259441Y378922D01*
X259451Y379050D01*
X259465Y379178D01*
X259482Y379306D01*
X259504Y379433D01*
X259530Y379559D01*
X259559Y379684D01*
X259592Y379808D01*
X259630Y379931D01*
X259670Y380053D01*
X259715Y380174D01*
X259763Y380293D01*
X259815Y380411D01*
X259871Y380527D01*
X259930Y380641D01*
X259993Y380753D01*
X260059Y380864D01*
X260128Y380972D01*
X260201Y381078D01*
X260277Y381182D01*
X260356Y381284D01*
X260438Y381383D01*
X260523Y381479D01*
X260611Y381573D01*
X260702Y381664D01*
X260796Y381752D01*
X260892Y381837D01*
X260991Y381919D01*
X261093Y381998D01*
X261197Y382074D01*
X261303Y382147D01*
X261411Y382216D01*
X261521Y382282D01*
X261634Y382345D01*
X261748Y382404D01*
X261864Y382460D01*
X261982Y382512D01*
X262101Y382560D01*
X262222Y382605D01*
X262344Y382645D01*
X262467Y382683D01*
X262591Y382716D01*
X262716Y382745D01*
X262842Y382771D01*
X262969Y382793D01*
X263097Y382810D01*
X263225Y382824D01*
X263353Y382834D01*
X263481Y382840D01*
X263610Y382842D01*
D122*
X421513Y266279D02*
X424013Y266279D01*
X421513Y266279D02*
X419013Y266279D01*
X421513Y266279D02*
X424013Y261279D01*
X419013Y261279D02*
X421513Y266279D01*
X419013Y261279D02*
X424013Y261279D01*
X426513Y251279D02*
X416513Y251279D01*
X416513Y276279D01*
X426513Y276279D01*
X426513Y251279D01*
D123*
X414213Y279668D02*
X414213Y289066D01*
X416824Y289066D01*
X416924Y289064D01*
X417024Y289058D01*
X417123Y289049D01*
X417223Y289035D01*
X417321Y289018D01*
X417419Y288997D01*
X417516Y288973D01*
X417612Y288944D01*
X417707Y288912D01*
X417800Y288877D01*
X417892Y288838D01*
X417983Y288795D01*
X418071Y288749D01*
X418158Y288699D01*
X418243Y288647D01*
X418326Y288591D01*
X418407Y288532D01*
X418485Y288469D01*
X418561Y288404D01*
X418635Y288336D01*
X418705Y288266D01*
X418773Y288192D01*
X418838Y288116D01*
X418901Y288038D01*
X418960Y287957D01*
X419016Y287874D01*
X419068Y287789D01*
X419118Y287702D01*
X419164Y287614D01*
X419207Y287523D01*
X419246Y287431D01*
X419281Y287338D01*
X419313Y287243D01*
X419342Y287147D01*
X419366Y287050D01*
X419387Y286952D01*
X419404Y286854D01*
X419418Y286754D01*
X419427Y286655D01*
X419433Y286555D01*
X419435Y286455D01*
X419434Y286455D02*
X419434Y282279D01*
X419435Y282279D02*
X419433Y282179D01*
X419427Y282079D01*
X419418Y281980D01*
X419404Y281880D01*
X419387Y281782D01*
X419366Y281684D01*
X419342Y281587D01*
X419313Y281491D01*
X419281Y281396D01*
X419246Y281303D01*
X419207Y281211D01*
X419164Y281120D01*
X419118Y281032D01*
X419068Y280945D01*
X419016Y280860D01*
X418960Y280777D01*
X418901Y280696D01*
X418838Y280618D01*
X418773Y280542D01*
X418705Y280468D01*
X418635Y280398D01*
X418561Y280330D01*
X418485Y280265D01*
X418407Y280202D01*
X418326Y280143D01*
X418243Y280087D01*
X418158Y280035D01*
X418071Y279985D01*
X417983Y279939D01*
X417892Y279896D01*
X417800Y279857D01*
X417707Y279822D01*
X417612Y279790D01*
X417516Y279761D01*
X417419Y279737D01*
X417321Y279716D01*
X417223Y279699D01*
X417123Y279685D01*
X417024Y279676D01*
X416924Y279670D01*
X416824Y279668D01*
X414213Y279668D01*
X426533Y289067D02*
X426628Y289065D01*
X426722Y289059D01*
X426816Y289050D01*
X426910Y289037D01*
X427003Y289020D01*
X427095Y288999D01*
X427187Y288974D01*
X427277Y288946D01*
X427366Y288914D01*
X427454Y288879D01*
X427540Y288840D01*
X427625Y288798D01*
X427708Y288752D01*
X427789Y288703D01*
X427868Y288651D01*
X427945Y288596D01*
X428019Y288537D01*
X428091Y288476D01*
X428161Y288412D01*
X428228Y288345D01*
X428292Y288275D01*
X428353Y288203D01*
X428412Y288129D01*
X428467Y288052D01*
X428519Y287973D01*
X428568Y287892D01*
X428614Y287809D01*
X428656Y287724D01*
X428695Y287638D01*
X428730Y287550D01*
X428762Y287461D01*
X428790Y287371D01*
X428815Y287279D01*
X428836Y287187D01*
X428853Y287094D01*
X428866Y287000D01*
X428875Y286906D01*
X428881Y286812D01*
X428883Y286717D01*
X426533Y289066D02*
X426425Y289064D01*
X426316Y289058D01*
X426208Y289048D01*
X426101Y289035D01*
X425994Y289017D01*
X425887Y288996D01*
X425782Y288971D01*
X425677Y288942D01*
X425574Y288910D01*
X425472Y288873D01*
X425371Y288833D01*
X425272Y288790D01*
X425174Y288743D01*
X425078Y288692D01*
X424984Y288638D01*
X424892Y288581D01*
X424802Y288520D01*
X424714Y288456D01*
X424629Y288390D01*
X424546Y288320D01*
X424466Y288247D01*
X424388Y288171D01*
X424313Y288093D01*
X424241Y288012D01*
X424172Y287928D01*
X424106Y287842D01*
X424043Y287754D01*
X423984Y287663D01*
X423927Y287571D01*
X423874Y287476D01*
X423825Y287380D01*
X423779Y287281D01*
X423736Y287182D01*
X423697Y287080D01*
X423662Y286978D01*
X428100Y284889D02*
X428169Y284958D01*
X428235Y285029D01*
X428299Y285102D01*
X428360Y285178D01*
X428418Y285257D01*
X428472Y285337D01*
X428524Y285420D01*
X428572Y285504D01*
X428618Y285590D01*
X428659Y285678D01*
X428698Y285768D01*
X428733Y285859D01*
X428764Y285951D01*
X428792Y286044D01*
X428816Y286138D01*
X428836Y286233D01*
X428853Y286329D01*
X428866Y286426D01*
X428875Y286523D01*
X428881Y286620D01*
X428883Y286717D01*
X428100Y284889D02*
X423662Y279668D01*
X428883Y279668D01*
D122*
X268311Y265898D02*
X265811Y265898D01*
X263311Y265898D01*
X265811Y265898D02*
X268311Y260898D01*
X263311Y260898D02*
X265811Y265898D01*
X263311Y260898D02*
X268311Y260898D01*
X270811Y250898D02*
X260811Y250898D01*
X260811Y275898D01*
X270811Y275898D01*
X270811Y250898D01*
D123*
X258257Y279414D02*
X258257Y288812D01*
X260868Y288812D01*
X260968Y288810D01*
X261068Y288804D01*
X261167Y288795D01*
X261267Y288781D01*
X261365Y288764D01*
X261463Y288743D01*
X261560Y288719D01*
X261656Y288690D01*
X261751Y288658D01*
X261844Y288623D01*
X261936Y288584D01*
X262027Y288541D01*
X262115Y288495D01*
X262202Y288445D01*
X262287Y288393D01*
X262370Y288337D01*
X262451Y288278D01*
X262529Y288215D01*
X262605Y288150D01*
X262679Y288082D01*
X262749Y288012D01*
X262817Y287938D01*
X262882Y287862D01*
X262945Y287784D01*
X263004Y287703D01*
X263060Y287620D01*
X263112Y287535D01*
X263162Y287448D01*
X263208Y287360D01*
X263251Y287269D01*
X263290Y287177D01*
X263325Y287084D01*
X263357Y286989D01*
X263386Y286893D01*
X263410Y286796D01*
X263431Y286698D01*
X263448Y286600D01*
X263462Y286500D01*
X263471Y286401D01*
X263477Y286301D01*
X263479Y286201D01*
X263478Y286201D02*
X263478Y282025D01*
X263479Y282025D02*
X263477Y281925D01*
X263471Y281825D01*
X263462Y281726D01*
X263448Y281626D01*
X263431Y281528D01*
X263410Y281430D01*
X263386Y281333D01*
X263357Y281237D01*
X263325Y281142D01*
X263290Y281049D01*
X263251Y280957D01*
X263208Y280866D01*
X263162Y280778D01*
X263112Y280691D01*
X263060Y280606D01*
X263004Y280523D01*
X262945Y280442D01*
X262882Y280364D01*
X262817Y280288D01*
X262749Y280214D01*
X262679Y280144D01*
X262605Y280076D01*
X262529Y280011D01*
X262451Y279948D01*
X262370Y279889D01*
X262287Y279833D01*
X262202Y279781D01*
X262115Y279731D01*
X262027Y279685D01*
X261936Y279642D01*
X261844Y279603D01*
X261751Y279568D01*
X261656Y279536D01*
X261560Y279507D01*
X261463Y279483D01*
X261365Y279462D01*
X261267Y279445D01*
X261167Y279431D01*
X261068Y279422D01*
X260968Y279416D01*
X260868Y279414D01*
X258257Y279414D01*
X267706Y279414D02*
X270316Y279414D01*
X270417Y279416D01*
X270518Y279422D01*
X270619Y279432D01*
X270719Y279445D01*
X270819Y279463D01*
X270918Y279484D01*
X271016Y279510D01*
X271113Y279539D01*
X271209Y279571D01*
X271303Y279608D01*
X271396Y279648D01*
X271488Y279692D01*
X271577Y279739D01*
X271665Y279790D01*
X271751Y279844D01*
X271834Y279901D01*
X271916Y279961D01*
X271994Y280025D01*
X272071Y280091D01*
X272144Y280161D01*
X272215Y280233D01*
X272283Y280308D01*
X272348Y280386D01*
X272410Y280466D01*
X272469Y280548D01*
X272525Y280633D01*
X272577Y280720D01*
X272626Y280808D01*
X272672Y280899D01*
X272713Y280991D01*
X272752Y281085D01*
X272786Y281180D01*
X272817Y281276D01*
X272844Y281374D01*
X272868Y281472D01*
X272887Y281572D01*
X272903Y281672D01*
X272915Y281772D01*
X272923Y281873D01*
X272927Y281974D01*
X272927Y282076D01*
X272923Y282177D01*
X272915Y282278D01*
X272903Y282378D01*
X272887Y282478D01*
X272868Y282578D01*
X272844Y282676D01*
X272817Y282774D01*
X272786Y282870D01*
X272752Y282965D01*
X272713Y283059D01*
X272672Y283151D01*
X272626Y283242D01*
X272577Y283330D01*
X272525Y283417D01*
X272469Y283502D01*
X272410Y283584D01*
X272348Y283664D01*
X272283Y283742D01*
X272215Y283817D01*
X272144Y283889D01*
X272071Y283959D01*
X271994Y284025D01*
X271916Y284089D01*
X271834Y284149D01*
X271751Y284206D01*
X271665Y284260D01*
X271577Y284311D01*
X271488Y284358D01*
X271396Y284402D01*
X271303Y284442D01*
X271209Y284479D01*
X271113Y284511D01*
X271016Y284540D01*
X270918Y284566D01*
X270819Y284587D01*
X270719Y284605D01*
X270619Y284618D01*
X270518Y284628D01*
X270417Y284634D01*
X270316Y284636D01*
X270838Y288812D02*
X267706Y288812D01*
X270838Y288812D02*
X270928Y288810D01*
X271017Y288804D01*
X271107Y288795D01*
X271196Y288781D01*
X271284Y288764D01*
X271371Y288743D01*
X271458Y288718D01*
X271543Y288689D01*
X271627Y288657D01*
X271709Y288622D01*
X271790Y288582D01*
X271869Y288540D01*
X271946Y288494D01*
X272021Y288444D01*
X272094Y288392D01*
X272165Y288336D01*
X272233Y288278D01*
X272298Y288216D01*
X272361Y288152D01*
X272421Y288085D01*
X272478Y288016D01*
X272532Y287944D01*
X272583Y287870D01*
X272631Y287794D01*
X272675Y287716D01*
X272716Y287636D01*
X272754Y287554D01*
X272788Y287471D01*
X272818Y287386D01*
X272845Y287300D01*
X272868Y287214D01*
X272887Y287126D01*
X272902Y287037D01*
X272914Y286948D01*
X272922Y286859D01*
X272926Y286769D01*
X272926Y286679D01*
X272922Y286589D01*
X272914Y286500D01*
X272902Y286411D01*
X272887Y286322D01*
X272868Y286234D01*
X272845Y286148D01*
X272818Y286062D01*
X272788Y285977D01*
X272754Y285894D01*
X272716Y285812D01*
X272675Y285732D01*
X272631Y285654D01*
X272583Y285578D01*
X272532Y285504D01*
X272478Y285432D01*
X272421Y285363D01*
X272361Y285296D01*
X272298Y285232D01*
X272233Y285170D01*
X272165Y285112D01*
X272094Y285056D01*
X272021Y285004D01*
X271946Y284954D01*
X271869Y284908D01*
X271790Y284866D01*
X271709Y284826D01*
X271627Y284791D01*
X271543Y284759D01*
X271458Y284730D01*
X271371Y284705D01*
X271284Y284684D01*
X271196Y284667D01*
X271107Y284653D01*
X271017Y284644D01*
X270928Y284638D01*
X270838Y284636D01*
X270838Y284635D02*
X268750Y284635D01*
D122*
X321949Y307090D02*
X321949Y330450D01*
X274189Y330450D02*
X274189Y307090D01*
X321949Y307090D01*
X321949Y330450D02*
X274189Y330450D01*
D124*
X327449Y318770D02*
X327451Y318833D01*
X327457Y318895D01*
X327467Y318957D01*
X327480Y319019D01*
X327498Y319079D01*
X327519Y319138D01*
X327544Y319196D01*
X327573Y319252D01*
X327605Y319306D01*
X327640Y319358D01*
X327678Y319407D01*
X327720Y319455D01*
X327764Y319499D01*
X327812Y319541D01*
X327861Y319579D01*
X327913Y319614D01*
X327967Y319646D01*
X328023Y319675D01*
X328081Y319700D01*
X328140Y319721D01*
X328200Y319739D01*
X328262Y319752D01*
X328324Y319762D01*
X328386Y319768D01*
X328449Y319770D01*
X328512Y319768D01*
X328574Y319762D01*
X328636Y319752D01*
X328698Y319739D01*
X328758Y319721D01*
X328817Y319700D01*
X328875Y319675D01*
X328931Y319646D01*
X328985Y319614D01*
X329037Y319579D01*
X329086Y319541D01*
X329134Y319499D01*
X329178Y319455D01*
X329220Y319407D01*
X329258Y319358D01*
X329293Y319306D01*
X329325Y319252D01*
X329354Y319196D01*
X329379Y319138D01*
X329400Y319079D01*
X329418Y319019D01*
X329431Y318957D01*
X329441Y318895D01*
X329447Y318833D01*
X329449Y318770D01*
X329447Y318707D01*
X329441Y318645D01*
X329431Y318583D01*
X329418Y318521D01*
X329400Y318461D01*
X329379Y318402D01*
X329354Y318344D01*
X329325Y318288D01*
X329293Y318234D01*
X329258Y318182D01*
X329220Y318133D01*
X329178Y318085D01*
X329134Y318041D01*
X329086Y317999D01*
X329037Y317961D01*
X328985Y317926D01*
X328931Y317894D01*
X328875Y317865D01*
X328817Y317840D01*
X328758Y317819D01*
X328698Y317801D01*
X328636Y317788D01*
X328574Y317778D01*
X328512Y317772D01*
X328449Y317770D01*
X328386Y317772D01*
X328324Y317778D01*
X328262Y317788D01*
X328200Y317801D01*
X328140Y317819D01*
X328081Y317840D01*
X328023Y317865D01*
X327967Y317894D01*
X327913Y317926D01*
X327861Y317961D01*
X327812Y317999D01*
X327764Y318041D01*
X327720Y318085D01*
X327678Y318133D01*
X327640Y318182D01*
X327605Y318234D01*
X327573Y318288D01*
X327544Y318344D01*
X327519Y318402D01*
X327498Y318461D01*
X327480Y318521D01*
X327467Y318583D01*
X327457Y318645D01*
X327451Y318707D01*
X327449Y318770D01*
D10*
X257828Y314331D02*
X257828Y323419D01*
X257827Y314331D02*
X257825Y314232D01*
X257819Y314132D01*
X257810Y314033D01*
X257797Y313935D01*
X257780Y313837D01*
X257759Y313739D01*
X257734Y313643D01*
X257706Y313548D01*
X257674Y313454D01*
X257639Y313361D01*
X257600Y313269D01*
X257557Y313179D01*
X257512Y313091D01*
X257462Y313004D01*
X257410Y312920D01*
X257354Y312837D01*
X257296Y312757D01*
X257234Y312679D01*
X257169Y312604D01*
X257101Y312531D01*
X257031Y312461D01*
X256958Y312393D01*
X256883Y312328D01*
X256805Y312266D01*
X256725Y312208D01*
X256642Y312152D01*
X256558Y312100D01*
X256471Y312050D01*
X256383Y312005D01*
X256293Y311962D01*
X256201Y311923D01*
X256108Y311888D01*
X256014Y311856D01*
X255919Y311828D01*
X255823Y311803D01*
X255725Y311782D01*
X255627Y311765D01*
X255529Y311752D01*
X255430Y311743D01*
X255330Y311737D01*
X255231Y311735D01*
X253933Y311735D01*
X266671Y323419D02*
X266778Y323417D01*
X266884Y323411D01*
X266990Y323401D01*
X267096Y323388D01*
X267202Y323370D01*
X267306Y323349D01*
X267410Y323324D01*
X267513Y323295D01*
X267614Y323263D01*
X267714Y323226D01*
X267813Y323186D01*
X267911Y323143D01*
X268007Y323096D01*
X268101Y323045D01*
X268193Y322991D01*
X268283Y322934D01*
X268371Y322874D01*
X268456Y322810D01*
X268539Y322743D01*
X268620Y322673D01*
X268698Y322601D01*
X268774Y322525D01*
X268846Y322447D01*
X268916Y322366D01*
X268983Y322283D01*
X269047Y322198D01*
X269107Y322110D01*
X269164Y322020D01*
X269218Y321928D01*
X269269Y321834D01*
X269316Y321738D01*
X269359Y321640D01*
X269399Y321541D01*
X269436Y321441D01*
X269468Y321340D01*
X269497Y321237D01*
X269522Y321133D01*
X269543Y321029D01*
X269561Y320923D01*
X269574Y320817D01*
X269584Y320711D01*
X269590Y320605D01*
X269592Y320498D01*
X266671Y323419D02*
X266550Y323417D01*
X266429Y323411D01*
X266309Y323401D01*
X266188Y323388D01*
X266069Y323370D01*
X265949Y323349D01*
X265831Y323324D01*
X265714Y323295D01*
X265597Y323262D01*
X265482Y323226D01*
X265368Y323185D01*
X265255Y323142D01*
X265143Y323094D01*
X265034Y323043D01*
X264926Y322988D01*
X264819Y322930D01*
X264715Y322869D01*
X264613Y322804D01*
X264513Y322736D01*
X264415Y322665D01*
X264319Y322591D01*
X264226Y322514D01*
X264136Y322433D01*
X264048Y322350D01*
X263963Y322264D01*
X263880Y322175D01*
X263801Y322084D01*
X263724Y321990D01*
X263651Y321894D01*
X263581Y321796D01*
X263514Y321695D01*
X263450Y321592D01*
X263390Y321487D01*
X263333Y321380D01*
X263279Y321272D01*
X263229Y321162D01*
X263183Y321050D01*
X263140Y320937D01*
X263101Y320822D01*
X268619Y318226D02*
X268698Y318303D01*
X268774Y318384D01*
X268847Y318467D01*
X268917Y318552D01*
X268984Y318640D01*
X269048Y318730D01*
X269108Y318822D01*
X269165Y318917D01*
X269219Y319013D01*
X269270Y319111D01*
X269317Y319211D01*
X269361Y319313D01*
X269401Y319416D01*
X269437Y319520D01*
X269469Y319626D01*
X269498Y319732D01*
X269523Y319840D01*
X269545Y319948D01*
X269562Y320058D01*
X269576Y320167D01*
X269585Y320277D01*
X269591Y320388D01*
X269593Y320498D01*
X268618Y318226D02*
X263101Y311735D01*
X269592Y311735D01*
D11*
X315595Y367157D02*
X352679Y367157D01*
X352679Y434213D01*
X315595Y434213D01*
X315595Y367157D01*
D10*
X355720Y424694D02*
X355720Y431298D01*
X355720Y424694D02*
X355722Y424594D01*
X355728Y424495D01*
X355738Y424395D01*
X355751Y424297D01*
X355769Y424198D01*
X355790Y424101D01*
X355815Y424005D01*
X355844Y423909D01*
X355877Y423815D01*
X355913Y423722D01*
X355953Y423631D01*
X355997Y423541D01*
X356044Y423453D01*
X356094Y423367D01*
X356148Y423283D01*
X356205Y423201D01*
X356265Y423122D01*
X356329Y423044D01*
X356395Y422970D01*
X356464Y422898D01*
X356536Y422829D01*
X356610Y422763D01*
X356688Y422699D01*
X356767Y422639D01*
X356849Y422582D01*
X356933Y422528D01*
X357019Y422478D01*
X357107Y422431D01*
X357197Y422387D01*
X357288Y422347D01*
X357381Y422311D01*
X357475Y422278D01*
X357571Y422249D01*
X357667Y422224D01*
X357764Y422203D01*
X357863Y422185D01*
X357961Y422172D01*
X358061Y422162D01*
X358160Y422156D01*
X358260Y422154D01*
X358360Y422156D01*
X358459Y422162D01*
X358559Y422172D01*
X358657Y422185D01*
X358756Y422203D01*
X358853Y422224D01*
X358949Y422249D01*
X359045Y422278D01*
X359139Y422311D01*
X359232Y422347D01*
X359323Y422387D01*
X359413Y422431D01*
X359501Y422478D01*
X359587Y422528D01*
X359671Y422582D01*
X359753Y422639D01*
X359832Y422699D01*
X359910Y422763D01*
X359984Y422829D01*
X360056Y422898D01*
X360125Y422970D01*
X360191Y423044D01*
X360255Y423122D01*
X360315Y423201D01*
X360372Y423283D01*
X360426Y423367D01*
X360476Y423453D01*
X360523Y423541D01*
X360567Y423631D01*
X360607Y423722D01*
X360643Y423815D01*
X360676Y423909D01*
X360705Y424005D01*
X360730Y424101D01*
X360751Y424198D01*
X360769Y424297D01*
X360782Y424395D01*
X360792Y424495D01*
X360798Y424594D01*
X360800Y424694D01*
X360800Y431298D01*
X365168Y422154D02*
X367708Y422154D01*
X367808Y422156D01*
X367907Y422162D01*
X368007Y422172D01*
X368105Y422185D01*
X368204Y422203D01*
X368301Y422224D01*
X368397Y422249D01*
X368493Y422278D01*
X368587Y422311D01*
X368680Y422347D01*
X368771Y422387D01*
X368861Y422431D01*
X368949Y422478D01*
X369035Y422528D01*
X369119Y422582D01*
X369201Y422639D01*
X369280Y422699D01*
X369358Y422763D01*
X369432Y422829D01*
X369504Y422898D01*
X369573Y422970D01*
X369639Y423044D01*
X369703Y423122D01*
X369763Y423201D01*
X369820Y423283D01*
X369874Y423367D01*
X369924Y423453D01*
X369971Y423541D01*
X370015Y423631D01*
X370055Y423722D01*
X370091Y423815D01*
X370124Y423909D01*
X370153Y424005D01*
X370178Y424101D01*
X370199Y424198D01*
X370217Y424297D01*
X370230Y424395D01*
X370240Y424495D01*
X370246Y424594D01*
X370248Y424694D01*
X370246Y424794D01*
X370240Y424893D01*
X370230Y424993D01*
X370217Y425091D01*
X370199Y425190D01*
X370178Y425287D01*
X370153Y425383D01*
X370124Y425479D01*
X370091Y425573D01*
X370055Y425666D01*
X370015Y425757D01*
X369971Y425847D01*
X369924Y425935D01*
X369874Y426021D01*
X369820Y426105D01*
X369763Y426187D01*
X369703Y426266D01*
X369639Y426344D01*
X369573Y426418D01*
X369504Y426490D01*
X369432Y426559D01*
X369358Y426625D01*
X369280Y426689D01*
X369201Y426749D01*
X369119Y426806D01*
X369035Y426860D01*
X368949Y426910D01*
X368861Y426957D01*
X368771Y427001D01*
X368680Y427041D01*
X368587Y427077D01*
X368493Y427110D01*
X368397Y427139D01*
X368301Y427164D01*
X368204Y427185D01*
X368105Y427203D01*
X368007Y427216D01*
X367907Y427226D01*
X367808Y427232D01*
X367708Y427234D01*
X368216Y431298D02*
X365168Y431298D01*
X368216Y431298D02*
X368305Y431296D01*
X368393Y431290D01*
X368481Y431281D01*
X368569Y431267D01*
X368656Y431250D01*
X368742Y431229D01*
X368827Y431204D01*
X368911Y431175D01*
X368994Y431143D01*
X369075Y431108D01*
X369154Y431068D01*
X369232Y431026D01*
X369308Y430980D01*
X369382Y430931D01*
X369453Y430878D01*
X369522Y430823D01*
X369589Y430764D01*
X369653Y430703D01*
X369714Y430639D01*
X369773Y430572D01*
X369828Y430503D01*
X369881Y430432D01*
X369930Y430358D01*
X369976Y430282D01*
X370018Y430204D01*
X370058Y430125D01*
X370093Y430044D01*
X370125Y429961D01*
X370154Y429877D01*
X370179Y429792D01*
X370200Y429706D01*
X370217Y429619D01*
X370231Y429531D01*
X370240Y429443D01*
X370246Y429355D01*
X370248Y429266D01*
X370246Y429177D01*
X370240Y429089D01*
X370231Y429001D01*
X370217Y428913D01*
X370200Y428826D01*
X370179Y428740D01*
X370154Y428655D01*
X370125Y428571D01*
X370093Y428488D01*
X370058Y428407D01*
X370018Y428328D01*
X369976Y428250D01*
X369930Y428174D01*
X369881Y428100D01*
X369828Y428029D01*
X369773Y427960D01*
X369714Y427893D01*
X369653Y427829D01*
X369589Y427768D01*
X369522Y427709D01*
X369453Y427654D01*
X369382Y427601D01*
X369308Y427552D01*
X369232Y427506D01*
X369154Y427464D01*
X369075Y427424D01*
X368994Y427389D01*
X368911Y427357D01*
X368827Y427328D01*
X368742Y427303D01*
X368656Y427282D01*
X368569Y427265D01*
X368481Y427251D01*
X368393Y427242D01*
X368305Y427236D01*
X368216Y427234D01*
X366184Y427234D01*
M02*
