G04 EAGLE Gerber RS-274X export*
G75*
%MOMM*%
%FSLAX34Y34*%
%LPD*%
%INSilkscreen Bottom*%
%IPPOS*%
%AMOC8*
5,1,8,0,0,1.08239X$1,22.5*%
G01*
%ADD10C,0.152400*%
%ADD11C,0.101600*%
%ADD12C,0.127000*%
%ADD13C,0.076200*%
%ADD14C,0.254000*%
%ADD15R,0.694750X0.707781*%


D10*
X375341Y470669D02*
X370402Y470669D01*
X370262Y470667D01*
X370123Y470661D01*
X369983Y470651D01*
X369844Y470637D01*
X369705Y470620D01*
X369567Y470598D01*
X369430Y470572D01*
X369293Y470543D01*
X369157Y470510D01*
X369023Y470473D01*
X368889Y470432D01*
X368757Y470387D01*
X368625Y470338D01*
X368496Y470286D01*
X368368Y470231D01*
X368241Y470171D01*
X368116Y470108D01*
X367993Y470042D01*
X367872Y469972D01*
X367753Y469899D01*
X367636Y469822D01*
X367522Y469742D01*
X367409Y469659D01*
X367299Y469573D01*
X367192Y469483D01*
X367087Y469391D01*
X366985Y469296D01*
X366885Y469198D01*
X366788Y469097D01*
X366694Y468993D01*
X366604Y468887D01*
X366516Y468778D01*
X366431Y468667D01*
X366350Y468553D01*
X366271Y468438D01*
X366196Y468320D01*
X366125Y468200D01*
X366057Y468077D01*
X365992Y467954D01*
X365931Y467828D01*
X365873Y467700D01*
X365819Y467572D01*
X365769Y467441D01*
X365722Y467309D01*
X365679Y467176D01*
X365640Y467042D01*
X365605Y466907D01*
X365574Y466771D01*
X365546Y466633D01*
X365523Y466496D01*
X365503Y466357D01*
X365487Y466218D01*
X365475Y466079D01*
X365467Y465940D01*
X365463Y465800D01*
X365463Y465660D01*
X365467Y465520D01*
X365475Y465381D01*
X365487Y465242D01*
X365503Y465103D01*
X365523Y464964D01*
X365546Y464827D01*
X365574Y464689D01*
X365605Y464553D01*
X365640Y464418D01*
X365679Y464284D01*
X365722Y464151D01*
X365769Y464019D01*
X365819Y463888D01*
X365873Y463760D01*
X365931Y463632D01*
X365992Y463506D01*
X366057Y463383D01*
X366125Y463261D01*
X366196Y463140D01*
X366271Y463022D01*
X366350Y462907D01*
X366431Y462793D01*
X366516Y462682D01*
X366604Y462573D01*
X366694Y462467D01*
X366788Y462363D01*
X366885Y462262D01*
X366985Y462164D01*
X367087Y462069D01*
X367192Y461977D01*
X367299Y461887D01*
X367409Y461801D01*
X367522Y461718D01*
X367636Y461638D01*
X367753Y461561D01*
X367872Y461488D01*
X367993Y461418D01*
X368116Y461352D01*
X368241Y461289D01*
X368368Y461229D01*
X368496Y461174D01*
X368625Y461122D01*
X368757Y461073D01*
X368889Y461028D01*
X369023Y460987D01*
X369157Y460950D01*
X369293Y460917D01*
X369430Y460888D01*
X369567Y460862D01*
X369705Y460840D01*
X369844Y460823D01*
X369983Y460809D01*
X370123Y460799D01*
X370262Y460793D01*
X370402Y460791D01*
X370402Y460792D02*
X375341Y460792D01*
X375341Y478572D01*
X370402Y478572D01*
X370402Y478571D02*
X370278Y478569D01*
X370154Y478563D01*
X370030Y478553D01*
X369907Y478540D01*
X369784Y478522D01*
X369662Y478501D01*
X369540Y478476D01*
X369419Y478447D01*
X369300Y478414D01*
X369181Y478378D01*
X369064Y478337D01*
X368948Y478294D01*
X368833Y478246D01*
X368720Y478195D01*
X368608Y478140D01*
X368499Y478082D01*
X368391Y478021D01*
X368285Y477956D01*
X368181Y477888D01*
X368080Y477816D01*
X367980Y477742D01*
X367884Y477664D01*
X367789Y477584D01*
X367697Y477500D01*
X367608Y477414D01*
X367522Y477325D01*
X367438Y477233D01*
X367358Y477138D01*
X367280Y477042D01*
X367206Y476942D01*
X367134Y476841D01*
X367066Y476737D01*
X367001Y476631D01*
X366940Y476523D01*
X366882Y476414D01*
X366827Y476302D01*
X366776Y476189D01*
X366728Y476074D01*
X366685Y475958D01*
X366644Y475841D01*
X366608Y475722D01*
X366575Y475603D01*
X366546Y475482D01*
X366521Y475360D01*
X366500Y475238D01*
X366482Y475115D01*
X366469Y474992D01*
X366459Y474868D01*
X366453Y474744D01*
X366451Y474620D01*
X366453Y474496D01*
X366459Y474372D01*
X366469Y474248D01*
X366482Y474125D01*
X366500Y474002D01*
X366521Y473880D01*
X366546Y473758D01*
X366575Y473637D01*
X366608Y473518D01*
X366644Y473399D01*
X366685Y473282D01*
X366728Y473166D01*
X366776Y473051D01*
X366827Y472938D01*
X366882Y472826D01*
X366940Y472717D01*
X367001Y472609D01*
X367066Y472503D01*
X367134Y472399D01*
X367206Y472298D01*
X367280Y472198D01*
X367358Y472102D01*
X367438Y472007D01*
X367522Y471915D01*
X367608Y471826D01*
X367697Y471740D01*
X367789Y471656D01*
X367884Y471576D01*
X367980Y471498D01*
X368080Y471424D01*
X368181Y471352D01*
X368285Y471284D01*
X368391Y471219D01*
X368499Y471158D01*
X368608Y471100D01*
X368720Y471045D01*
X368833Y470994D01*
X368948Y470946D01*
X369064Y470903D01*
X369181Y470862D01*
X369300Y470826D01*
X369419Y470793D01*
X369540Y470764D01*
X369662Y470739D01*
X369784Y470718D01*
X369907Y470700D01*
X370030Y470687D01*
X370154Y470677D01*
X370278Y470671D01*
X370402Y470669D01*
X468475Y346395D02*
X468475Y328615D01*
X468475Y346395D02*
X463536Y346395D01*
X463396Y346393D01*
X463257Y346387D01*
X463117Y346377D01*
X462978Y346363D01*
X462839Y346346D01*
X462701Y346324D01*
X462564Y346298D01*
X462427Y346269D01*
X462291Y346236D01*
X462157Y346199D01*
X462023Y346158D01*
X461891Y346113D01*
X461759Y346064D01*
X461630Y346012D01*
X461502Y345957D01*
X461375Y345897D01*
X461250Y345834D01*
X461127Y345768D01*
X461006Y345698D01*
X460887Y345625D01*
X460770Y345548D01*
X460656Y345468D01*
X460543Y345385D01*
X460433Y345299D01*
X460326Y345209D01*
X460221Y345117D01*
X460119Y345022D01*
X460019Y344924D01*
X459922Y344823D01*
X459828Y344719D01*
X459738Y344613D01*
X459650Y344504D01*
X459565Y344393D01*
X459484Y344279D01*
X459405Y344164D01*
X459330Y344046D01*
X459259Y343926D01*
X459191Y343803D01*
X459126Y343680D01*
X459065Y343554D01*
X459007Y343426D01*
X458953Y343298D01*
X458903Y343167D01*
X458856Y343035D01*
X458813Y342902D01*
X458774Y342768D01*
X458739Y342633D01*
X458708Y342497D01*
X458680Y342359D01*
X458657Y342222D01*
X458637Y342083D01*
X458621Y341944D01*
X458609Y341805D01*
X458601Y341666D01*
X458597Y341526D01*
X458597Y341386D01*
X458601Y341246D01*
X458609Y341107D01*
X458621Y340968D01*
X458637Y340829D01*
X458657Y340690D01*
X458680Y340553D01*
X458708Y340415D01*
X458739Y340279D01*
X458774Y340144D01*
X458813Y340010D01*
X458856Y339877D01*
X458903Y339745D01*
X458953Y339614D01*
X459007Y339486D01*
X459065Y339358D01*
X459126Y339232D01*
X459191Y339109D01*
X459259Y338987D01*
X459330Y338866D01*
X459405Y338748D01*
X459484Y338633D01*
X459565Y338519D01*
X459650Y338408D01*
X459738Y338299D01*
X459828Y338193D01*
X459922Y338089D01*
X460019Y337988D01*
X460119Y337890D01*
X460221Y337795D01*
X460326Y337703D01*
X460433Y337613D01*
X460543Y337527D01*
X460656Y337444D01*
X460770Y337364D01*
X460887Y337287D01*
X461006Y337214D01*
X461127Y337144D01*
X461250Y337078D01*
X461375Y337015D01*
X461502Y336955D01*
X461630Y336900D01*
X461759Y336848D01*
X461891Y336799D01*
X462023Y336754D01*
X462157Y336713D01*
X462291Y336676D01*
X462427Y336643D01*
X462564Y336614D01*
X462701Y336588D01*
X462839Y336566D01*
X462978Y336549D01*
X463117Y336535D01*
X463257Y336525D01*
X463396Y336519D01*
X463536Y336517D01*
X468475Y336517D01*
X462548Y336517D02*
X458597Y328615D01*
X218747Y339992D02*
X218747Y357772D01*
X213808Y357772D01*
X213669Y357770D01*
X213531Y357764D01*
X213393Y357755D01*
X213255Y357741D01*
X213118Y357724D01*
X212981Y357702D01*
X212844Y357677D01*
X212709Y357648D01*
X212574Y357615D01*
X212441Y357579D01*
X212308Y357539D01*
X212177Y357495D01*
X212047Y357447D01*
X211918Y357396D01*
X211791Y357341D01*
X211665Y357283D01*
X211541Y357221D01*
X211419Y357156D01*
X211299Y357087D01*
X211180Y357015D01*
X211064Y356940D01*
X210950Y356861D01*
X210838Y356779D01*
X210729Y356694D01*
X210621Y356607D01*
X210517Y356516D01*
X210415Y356422D01*
X210316Y356325D01*
X210219Y356226D01*
X210125Y356124D01*
X210034Y356020D01*
X209947Y355912D01*
X209862Y355803D01*
X209780Y355691D01*
X209701Y355577D01*
X209626Y355461D01*
X209554Y355342D01*
X209485Y355222D01*
X209420Y355100D01*
X209358Y354976D01*
X209300Y354850D01*
X209245Y354723D01*
X209194Y354594D01*
X209146Y354464D01*
X209102Y354333D01*
X209062Y354200D01*
X209026Y354067D01*
X208993Y353932D01*
X208964Y353797D01*
X208939Y353660D01*
X208917Y353523D01*
X208900Y353386D01*
X208886Y353248D01*
X208877Y353110D01*
X208871Y352972D01*
X208869Y352833D01*
X208870Y352833D02*
X208870Y344931D01*
X208869Y344931D02*
X208871Y344792D01*
X208877Y344654D01*
X208886Y344516D01*
X208900Y344378D01*
X208917Y344241D01*
X208939Y344104D01*
X208964Y343967D01*
X208993Y343832D01*
X209026Y343697D01*
X209062Y343564D01*
X209102Y343431D01*
X209146Y343300D01*
X209194Y343170D01*
X209245Y343041D01*
X209300Y342914D01*
X209358Y342788D01*
X209420Y342664D01*
X209485Y342542D01*
X209554Y342422D01*
X209626Y342303D01*
X209701Y342187D01*
X209780Y342073D01*
X209862Y341961D01*
X209947Y341852D01*
X210034Y341744D01*
X210125Y341640D01*
X210219Y341538D01*
X210316Y341439D01*
X210415Y341342D01*
X210517Y341248D01*
X210621Y341157D01*
X210729Y341070D01*
X210838Y340985D01*
X210950Y340903D01*
X211064Y340824D01*
X211180Y340749D01*
X211299Y340677D01*
X211419Y340608D01*
X211541Y340543D01*
X211665Y340481D01*
X211791Y340423D01*
X211918Y340368D01*
X212047Y340317D01*
X212177Y340269D01*
X212308Y340225D01*
X212441Y340185D01*
X212574Y340149D01*
X212709Y340116D01*
X212844Y340087D01*
X212981Y340062D01*
X213118Y340040D01*
X213255Y340023D01*
X213393Y340009D01*
X213531Y340000D01*
X213669Y339994D01*
X213808Y339992D01*
X218747Y339992D01*
X214202Y364472D02*
X210251Y364472D01*
X214202Y364472D02*
X214326Y364474D01*
X214450Y364480D01*
X214574Y364490D01*
X214697Y364503D01*
X214820Y364521D01*
X214942Y364542D01*
X215064Y364567D01*
X215185Y364596D01*
X215304Y364629D01*
X215423Y364665D01*
X215540Y364706D01*
X215656Y364749D01*
X215771Y364797D01*
X215884Y364848D01*
X215996Y364903D01*
X216105Y364961D01*
X216213Y365022D01*
X216319Y365087D01*
X216423Y365155D01*
X216524Y365227D01*
X216624Y365301D01*
X216720Y365379D01*
X216815Y365459D01*
X216907Y365543D01*
X216996Y365629D01*
X217082Y365718D01*
X217166Y365810D01*
X217246Y365905D01*
X217324Y366001D01*
X217398Y366101D01*
X217470Y366202D01*
X217538Y366306D01*
X217603Y366412D01*
X217664Y366520D01*
X217722Y366629D01*
X217777Y366741D01*
X217828Y366854D01*
X217876Y366969D01*
X217919Y367085D01*
X217960Y367202D01*
X217996Y367321D01*
X218029Y367440D01*
X218058Y367561D01*
X218083Y367683D01*
X218104Y367805D01*
X218122Y367928D01*
X218135Y368051D01*
X218145Y368175D01*
X218151Y368299D01*
X218153Y368423D01*
X218153Y378301D01*
X218151Y378425D01*
X218145Y378549D01*
X218135Y378673D01*
X218122Y378796D01*
X218104Y378919D01*
X218083Y379041D01*
X218058Y379163D01*
X218029Y379284D01*
X217996Y379403D01*
X217960Y379522D01*
X217919Y379639D01*
X217876Y379755D01*
X217828Y379870D01*
X217777Y379983D01*
X217722Y380095D01*
X217664Y380204D01*
X217603Y380312D01*
X217538Y380418D01*
X217470Y380522D01*
X217398Y380623D01*
X217324Y380723D01*
X217246Y380819D01*
X217166Y380914D01*
X217082Y381006D01*
X216996Y381095D01*
X216907Y381181D01*
X216815Y381265D01*
X216720Y381345D01*
X216624Y381423D01*
X216524Y381497D01*
X216423Y381569D01*
X216319Y381637D01*
X216213Y381702D01*
X216105Y381763D01*
X215996Y381821D01*
X215884Y381876D01*
X215771Y381927D01*
X215657Y381975D01*
X215540Y382018D01*
X215423Y382059D01*
X215304Y382095D01*
X215185Y382128D01*
X215064Y382157D01*
X214942Y382182D01*
X214820Y382203D01*
X214697Y382221D01*
X214574Y382234D01*
X214450Y382244D01*
X214326Y382250D01*
X214202Y382252D01*
X210251Y382252D01*
D11*
X425993Y470094D02*
X427588Y468977D01*
X425993Y470094D02*
X422270Y464777D01*
X425460Y462543D01*
X425543Y462488D01*
X425627Y462436D01*
X425714Y462387D01*
X425802Y462341D01*
X425892Y462299D01*
X425984Y462260D01*
X426077Y462225D01*
X426171Y462193D01*
X426266Y462165D01*
X426363Y462141D01*
X426460Y462120D01*
X426558Y462104D01*
X426657Y462090D01*
X426756Y462081D01*
X426855Y462076D01*
X426955Y462074D01*
X427054Y462076D01*
X427153Y462082D01*
X427252Y462092D01*
X427351Y462105D01*
X427449Y462123D01*
X427546Y462144D01*
X427642Y462168D01*
X427738Y462197D01*
X427832Y462229D01*
X427925Y462264D01*
X428016Y462303D01*
X428106Y462346D01*
X428194Y462392D01*
X428280Y462441D01*
X428365Y462494D01*
X428447Y462550D01*
X428527Y462609D01*
X428605Y462671D01*
X428680Y462736D01*
X428753Y462803D01*
X428823Y462874D01*
X428891Y462947D01*
X428955Y463023D01*
X429017Y463101D01*
X429076Y463181D01*
X432799Y468498D01*
X432854Y468581D01*
X432906Y468665D01*
X432955Y468752D01*
X433001Y468840D01*
X433043Y468930D01*
X433082Y469022D01*
X433117Y469115D01*
X433149Y469209D01*
X433177Y469304D01*
X433201Y469401D01*
X433222Y469498D01*
X433238Y469596D01*
X433252Y469695D01*
X433261Y469794D01*
X433266Y469893D01*
X433268Y469993D01*
X433266Y470092D01*
X433260Y470191D01*
X433250Y470290D01*
X433237Y470389D01*
X433219Y470487D01*
X433198Y470584D01*
X433174Y470680D01*
X433145Y470776D01*
X433113Y470870D01*
X433078Y470963D01*
X433039Y471054D01*
X432996Y471144D01*
X432950Y471232D01*
X432901Y471318D01*
X432848Y471403D01*
X432792Y471485D01*
X432733Y471565D01*
X432671Y471643D01*
X432606Y471718D01*
X432539Y471791D01*
X432468Y471861D01*
X432395Y471929D01*
X432319Y471993D01*
X432241Y472055D01*
X432161Y472114D01*
X432162Y472114D02*
X428971Y474348D01*
X424302Y477618D02*
X417600Y468047D01*
X412283Y471770D02*
X424302Y477618D01*
X418984Y481341D02*
X412283Y471770D01*
X407613Y475040D02*
X414314Y484611D01*
X411656Y486472D01*
X411656Y486473D02*
X411562Y486536D01*
X411466Y486596D01*
X411368Y486653D01*
X411268Y486706D01*
X411166Y486756D01*
X411062Y486802D01*
X410957Y486844D01*
X410851Y486883D01*
X410743Y486918D01*
X410634Y486949D01*
X410524Y486977D01*
X410413Y487000D01*
X410302Y487020D01*
X410190Y487036D01*
X410077Y487048D01*
X409964Y487056D01*
X409851Y487060D01*
X409737Y487060D01*
X409624Y487056D01*
X409511Y487048D01*
X409398Y487036D01*
X409286Y487020D01*
X409175Y487000D01*
X409064Y486977D01*
X408954Y486949D01*
X408845Y486918D01*
X408737Y486883D01*
X408631Y486844D01*
X408526Y486802D01*
X408422Y486756D01*
X408320Y486706D01*
X408220Y486653D01*
X408122Y486596D01*
X408026Y486536D01*
X407932Y486473D01*
X407841Y486406D01*
X407751Y486337D01*
X407664Y486264D01*
X407580Y486188D01*
X407499Y486109D01*
X407420Y486028D01*
X407344Y485944D01*
X407271Y485857D01*
X407202Y485768D01*
X407135Y485676D01*
X407136Y485675D02*
X404157Y481422D01*
X404094Y481328D01*
X404034Y481232D01*
X403977Y481134D01*
X403924Y481034D01*
X403874Y480932D01*
X403828Y480828D01*
X403786Y480723D01*
X403747Y480617D01*
X403712Y480509D01*
X403681Y480400D01*
X403653Y480290D01*
X403630Y480179D01*
X403610Y480068D01*
X403594Y479956D01*
X403582Y479843D01*
X403574Y479730D01*
X403570Y479617D01*
X403570Y479503D01*
X403574Y479390D01*
X403582Y479277D01*
X403594Y479164D01*
X403610Y479052D01*
X403630Y478941D01*
X403653Y478830D01*
X403681Y478720D01*
X403712Y478611D01*
X403747Y478503D01*
X403786Y478397D01*
X403828Y478292D01*
X403874Y478188D01*
X403924Y478086D01*
X403977Y477986D01*
X404034Y477888D01*
X404094Y477792D01*
X404157Y477698D01*
X404224Y477606D01*
X404293Y477517D01*
X404366Y477430D01*
X404442Y477346D01*
X404521Y477265D01*
X404602Y477186D01*
X404686Y477110D01*
X404773Y477037D01*
X404863Y476968D01*
X404954Y476901D01*
X407613Y475040D01*
X492049Y337254D02*
X492049Y335306D01*
X492049Y337254D02*
X485558Y337254D01*
X485558Y333359D01*
X485560Y333260D01*
X485566Y333160D01*
X485575Y333061D01*
X485588Y332963D01*
X485605Y332865D01*
X485626Y332767D01*
X485651Y332671D01*
X485679Y332576D01*
X485711Y332482D01*
X485746Y332389D01*
X485785Y332297D01*
X485828Y332207D01*
X485873Y332119D01*
X485923Y332032D01*
X485975Y331948D01*
X486031Y331865D01*
X486089Y331785D01*
X486151Y331707D01*
X486216Y331632D01*
X486284Y331559D01*
X486354Y331489D01*
X486427Y331421D01*
X486502Y331356D01*
X486580Y331294D01*
X486660Y331236D01*
X486743Y331180D01*
X486827Y331128D01*
X486914Y331078D01*
X487002Y331033D01*
X487092Y330990D01*
X487184Y330951D01*
X487277Y330916D01*
X487371Y330884D01*
X487466Y330856D01*
X487562Y330831D01*
X487660Y330810D01*
X487758Y330793D01*
X487856Y330780D01*
X487955Y330771D01*
X488055Y330765D01*
X488154Y330763D01*
X494646Y330763D01*
X494745Y330765D01*
X494845Y330771D01*
X494944Y330780D01*
X495042Y330793D01*
X495140Y330810D01*
X495238Y330831D01*
X495334Y330856D01*
X495429Y330884D01*
X495523Y330916D01*
X495616Y330951D01*
X495708Y330990D01*
X495798Y331033D01*
X495886Y331078D01*
X495973Y331128D01*
X496057Y331180D01*
X496140Y331236D01*
X496220Y331294D01*
X496298Y331356D01*
X496373Y331421D01*
X496446Y331489D01*
X496516Y331559D01*
X496584Y331632D01*
X496649Y331707D01*
X496711Y331785D01*
X496769Y331865D01*
X496825Y331948D01*
X496877Y332032D01*
X496927Y332119D01*
X496972Y332207D01*
X497015Y332297D01*
X497054Y332389D01*
X497089Y332481D01*
X497121Y332576D01*
X497149Y332671D01*
X497174Y332767D01*
X497195Y332865D01*
X497212Y332963D01*
X497225Y333061D01*
X497234Y333160D01*
X497240Y333260D01*
X497242Y333359D01*
X497242Y337254D01*
X497242Y342954D02*
X485558Y342954D01*
X485558Y349446D02*
X497242Y342954D01*
X497242Y349446D02*
X485558Y349446D01*
X485558Y355146D02*
X497242Y355146D01*
X497242Y358392D01*
X497240Y358505D01*
X497234Y358618D01*
X497224Y358731D01*
X497210Y358844D01*
X497193Y358956D01*
X497171Y359067D01*
X497146Y359177D01*
X497116Y359287D01*
X497083Y359395D01*
X497046Y359502D01*
X497006Y359608D01*
X496961Y359712D01*
X496913Y359815D01*
X496862Y359916D01*
X496807Y360015D01*
X496749Y360112D01*
X496687Y360207D01*
X496622Y360300D01*
X496554Y360390D01*
X496483Y360478D01*
X496408Y360564D01*
X496331Y360647D01*
X496251Y360727D01*
X496168Y360804D01*
X496082Y360879D01*
X495994Y360950D01*
X495904Y361018D01*
X495811Y361083D01*
X495716Y361145D01*
X495619Y361203D01*
X495520Y361258D01*
X495419Y361309D01*
X495316Y361357D01*
X495212Y361402D01*
X495106Y361442D01*
X494999Y361479D01*
X494891Y361512D01*
X494781Y361542D01*
X494671Y361567D01*
X494560Y361589D01*
X494448Y361606D01*
X494335Y361620D01*
X494222Y361630D01*
X494109Y361636D01*
X493996Y361638D01*
X488804Y361638D01*
X488691Y361636D01*
X488578Y361630D01*
X488465Y361620D01*
X488352Y361606D01*
X488240Y361589D01*
X488129Y361567D01*
X488019Y361542D01*
X487909Y361512D01*
X487801Y361479D01*
X487694Y361442D01*
X487588Y361402D01*
X487484Y361357D01*
X487381Y361309D01*
X487280Y361258D01*
X487181Y361203D01*
X487084Y361145D01*
X486989Y361083D01*
X486896Y361018D01*
X486806Y360950D01*
X486718Y360879D01*
X486632Y360804D01*
X486549Y360727D01*
X486469Y360647D01*
X486392Y360564D01*
X486317Y360478D01*
X486246Y360390D01*
X486178Y360300D01*
X486113Y360207D01*
X486051Y360112D01*
X485993Y360015D01*
X485938Y359916D01*
X485887Y359815D01*
X485839Y359712D01*
X485794Y359608D01*
X485754Y359502D01*
X485717Y359395D01*
X485684Y359287D01*
X485654Y359177D01*
X485629Y359067D01*
X485607Y358956D01*
X485590Y358844D01*
X485576Y358731D01*
X485566Y358618D01*
X485560Y358505D01*
X485558Y358392D01*
X485558Y355146D01*
X426462Y225756D02*
X424867Y224639D01*
X428590Y219322D01*
X431781Y221556D01*
X431780Y221556D02*
X431860Y221615D01*
X431938Y221677D01*
X432014Y221741D01*
X432087Y221809D01*
X432158Y221879D01*
X432225Y221952D01*
X432290Y222027D01*
X432352Y222105D01*
X432411Y222185D01*
X432467Y222267D01*
X432520Y222352D01*
X432569Y222438D01*
X432615Y222526D01*
X432658Y222616D01*
X432697Y222707D01*
X432732Y222800D01*
X432764Y222894D01*
X432793Y222990D01*
X432817Y223086D01*
X432838Y223183D01*
X432856Y223281D01*
X432869Y223380D01*
X432879Y223479D01*
X432885Y223578D01*
X432887Y223677D01*
X432885Y223777D01*
X432880Y223876D01*
X432870Y223975D01*
X432857Y224074D01*
X432841Y224172D01*
X432820Y224269D01*
X432796Y224366D01*
X432768Y224461D01*
X432736Y224555D01*
X432701Y224648D01*
X432662Y224740D01*
X432620Y224830D01*
X432574Y224918D01*
X432525Y225005D01*
X432473Y225089D01*
X432418Y225172D01*
X428695Y230489D01*
X428636Y230569D01*
X428574Y230647D01*
X428510Y230723D01*
X428442Y230796D01*
X428372Y230867D01*
X428299Y230934D01*
X428224Y230999D01*
X428146Y231061D01*
X428066Y231120D01*
X427984Y231176D01*
X427899Y231229D01*
X427813Y231278D01*
X427725Y231324D01*
X427635Y231367D01*
X427544Y231406D01*
X427451Y231441D01*
X427357Y231473D01*
X427261Y231502D01*
X427165Y231526D01*
X427068Y231547D01*
X426970Y231565D01*
X426871Y231578D01*
X426772Y231588D01*
X426673Y231594D01*
X426574Y231596D01*
X426474Y231594D01*
X426375Y231589D01*
X426276Y231580D01*
X426177Y231566D01*
X426079Y231550D01*
X425982Y231529D01*
X425885Y231505D01*
X425790Y231477D01*
X425696Y231445D01*
X425603Y231410D01*
X425511Y231371D01*
X425421Y231329D01*
X425333Y231283D01*
X425246Y231234D01*
X425162Y231182D01*
X425079Y231127D01*
X421889Y228893D01*
X417219Y225623D02*
X423920Y216052D01*
X418603Y212329D02*
X417219Y225623D01*
X411902Y221900D02*
X418603Y212329D01*
X413933Y209059D02*
X407232Y218630D01*
X404573Y216768D01*
X404573Y216769D02*
X404482Y216702D01*
X404392Y216633D01*
X404305Y216560D01*
X404221Y216484D01*
X404140Y216405D01*
X404061Y216324D01*
X403985Y216240D01*
X403912Y216153D01*
X403843Y216064D01*
X403776Y215972D01*
X403713Y215878D01*
X403653Y215782D01*
X403596Y215684D01*
X403543Y215584D01*
X403493Y215482D01*
X403447Y215378D01*
X403405Y215273D01*
X403366Y215167D01*
X403331Y215059D01*
X403300Y214950D01*
X403272Y214840D01*
X403249Y214729D01*
X403229Y214618D01*
X403213Y214506D01*
X403201Y214393D01*
X403193Y214280D01*
X403189Y214167D01*
X403189Y214053D01*
X403193Y213940D01*
X403201Y213827D01*
X403213Y213714D01*
X403229Y213602D01*
X403249Y213491D01*
X403272Y213380D01*
X403300Y213270D01*
X403331Y213161D01*
X403366Y213053D01*
X403405Y212947D01*
X403447Y212842D01*
X403493Y212738D01*
X403543Y212636D01*
X403596Y212536D01*
X403653Y212438D01*
X403713Y212342D01*
X403776Y212248D01*
X406755Y207994D01*
X406754Y207994D02*
X406821Y207903D01*
X406890Y207813D01*
X406963Y207726D01*
X407039Y207642D01*
X407118Y207561D01*
X407199Y207482D01*
X407283Y207406D01*
X407370Y207333D01*
X407460Y207264D01*
X407551Y207197D01*
X407645Y207134D01*
X407741Y207074D01*
X407839Y207017D01*
X407939Y206964D01*
X408041Y206914D01*
X408145Y206868D01*
X408250Y206826D01*
X408356Y206787D01*
X408464Y206752D01*
X408573Y206721D01*
X408683Y206693D01*
X408794Y206670D01*
X408905Y206650D01*
X409017Y206634D01*
X409130Y206622D01*
X409243Y206614D01*
X409356Y206610D01*
X409470Y206610D01*
X409583Y206614D01*
X409696Y206622D01*
X409809Y206634D01*
X409921Y206650D01*
X410032Y206670D01*
X410143Y206693D01*
X410253Y206721D01*
X410362Y206752D01*
X410470Y206787D01*
X410576Y206826D01*
X410681Y206868D01*
X410785Y206914D01*
X410887Y206964D01*
X410987Y207017D01*
X411085Y207074D01*
X411181Y207134D01*
X411275Y207197D01*
X413933Y209059D01*
X285563Y212624D02*
X283968Y213741D01*
X280245Y208424D01*
X283435Y206190D01*
X283518Y206135D01*
X283602Y206083D01*
X283689Y206034D01*
X283777Y205988D01*
X283867Y205946D01*
X283959Y205907D01*
X284052Y205872D01*
X284146Y205840D01*
X284241Y205812D01*
X284338Y205788D01*
X284435Y205767D01*
X284533Y205751D01*
X284632Y205737D01*
X284731Y205728D01*
X284830Y205723D01*
X284930Y205721D01*
X285029Y205723D01*
X285128Y205729D01*
X285227Y205739D01*
X285326Y205752D01*
X285424Y205770D01*
X285521Y205791D01*
X285617Y205815D01*
X285713Y205844D01*
X285807Y205876D01*
X285900Y205911D01*
X285991Y205950D01*
X286081Y205993D01*
X286169Y206039D01*
X286255Y206088D01*
X286340Y206141D01*
X286422Y206197D01*
X286502Y206256D01*
X286580Y206318D01*
X286655Y206383D01*
X286728Y206450D01*
X286798Y206521D01*
X286866Y206594D01*
X286930Y206670D01*
X286992Y206748D01*
X287051Y206828D01*
X290774Y212145D01*
X290829Y212228D01*
X290881Y212312D01*
X290930Y212399D01*
X290976Y212487D01*
X291018Y212577D01*
X291057Y212669D01*
X291092Y212762D01*
X291124Y212856D01*
X291152Y212951D01*
X291176Y213048D01*
X291197Y213145D01*
X291213Y213243D01*
X291227Y213342D01*
X291236Y213441D01*
X291241Y213540D01*
X291243Y213640D01*
X291241Y213739D01*
X291235Y213838D01*
X291225Y213937D01*
X291212Y214036D01*
X291194Y214134D01*
X291173Y214231D01*
X291149Y214327D01*
X291120Y214423D01*
X291088Y214517D01*
X291053Y214610D01*
X291014Y214701D01*
X290971Y214791D01*
X290925Y214879D01*
X290876Y214965D01*
X290823Y215050D01*
X290767Y215132D01*
X290708Y215212D01*
X290646Y215290D01*
X290581Y215365D01*
X290514Y215438D01*
X290443Y215508D01*
X290370Y215576D01*
X290294Y215640D01*
X290216Y215702D01*
X290136Y215761D01*
X290137Y215761D02*
X286946Y217995D01*
X282277Y221265D02*
X275575Y211694D01*
X270258Y215417D02*
X282277Y221265D01*
X276959Y224988D02*
X270258Y215417D01*
X265588Y218687D02*
X272289Y228258D01*
X269631Y230119D01*
X269631Y230120D02*
X269537Y230183D01*
X269441Y230243D01*
X269343Y230300D01*
X269243Y230353D01*
X269141Y230403D01*
X269037Y230449D01*
X268932Y230491D01*
X268826Y230530D01*
X268718Y230565D01*
X268609Y230596D01*
X268499Y230624D01*
X268388Y230647D01*
X268277Y230667D01*
X268165Y230683D01*
X268052Y230695D01*
X267939Y230703D01*
X267826Y230707D01*
X267712Y230707D01*
X267599Y230703D01*
X267486Y230695D01*
X267373Y230683D01*
X267261Y230667D01*
X267150Y230647D01*
X267039Y230624D01*
X266929Y230596D01*
X266820Y230565D01*
X266712Y230530D01*
X266606Y230491D01*
X266501Y230449D01*
X266397Y230403D01*
X266295Y230353D01*
X266195Y230300D01*
X266097Y230243D01*
X266001Y230183D01*
X265907Y230120D01*
X265816Y230053D01*
X265726Y229984D01*
X265639Y229911D01*
X265555Y229835D01*
X265474Y229756D01*
X265395Y229675D01*
X265319Y229591D01*
X265246Y229504D01*
X265177Y229415D01*
X265110Y229323D01*
X265111Y229322D02*
X262132Y225069D01*
X262069Y224975D01*
X262009Y224879D01*
X261952Y224781D01*
X261899Y224681D01*
X261849Y224579D01*
X261803Y224475D01*
X261761Y224370D01*
X261722Y224264D01*
X261687Y224156D01*
X261656Y224047D01*
X261628Y223937D01*
X261605Y223826D01*
X261585Y223715D01*
X261569Y223603D01*
X261557Y223490D01*
X261549Y223377D01*
X261545Y223264D01*
X261545Y223150D01*
X261549Y223037D01*
X261557Y222924D01*
X261569Y222811D01*
X261585Y222699D01*
X261605Y222588D01*
X261628Y222477D01*
X261656Y222367D01*
X261687Y222258D01*
X261722Y222150D01*
X261761Y222044D01*
X261803Y221939D01*
X261849Y221835D01*
X261899Y221733D01*
X261952Y221633D01*
X262009Y221535D01*
X262069Y221439D01*
X262132Y221345D01*
X262199Y221253D01*
X262268Y221164D01*
X262341Y221077D01*
X262417Y220993D01*
X262496Y220912D01*
X262577Y220833D01*
X262661Y220757D01*
X262748Y220684D01*
X262838Y220615D01*
X262929Y220548D01*
X265588Y218687D01*
X200379Y334544D02*
X200379Y336492D01*
X193888Y336492D01*
X193888Y332597D01*
X193890Y332498D01*
X193896Y332398D01*
X193905Y332299D01*
X193918Y332201D01*
X193935Y332103D01*
X193956Y332005D01*
X193981Y331909D01*
X194009Y331814D01*
X194041Y331720D01*
X194076Y331627D01*
X194115Y331535D01*
X194158Y331445D01*
X194203Y331357D01*
X194253Y331270D01*
X194305Y331186D01*
X194361Y331103D01*
X194419Y331023D01*
X194481Y330945D01*
X194546Y330870D01*
X194614Y330797D01*
X194684Y330727D01*
X194757Y330659D01*
X194832Y330594D01*
X194910Y330532D01*
X194990Y330474D01*
X195073Y330418D01*
X195157Y330366D01*
X195244Y330316D01*
X195332Y330271D01*
X195422Y330228D01*
X195514Y330189D01*
X195607Y330154D01*
X195701Y330122D01*
X195796Y330094D01*
X195892Y330069D01*
X195990Y330048D01*
X196088Y330031D01*
X196186Y330018D01*
X196285Y330009D01*
X196385Y330003D01*
X196484Y330001D01*
X202976Y330001D01*
X203075Y330003D01*
X203175Y330009D01*
X203274Y330018D01*
X203372Y330031D01*
X203470Y330048D01*
X203568Y330069D01*
X203664Y330094D01*
X203759Y330122D01*
X203853Y330154D01*
X203946Y330189D01*
X204038Y330228D01*
X204128Y330271D01*
X204216Y330316D01*
X204303Y330366D01*
X204387Y330418D01*
X204470Y330474D01*
X204550Y330532D01*
X204628Y330594D01*
X204703Y330659D01*
X204776Y330727D01*
X204846Y330797D01*
X204914Y330870D01*
X204979Y330945D01*
X205041Y331023D01*
X205099Y331103D01*
X205155Y331186D01*
X205207Y331270D01*
X205257Y331357D01*
X205302Y331445D01*
X205345Y331535D01*
X205384Y331627D01*
X205419Y331719D01*
X205451Y331814D01*
X205479Y331909D01*
X205504Y332005D01*
X205525Y332103D01*
X205542Y332201D01*
X205555Y332299D01*
X205564Y332398D01*
X205570Y332498D01*
X205572Y332597D01*
X205572Y336492D01*
X205572Y342192D02*
X193888Y342192D01*
X193888Y348684D02*
X205572Y342192D01*
X205572Y348684D02*
X193888Y348684D01*
X193888Y354384D02*
X205572Y354384D01*
X205572Y357630D01*
X205570Y357743D01*
X205564Y357856D01*
X205554Y357969D01*
X205540Y358082D01*
X205523Y358194D01*
X205501Y358305D01*
X205476Y358415D01*
X205446Y358525D01*
X205413Y358633D01*
X205376Y358740D01*
X205336Y358846D01*
X205291Y358950D01*
X205243Y359053D01*
X205192Y359154D01*
X205137Y359253D01*
X205079Y359350D01*
X205017Y359445D01*
X204952Y359538D01*
X204884Y359628D01*
X204813Y359716D01*
X204738Y359802D01*
X204661Y359885D01*
X204581Y359965D01*
X204498Y360042D01*
X204412Y360117D01*
X204324Y360188D01*
X204234Y360256D01*
X204141Y360321D01*
X204046Y360383D01*
X203949Y360441D01*
X203850Y360496D01*
X203749Y360547D01*
X203646Y360595D01*
X203542Y360640D01*
X203436Y360680D01*
X203329Y360717D01*
X203221Y360750D01*
X203111Y360780D01*
X203001Y360805D01*
X202890Y360827D01*
X202778Y360844D01*
X202665Y360858D01*
X202552Y360868D01*
X202439Y360874D01*
X202326Y360876D01*
X197134Y360876D01*
X197021Y360874D01*
X196908Y360868D01*
X196795Y360858D01*
X196682Y360844D01*
X196570Y360827D01*
X196459Y360805D01*
X196349Y360780D01*
X196239Y360750D01*
X196131Y360717D01*
X196024Y360680D01*
X195918Y360640D01*
X195814Y360595D01*
X195711Y360547D01*
X195610Y360496D01*
X195511Y360441D01*
X195414Y360383D01*
X195319Y360321D01*
X195226Y360256D01*
X195136Y360188D01*
X195048Y360117D01*
X194962Y360042D01*
X194879Y359965D01*
X194799Y359885D01*
X194722Y359802D01*
X194647Y359716D01*
X194576Y359628D01*
X194508Y359538D01*
X194443Y359445D01*
X194381Y359350D01*
X194323Y359253D01*
X194268Y359154D01*
X194217Y359053D01*
X194169Y358950D01*
X194124Y358846D01*
X194084Y358740D01*
X194047Y358633D01*
X194014Y358525D01*
X193984Y358415D01*
X193959Y358305D01*
X193937Y358194D01*
X193920Y358082D01*
X193906Y357969D01*
X193896Y357856D01*
X193890Y357743D01*
X193888Y357630D01*
X193888Y354384D01*
X280429Y478325D02*
X282024Y479442D01*
X280429Y478325D02*
X284152Y473008D01*
X287343Y475242D01*
X287342Y475242D02*
X287422Y475301D01*
X287500Y475363D01*
X287576Y475427D01*
X287649Y475495D01*
X287720Y475565D01*
X287787Y475638D01*
X287852Y475713D01*
X287914Y475791D01*
X287973Y475871D01*
X288029Y475953D01*
X288082Y476038D01*
X288131Y476124D01*
X288177Y476212D01*
X288220Y476302D01*
X288259Y476393D01*
X288294Y476486D01*
X288326Y476580D01*
X288355Y476676D01*
X288379Y476772D01*
X288400Y476869D01*
X288418Y476967D01*
X288431Y477066D01*
X288441Y477165D01*
X288447Y477264D01*
X288449Y477363D01*
X288447Y477463D01*
X288442Y477562D01*
X288432Y477661D01*
X288419Y477760D01*
X288403Y477858D01*
X288382Y477955D01*
X288358Y478052D01*
X288330Y478147D01*
X288298Y478241D01*
X288263Y478334D01*
X288224Y478426D01*
X288182Y478516D01*
X288136Y478604D01*
X288087Y478691D01*
X288035Y478775D01*
X287980Y478858D01*
X284257Y484175D01*
X284198Y484255D01*
X284136Y484333D01*
X284072Y484409D01*
X284004Y484482D01*
X283934Y484553D01*
X283861Y484620D01*
X283786Y484685D01*
X283708Y484747D01*
X283628Y484806D01*
X283546Y484862D01*
X283461Y484915D01*
X283375Y484964D01*
X283287Y485010D01*
X283197Y485053D01*
X283106Y485092D01*
X283013Y485127D01*
X282919Y485159D01*
X282823Y485188D01*
X282727Y485212D01*
X282630Y485233D01*
X282532Y485251D01*
X282433Y485264D01*
X282334Y485274D01*
X282235Y485280D01*
X282136Y485282D01*
X282036Y485280D01*
X281937Y485275D01*
X281838Y485266D01*
X281739Y485252D01*
X281641Y485236D01*
X281544Y485215D01*
X281447Y485191D01*
X281352Y485163D01*
X281258Y485131D01*
X281165Y485096D01*
X281073Y485057D01*
X280983Y485015D01*
X280895Y484969D01*
X280808Y484920D01*
X280724Y484868D01*
X280641Y484813D01*
X277451Y482579D01*
X272781Y479309D02*
X279482Y469738D01*
X274165Y466015D02*
X272781Y479309D01*
X267464Y475586D02*
X274165Y466015D01*
X269495Y462745D02*
X262794Y472316D01*
X260135Y470454D01*
X260135Y470455D02*
X260044Y470388D01*
X259954Y470319D01*
X259867Y470246D01*
X259783Y470170D01*
X259702Y470091D01*
X259623Y470010D01*
X259547Y469926D01*
X259474Y469839D01*
X259405Y469750D01*
X259338Y469658D01*
X259275Y469564D01*
X259215Y469468D01*
X259158Y469370D01*
X259105Y469270D01*
X259055Y469168D01*
X259009Y469064D01*
X258967Y468959D01*
X258928Y468853D01*
X258893Y468745D01*
X258862Y468636D01*
X258834Y468526D01*
X258811Y468415D01*
X258791Y468304D01*
X258775Y468192D01*
X258763Y468079D01*
X258755Y467966D01*
X258751Y467853D01*
X258751Y467739D01*
X258755Y467626D01*
X258763Y467513D01*
X258775Y467400D01*
X258791Y467288D01*
X258811Y467177D01*
X258834Y467066D01*
X258862Y466956D01*
X258893Y466847D01*
X258928Y466739D01*
X258967Y466633D01*
X259009Y466528D01*
X259055Y466424D01*
X259105Y466322D01*
X259158Y466222D01*
X259215Y466124D01*
X259275Y466028D01*
X259338Y465934D01*
X262317Y461680D01*
X262316Y461680D02*
X262383Y461589D01*
X262452Y461499D01*
X262525Y461412D01*
X262601Y461328D01*
X262680Y461247D01*
X262761Y461168D01*
X262845Y461092D01*
X262932Y461019D01*
X263022Y460950D01*
X263113Y460883D01*
X263207Y460820D01*
X263303Y460760D01*
X263401Y460703D01*
X263501Y460650D01*
X263603Y460600D01*
X263707Y460554D01*
X263812Y460512D01*
X263918Y460473D01*
X264026Y460438D01*
X264135Y460407D01*
X264245Y460379D01*
X264356Y460356D01*
X264467Y460336D01*
X264579Y460320D01*
X264692Y460308D01*
X264805Y460300D01*
X264918Y460296D01*
X265032Y460296D01*
X265145Y460300D01*
X265258Y460308D01*
X265371Y460320D01*
X265483Y460336D01*
X265594Y460356D01*
X265705Y460379D01*
X265815Y460407D01*
X265924Y460438D01*
X266032Y460473D01*
X266138Y460512D01*
X266243Y460554D01*
X266347Y460600D01*
X266449Y460650D01*
X266549Y460703D01*
X266647Y460760D01*
X266743Y460820D01*
X266837Y460883D01*
X269495Y462745D01*
D10*
X457536Y411890D02*
X457536Y394110D01*
X457536Y411890D02*
X452598Y411890D01*
X452458Y411888D01*
X452319Y411882D01*
X452179Y411872D01*
X452040Y411858D01*
X451901Y411841D01*
X451763Y411819D01*
X451626Y411793D01*
X451489Y411764D01*
X451353Y411731D01*
X451219Y411694D01*
X451085Y411653D01*
X450953Y411608D01*
X450821Y411559D01*
X450692Y411507D01*
X450564Y411452D01*
X450437Y411392D01*
X450312Y411329D01*
X450189Y411263D01*
X450068Y411193D01*
X449949Y411120D01*
X449832Y411043D01*
X449718Y410963D01*
X449605Y410880D01*
X449495Y410794D01*
X449388Y410704D01*
X449283Y410612D01*
X449181Y410517D01*
X449081Y410419D01*
X448984Y410318D01*
X448890Y410214D01*
X448800Y410108D01*
X448712Y409999D01*
X448627Y409888D01*
X448546Y409774D01*
X448467Y409659D01*
X448392Y409541D01*
X448321Y409421D01*
X448253Y409298D01*
X448188Y409175D01*
X448127Y409049D01*
X448069Y408921D01*
X448015Y408793D01*
X447965Y408662D01*
X447918Y408530D01*
X447875Y408397D01*
X447836Y408263D01*
X447801Y408128D01*
X447770Y407992D01*
X447742Y407854D01*
X447719Y407717D01*
X447699Y407578D01*
X447683Y407439D01*
X447671Y407300D01*
X447663Y407161D01*
X447659Y407021D01*
X447659Y406881D01*
X447663Y406741D01*
X447671Y406602D01*
X447683Y406463D01*
X447699Y406324D01*
X447719Y406185D01*
X447742Y406048D01*
X447770Y405910D01*
X447801Y405774D01*
X447836Y405639D01*
X447875Y405505D01*
X447918Y405372D01*
X447965Y405240D01*
X448015Y405109D01*
X448069Y404981D01*
X448127Y404853D01*
X448188Y404727D01*
X448253Y404604D01*
X448321Y404482D01*
X448392Y404361D01*
X448467Y404243D01*
X448546Y404128D01*
X448627Y404014D01*
X448712Y403903D01*
X448800Y403794D01*
X448890Y403688D01*
X448984Y403584D01*
X449081Y403483D01*
X449181Y403385D01*
X449283Y403290D01*
X449388Y403198D01*
X449495Y403108D01*
X449605Y403022D01*
X449718Y402939D01*
X449832Y402859D01*
X449949Y402782D01*
X450068Y402709D01*
X450189Y402639D01*
X450312Y402573D01*
X450437Y402510D01*
X450564Y402450D01*
X450692Y402395D01*
X450821Y402343D01*
X450953Y402294D01*
X451085Y402249D01*
X451219Y402208D01*
X451353Y402171D01*
X451489Y402138D01*
X451626Y402109D01*
X451763Y402083D01*
X451901Y402061D01*
X452040Y402044D01*
X452179Y402030D01*
X452319Y402020D01*
X452458Y402014D01*
X452598Y402012D01*
X457536Y402012D01*
X441541Y407939D02*
X436602Y411890D01*
X436602Y394110D01*
X431664Y394110D02*
X441541Y394110D01*
X475062Y310609D02*
X475062Y292829D01*
X475062Y310609D02*
X470124Y310609D01*
X469984Y310607D01*
X469845Y310601D01*
X469705Y310591D01*
X469566Y310577D01*
X469427Y310560D01*
X469289Y310538D01*
X469152Y310512D01*
X469015Y310483D01*
X468879Y310450D01*
X468745Y310413D01*
X468611Y310372D01*
X468479Y310327D01*
X468347Y310278D01*
X468218Y310226D01*
X468090Y310171D01*
X467963Y310111D01*
X467838Y310048D01*
X467715Y309982D01*
X467594Y309912D01*
X467475Y309839D01*
X467358Y309762D01*
X467244Y309682D01*
X467131Y309599D01*
X467021Y309513D01*
X466914Y309423D01*
X466809Y309331D01*
X466707Y309236D01*
X466607Y309138D01*
X466510Y309037D01*
X466416Y308933D01*
X466326Y308827D01*
X466238Y308718D01*
X466153Y308607D01*
X466072Y308493D01*
X465993Y308378D01*
X465918Y308260D01*
X465847Y308140D01*
X465779Y308017D01*
X465714Y307894D01*
X465653Y307768D01*
X465595Y307640D01*
X465541Y307512D01*
X465491Y307381D01*
X465444Y307249D01*
X465401Y307116D01*
X465362Y306982D01*
X465327Y306847D01*
X465296Y306711D01*
X465268Y306573D01*
X465245Y306436D01*
X465225Y306297D01*
X465209Y306158D01*
X465197Y306019D01*
X465189Y305880D01*
X465185Y305740D01*
X465185Y305600D01*
X465189Y305460D01*
X465197Y305321D01*
X465209Y305182D01*
X465225Y305043D01*
X465245Y304904D01*
X465268Y304767D01*
X465296Y304629D01*
X465327Y304493D01*
X465362Y304358D01*
X465401Y304224D01*
X465444Y304091D01*
X465491Y303959D01*
X465541Y303828D01*
X465595Y303700D01*
X465653Y303572D01*
X465714Y303446D01*
X465779Y303323D01*
X465847Y303201D01*
X465918Y303080D01*
X465993Y302962D01*
X466072Y302847D01*
X466153Y302733D01*
X466238Y302622D01*
X466326Y302513D01*
X466416Y302407D01*
X466510Y302303D01*
X466607Y302202D01*
X466707Y302104D01*
X466809Y302009D01*
X466914Y301917D01*
X467021Y301827D01*
X467131Y301741D01*
X467244Y301658D01*
X467358Y301578D01*
X467475Y301501D01*
X467594Y301428D01*
X467715Y301358D01*
X467838Y301292D01*
X467963Y301229D01*
X468090Y301169D01*
X468218Y301114D01*
X468347Y301062D01*
X468479Y301013D01*
X468611Y300968D01*
X468745Y300927D01*
X468879Y300890D01*
X469015Y300857D01*
X469152Y300828D01*
X469289Y300802D01*
X469427Y300780D01*
X469566Y300763D01*
X469705Y300749D01*
X469845Y300739D01*
X469984Y300733D01*
X470124Y300731D01*
X475062Y300731D01*
X453635Y310609D02*
X453503Y310607D01*
X453372Y310601D01*
X453240Y310591D01*
X453109Y310578D01*
X452979Y310560D01*
X452849Y310539D01*
X452719Y310514D01*
X452591Y310485D01*
X452463Y310452D01*
X452337Y310415D01*
X452211Y310375D01*
X452087Y310331D01*
X451964Y310283D01*
X451843Y310232D01*
X451723Y310177D01*
X451605Y310119D01*
X451489Y310057D01*
X451375Y309991D01*
X451262Y309923D01*
X451152Y309851D01*
X451044Y309776D01*
X450938Y309697D01*
X450834Y309616D01*
X450733Y309531D01*
X450635Y309444D01*
X450539Y309353D01*
X450446Y309260D01*
X450355Y309164D01*
X450268Y309066D01*
X450183Y308965D01*
X450102Y308861D01*
X450023Y308755D01*
X449948Y308647D01*
X449876Y308537D01*
X449808Y308424D01*
X449742Y308310D01*
X449680Y308194D01*
X449622Y308076D01*
X449567Y307956D01*
X449516Y307835D01*
X449468Y307712D01*
X449424Y307588D01*
X449384Y307462D01*
X449347Y307336D01*
X449314Y307208D01*
X449285Y307080D01*
X449260Y306950D01*
X449239Y306820D01*
X449221Y306690D01*
X449208Y306559D01*
X449198Y306427D01*
X449192Y306296D01*
X449190Y306164D01*
X453635Y310609D02*
X453785Y310607D01*
X453934Y310601D01*
X454083Y310591D01*
X454232Y310578D01*
X454381Y310560D01*
X454529Y310539D01*
X454677Y310513D01*
X454823Y310484D01*
X454969Y310451D01*
X455114Y310414D01*
X455258Y310373D01*
X455401Y310329D01*
X455543Y310281D01*
X455683Y310229D01*
X455822Y310174D01*
X455960Y310115D01*
X456095Y310052D01*
X456230Y309986D01*
X456362Y309916D01*
X456492Y309843D01*
X456621Y309766D01*
X456748Y309686D01*
X456872Y309603D01*
X456994Y309517D01*
X457114Y309427D01*
X457231Y309334D01*
X457346Y309239D01*
X457459Y309140D01*
X457569Y309038D01*
X457676Y308934D01*
X457780Y308827D01*
X457882Y308717D01*
X457980Y308604D01*
X458076Y308489D01*
X458168Y308371D01*
X458258Y308251D01*
X458344Y308129D01*
X458427Y308005D01*
X458507Y307878D01*
X458583Y307750D01*
X458656Y307619D01*
X458726Y307486D01*
X458792Y307352D01*
X458854Y307216D01*
X458913Y307079D01*
X458969Y306940D01*
X459020Y306799D01*
X459068Y306658D01*
X450672Y302707D02*
X450576Y302800D01*
X450484Y302896D01*
X450394Y302995D01*
X450307Y303096D01*
X450223Y303199D01*
X450141Y303304D01*
X450063Y303412D01*
X449988Y303522D01*
X449915Y303634D01*
X449846Y303748D01*
X449780Y303864D01*
X449718Y303982D01*
X449659Y304101D01*
X449603Y304222D01*
X449550Y304345D01*
X449501Y304469D01*
X449456Y304594D01*
X449413Y304721D01*
X449375Y304848D01*
X449340Y304977D01*
X449309Y305106D01*
X449281Y305237D01*
X449257Y305368D01*
X449236Y305500D01*
X449220Y305632D01*
X449207Y305765D01*
X449197Y305898D01*
X449192Y306031D01*
X449190Y306164D01*
X450671Y302707D02*
X459067Y292829D01*
X449190Y292829D01*
X246639Y290670D02*
X246639Y308450D01*
X241701Y308450D01*
X241561Y308448D01*
X241422Y308442D01*
X241282Y308432D01*
X241143Y308418D01*
X241004Y308401D01*
X240866Y308379D01*
X240729Y308353D01*
X240592Y308324D01*
X240456Y308291D01*
X240322Y308254D01*
X240188Y308213D01*
X240056Y308168D01*
X239924Y308119D01*
X239795Y308067D01*
X239667Y308012D01*
X239540Y307952D01*
X239415Y307889D01*
X239292Y307823D01*
X239171Y307753D01*
X239052Y307680D01*
X238935Y307603D01*
X238821Y307523D01*
X238708Y307440D01*
X238598Y307354D01*
X238491Y307264D01*
X238386Y307172D01*
X238284Y307077D01*
X238184Y306979D01*
X238087Y306878D01*
X237993Y306774D01*
X237903Y306668D01*
X237815Y306559D01*
X237730Y306448D01*
X237649Y306334D01*
X237570Y306219D01*
X237495Y306101D01*
X237424Y305981D01*
X237356Y305858D01*
X237291Y305735D01*
X237230Y305609D01*
X237172Y305481D01*
X237118Y305353D01*
X237068Y305222D01*
X237021Y305090D01*
X236978Y304957D01*
X236939Y304823D01*
X236904Y304688D01*
X236873Y304552D01*
X236845Y304414D01*
X236822Y304277D01*
X236802Y304138D01*
X236786Y303999D01*
X236774Y303860D01*
X236766Y303721D01*
X236762Y303581D01*
X236762Y303441D01*
X236766Y303301D01*
X236774Y303162D01*
X236786Y303023D01*
X236802Y302884D01*
X236822Y302745D01*
X236845Y302608D01*
X236873Y302470D01*
X236904Y302334D01*
X236939Y302199D01*
X236978Y302065D01*
X237021Y301932D01*
X237068Y301800D01*
X237118Y301669D01*
X237172Y301541D01*
X237230Y301413D01*
X237291Y301287D01*
X237356Y301164D01*
X237424Y301042D01*
X237495Y300921D01*
X237570Y300803D01*
X237649Y300688D01*
X237730Y300574D01*
X237815Y300463D01*
X237903Y300354D01*
X237993Y300248D01*
X238087Y300144D01*
X238184Y300043D01*
X238284Y299945D01*
X238386Y299850D01*
X238491Y299758D01*
X238598Y299668D01*
X238708Y299582D01*
X238821Y299499D01*
X238935Y299419D01*
X239052Y299342D01*
X239171Y299269D01*
X239292Y299199D01*
X239415Y299133D01*
X239540Y299070D01*
X239667Y299010D01*
X239795Y298955D01*
X239924Y298903D01*
X240056Y298854D01*
X240188Y298809D01*
X240322Y298768D01*
X240456Y298731D01*
X240592Y298698D01*
X240729Y298669D01*
X240866Y298643D01*
X241004Y298621D01*
X241143Y298604D01*
X241282Y298590D01*
X241422Y298580D01*
X241561Y298574D01*
X241701Y298572D01*
X246639Y298572D01*
X230644Y290670D02*
X225705Y290670D01*
X225565Y290672D01*
X225426Y290678D01*
X225286Y290688D01*
X225147Y290702D01*
X225008Y290719D01*
X224870Y290741D01*
X224733Y290767D01*
X224596Y290796D01*
X224460Y290829D01*
X224326Y290866D01*
X224192Y290907D01*
X224060Y290952D01*
X223928Y291001D01*
X223799Y291053D01*
X223671Y291108D01*
X223544Y291168D01*
X223419Y291231D01*
X223296Y291297D01*
X223175Y291367D01*
X223056Y291440D01*
X222939Y291517D01*
X222825Y291597D01*
X222712Y291680D01*
X222602Y291766D01*
X222495Y291856D01*
X222390Y291948D01*
X222288Y292043D01*
X222188Y292141D01*
X222091Y292242D01*
X221997Y292346D01*
X221907Y292452D01*
X221819Y292561D01*
X221734Y292672D01*
X221653Y292786D01*
X221574Y292901D01*
X221499Y293019D01*
X221428Y293140D01*
X221360Y293262D01*
X221295Y293385D01*
X221234Y293511D01*
X221176Y293639D01*
X221122Y293767D01*
X221072Y293898D01*
X221025Y294030D01*
X220982Y294163D01*
X220943Y294297D01*
X220908Y294432D01*
X220877Y294568D01*
X220849Y294706D01*
X220826Y294843D01*
X220806Y294982D01*
X220790Y295121D01*
X220778Y295260D01*
X220770Y295399D01*
X220766Y295539D01*
X220766Y295679D01*
X220770Y295819D01*
X220778Y295958D01*
X220790Y296097D01*
X220806Y296236D01*
X220826Y296375D01*
X220849Y296512D01*
X220877Y296650D01*
X220908Y296786D01*
X220943Y296921D01*
X220982Y297055D01*
X221025Y297188D01*
X221072Y297320D01*
X221122Y297451D01*
X221176Y297579D01*
X221234Y297707D01*
X221295Y297833D01*
X221360Y297956D01*
X221428Y298079D01*
X221499Y298199D01*
X221574Y298317D01*
X221653Y298432D01*
X221734Y298546D01*
X221819Y298657D01*
X221907Y298766D01*
X221997Y298872D01*
X222091Y298976D01*
X222188Y299077D01*
X222288Y299175D01*
X222390Y299270D01*
X222495Y299362D01*
X222602Y299452D01*
X222712Y299538D01*
X222825Y299621D01*
X222939Y299701D01*
X223056Y299778D01*
X223175Y299851D01*
X223296Y299921D01*
X223419Y299987D01*
X223544Y300050D01*
X223671Y300110D01*
X223799Y300165D01*
X223928Y300217D01*
X224060Y300266D01*
X224192Y300311D01*
X224326Y300352D01*
X224460Y300389D01*
X224596Y300422D01*
X224733Y300451D01*
X224870Y300477D01*
X225008Y300499D01*
X225147Y300516D01*
X225286Y300530D01*
X225426Y300540D01*
X225565Y300546D01*
X225705Y300548D01*
X224718Y308450D02*
X230644Y308450D01*
X224718Y308450D02*
X224594Y308448D01*
X224470Y308442D01*
X224346Y308432D01*
X224223Y308419D01*
X224100Y308401D01*
X223978Y308380D01*
X223856Y308355D01*
X223735Y308326D01*
X223616Y308293D01*
X223497Y308257D01*
X223380Y308216D01*
X223264Y308173D01*
X223149Y308125D01*
X223036Y308074D01*
X222924Y308019D01*
X222815Y307961D01*
X222707Y307900D01*
X222601Y307835D01*
X222497Y307767D01*
X222396Y307695D01*
X222296Y307621D01*
X222200Y307543D01*
X222105Y307463D01*
X222013Y307379D01*
X221924Y307293D01*
X221838Y307204D01*
X221754Y307112D01*
X221674Y307017D01*
X221596Y306921D01*
X221522Y306821D01*
X221450Y306720D01*
X221382Y306616D01*
X221317Y306510D01*
X221256Y306402D01*
X221198Y306293D01*
X221143Y306181D01*
X221092Y306068D01*
X221044Y305953D01*
X221001Y305837D01*
X220960Y305720D01*
X220924Y305601D01*
X220891Y305482D01*
X220862Y305361D01*
X220837Y305239D01*
X220816Y305117D01*
X220798Y304994D01*
X220785Y304871D01*
X220775Y304747D01*
X220769Y304623D01*
X220767Y304499D01*
X220769Y304375D01*
X220775Y304251D01*
X220785Y304127D01*
X220798Y304004D01*
X220816Y303881D01*
X220837Y303759D01*
X220862Y303637D01*
X220891Y303516D01*
X220924Y303397D01*
X220960Y303278D01*
X221001Y303161D01*
X221044Y303045D01*
X221092Y302930D01*
X221143Y302817D01*
X221198Y302705D01*
X221256Y302596D01*
X221317Y302488D01*
X221382Y302382D01*
X221450Y302278D01*
X221522Y302177D01*
X221596Y302077D01*
X221674Y301981D01*
X221754Y301886D01*
X221838Y301794D01*
X221924Y301705D01*
X222013Y301619D01*
X222105Y301535D01*
X222200Y301455D01*
X222296Y301377D01*
X222396Y301303D01*
X222497Y301231D01*
X222601Y301163D01*
X222707Y301098D01*
X222815Y301037D01*
X222924Y300979D01*
X223036Y300924D01*
X223149Y300873D01*
X223264Y300825D01*
X223380Y300782D01*
X223497Y300741D01*
X223616Y300705D01*
X223735Y300672D01*
X223856Y300643D01*
X223978Y300618D01*
X224100Y300597D01*
X224223Y300579D01*
X224346Y300566D01*
X224470Y300556D01*
X224594Y300550D01*
X224718Y300548D01*
X228669Y300548D01*
X257180Y389792D02*
X257180Y407572D01*
X252242Y407572D01*
X252102Y407570D01*
X251963Y407564D01*
X251823Y407554D01*
X251684Y407540D01*
X251545Y407523D01*
X251407Y407501D01*
X251270Y407475D01*
X251133Y407446D01*
X250997Y407413D01*
X250863Y407376D01*
X250729Y407335D01*
X250597Y407290D01*
X250465Y407241D01*
X250336Y407189D01*
X250208Y407134D01*
X250081Y407074D01*
X249956Y407011D01*
X249833Y406945D01*
X249712Y406875D01*
X249593Y406802D01*
X249476Y406725D01*
X249362Y406645D01*
X249249Y406562D01*
X249139Y406476D01*
X249032Y406386D01*
X248927Y406294D01*
X248825Y406199D01*
X248725Y406101D01*
X248628Y406000D01*
X248534Y405896D01*
X248444Y405790D01*
X248356Y405681D01*
X248271Y405570D01*
X248190Y405456D01*
X248111Y405341D01*
X248036Y405223D01*
X247965Y405103D01*
X247897Y404980D01*
X247832Y404857D01*
X247771Y404731D01*
X247713Y404603D01*
X247659Y404475D01*
X247609Y404344D01*
X247562Y404212D01*
X247519Y404079D01*
X247480Y403945D01*
X247445Y403810D01*
X247414Y403674D01*
X247386Y403536D01*
X247363Y403399D01*
X247343Y403260D01*
X247327Y403121D01*
X247315Y402982D01*
X247307Y402843D01*
X247303Y402703D01*
X247303Y402563D01*
X247307Y402423D01*
X247315Y402284D01*
X247327Y402145D01*
X247343Y402006D01*
X247363Y401867D01*
X247386Y401730D01*
X247414Y401592D01*
X247445Y401456D01*
X247480Y401321D01*
X247519Y401187D01*
X247562Y401054D01*
X247609Y400922D01*
X247659Y400791D01*
X247713Y400663D01*
X247771Y400535D01*
X247832Y400409D01*
X247897Y400286D01*
X247965Y400164D01*
X248036Y400043D01*
X248111Y399925D01*
X248190Y399810D01*
X248271Y399696D01*
X248356Y399585D01*
X248444Y399476D01*
X248534Y399370D01*
X248628Y399266D01*
X248725Y399165D01*
X248825Y399067D01*
X248927Y398972D01*
X249032Y398880D01*
X249139Y398790D01*
X249249Y398704D01*
X249362Y398621D01*
X249476Y398541D01*
X249593Y398464D01*
X249712Y398391D01*
X249833Y398321D01*
X249956Y398255D01*
X250081Y398192D01*
X250208Y398132D01*
X250336Y398077D01*
X250465Y398025D01*
X250597Y397976D01*
X250729Y397931D01*
X250863Y397890D01*
X250997Y397853D01*
X251133Y397820D01*
X251270Y397791D01*
X251407Y397765D01*
X251545Y397743D01*
X251684Y397726D01*
X251823Y397712D01*
X251963Y397702D01*
X252102Y397696D01*
X252242Y397694D01*
X257180Y397694D01*
X241185Y393743D02*
X237234Y407572D01*
X241185Y393743D02*
X231308Y393743D01*
X234271Y397694D02*
X234271Y389792D01*
X358247Y458021D02*
X358247Y475801D01*
X353309Y475801D01*
X353169Y475799D01*
X353030Y475793D01*
X352890Y475783D01*
X352751Y475769D01*
X352612Y475752D01*
X352474Y475730D01*
X352337Y475704D01*
X352200Y475675D01*
X352064Y475642D01*
X351930Y475605D01*
X351796Y475564D01*
X351664Y475519D01*
X351532Y475470D01*
X351403Y475418D01*
X351275Y475363D01*
X351148Y475303D01*
X351023Y475240D01*
X350900Y475174D01*
X350779Y475104D01*
X350660Y475031D01*
X350543Y474954D01*
X350429Y474874D01*
X350316Y474791D01*
X350206Y474705D01*
X350099Y474615D01*
X349994Y474523D01*
X349892Y474428D01*
X349792Y474330D01*
X349695Y474229D01*
X349601Y474125D01*
X349511Y474019D01*
X349423Y473910D01*
X349338Y473799D01*
X349257Y473685D01*
X349178Y473570D01*
X349103Y473452D01*
X349032Y473332D01*
X348964Y473209D01*
X348899Y473086D01*
X348838Y472960D01*
X348780Y472832D01*
X348726Y472704D01*
X348676Y472573D01*
X348629Y472441D01*
X348586Y472308D01*
X348547Y472174D01*
X348512Y472039D01*
X348481Y471903D01*
X348453Y471765D01*
X348430Y471628D01*
X348410Y471489D01*
X348394Y471350D01*
X348382Y471211D01*
X348374Y471072D01*
X348370Y470932D01*
X348370Y470792D01*
X348374Y470652D01*
X348382Y470513D01*
X348394Y470374D01*
X348410Y470235D01*
X348430Y470096D01*
X348453Y469959D01*
X348481Y469821D01*
X348512Y469685D01*
X348547Y469550D01*
X348586Y469416D01*
X348629Y469283D01*
X348676Y469151D01*
X348726Y469020D01*
X348780Y468892D01*
X348838Y468764D01*
X348899Y468638D01*
X348964Y468515D01*
X349032Y468393D01*
X349103Y468272D01*
X349178Y468154D01*
X349257Y468039D01*
X349338Y467925D01*
X349423Y467814D01*
X349511Y467705D01*
X349601Y467599D01*
X349695Y467495D01*
X349792Y467394D01*
X349892Y467296D01*
X349994Y467201D01*
X350099Y467109D01*
X350206Y467019D01*
X350316Y466933D01*
X350429Y466850D01*
X350543Y466770D01*
X350660Y466693D01*
X350779Y466620D01*
X350900Y466550D01*
X351023Y466484D01*
X351148Y466421D01*
X351275Y466361D01*
X351403Y466306D01*
X351532Y466254D01*
X351664Y466205D01*
X351796Y466160D01*
X351930Y466119D01*
X352064Y466082D01*
X352200Y466049D01*
X352337Y466020D01*
X352474Y465994D01*
X352612Y465972D01*
X352751Y465955D01*
X352890Y465941D01*
X353030Y465931D01*
X353169Y465925D01*
X353309Y465923D01*
X358247Y465923D01*
X342252Y458021D02*
X336326Y458021D01*
X336202Y458023D01*
X336078Y458029D01*
X335954Y458039D01*
X335831Y458052D01*
X335708Y458070D01*
X335586Y458091D01*
X335464Y458116D01*
X335343Y458145D01*
X335224Y458178D01*
X335105Y458214D01*
X334988Y458255D01*
X334872Y458298D01*
X334757Y458346D01*
X334644Y458397D01*
X334532Y458452D01*
X334423Y458510D01*
X334315Y458571D01*
X334209Y458636D01*
X334105Y458704D01*
X334004Y458776D01*
X333904Y458850D01*
X333808Y458928D01*
X333713Y459008D01*
X333621Y459092D01*
X333532Y459178D01*
X333446Y459267D01*
X333362Y459359D01*
X333282Y459454D01*
X333204Y459550D01*
X333130Y459650D01*
X333058Y459751D01*
X332990Y459855D01*
X332925Y459961D01*
X332864Y460069D01*
X332806Y460178D01*
X332751Y460290D01*
X332700Y460403D01*
X332652Y460518D01*
X332609Y460634D01*
X332568Y460751D01*
X332532Y460870D01*
X332499Y460989D01*
X332470Y461110D01*
X332445Y461232D01*
X332424Y461354D01*
X332406Y461477D01*
X332393Y461600D01*
X332383Y461724D01*
X332377Y461848D01*
X332375Y461972D01*
X332375Y463948D01*
X332377Y464072D01*
X332383Y464196D01*
X332393Y464320D01*
X332406Y464443D01*
X332424Y464566D01*
X332445Y464688D01*
X332470Y464810D01*
X332499Y464931D01*
X332532Y465050D01*
X332568Y465169D01*
X332609Y465286D01*
X332652Y465402D01*
X332700Y465517D01*
X332751Y465630D01*
X332806Y465742D01*
X332864Y465851D01*
X332925Y465959D01*
X332990Y466065D01*
X333058Y466169D01*
X333130Y466270D01*
X333204Y466370D01*
X333282Y466466D01*
X333362Y466561D01*
X333446Y466653D01*
X333532Y466742D01*
X333621Y466828D01*
X333713Y466912D01*
X333808Y466992D01*
X333904Y467070D01*
X334004Y467144D01*
X334105Y467216D01*
X334209Y467284D01*
X334315Y467349D01*
X334423Y467410D01*
X334532Y467468D01*
X334644Y467523D01*
X334757Y467574D01*
X334872Y467622D01*
X334988Y467665D01*
X335105Y467706D01*
X335224Y467742D01*
X335343Y467775D01*
X335464Y467804D01*
X335586Y467829D01*
X335708Y467850D01*
X335831Y467868D01*
X335954Y467881D01*
X336078Y467891D01*
X336202Y467897D01*
X336326Y467899D01*
X342252Y467899D01*
X342252Y475801D01*
X332375Y475801D01*
D12*
X324158Y248808D02*
X324158Y233314D01*
X324158Y241922D02*
X315550Y241922D01*
X315550Y248808D02*
X315550Y233314D01*
X308797Y245365D02*
X304493Y248808D01*
X304493Y233314D01*
X308797Y233314D02*
X300189Y233314D01*
X294792Y233314D02*
X289627Y248808D01*
X284462Y233314D01*
X285753Y237188D02*
X293500Y237188D01*
X278484Y233314D02*
X278484Y248808D01*
X274180Y248808D01*
X274050Y248806D01*
X273920Y248800D01*
X273790Y248790D01*
X273661Y248777D01*
X273532Y248759D01*
X273404Y248738D01*
X273277Y248712D01*
X273150Y248683D01*
X273024Y248650D01*
X272900Y248613D01*
X272776Y248573D01*
X272654Y248528D01*
X272533Y248480D01*
X272414Y248429D01*
X272296Y248374D01*
X272180Y248315D01*
X272066Y248253D01*
X271953Y248187D01*
X271843Y248118D01*
X271735Y248046D01*
X271629Y247971D01*
X271526Y247892D01*
X271425Y247810D01*
X271326Y247726D01*
X271230Y247638D01*
X271137Y247547D01*
X271046Y247454D01*
X270958Y247358D01*
X270874Y247259D01*
X270792Y247158D01*
X270713Y247055D01*
X270638Y246949D01*
X270566Y246841D01*
X270497Y246731D01*
X270431Y246618D01*
X270369Y246504D01*
X270310Y246388D01*
X270255Y246270D01*
X270204Y246151D01*
X270156Y246030D01*
X270111Y245908D01*
X270071Y245784D01*
X270034Y245660D01*
X270001Y245534D01*
X269972Y245407D01*
X269946Y245280D01*
X269925Y245152D01*
X269907Y245023D01*
X269894Y244894D01*
X269884Y244764D01*
X269878Y244634D01*
X269876Y244504D01*
X269878Y244374D01*
X269884Y244244D01*
X269894Y244114D01*
X269907Y243985D01*
X269925Y243856D01*
X269946Y243728D01*
X269972Y243601D01*
X270001Y243474D01*
X270034Y243348D01*
X270071Y243224D01*
X270111Y243100D01*
X270156Y242978D01*
X270204Y242857D01*
X270255Y242738D01*
X270310Y242620D01*
X270369Y242504D01*
X270431Y242390D01*
X270497Y242277D01*
X270566Y242167D01*
X270638Y242059D01*
X270713Y241953D01*
X270792Y241850D01*
X270874Y241749D01*
X270958Y241650D01*
X271046Y241554D01*
X271137Y241461D01*
X271230Y241370D01*
X271326Y241282D01*
X271425Y241198D01*
X271526Y241116D01*
X271629Y241037D01*
X271735Y240962D01*
X271843Y240890D01*
X271953Y240821D01*
X272066Y240755D01*
X272180Y240693D01*
X272296Y240634D01*
X272414Y240579D01*
X272533Y240528D01*
X272654Y240480D01*
X272776Y240435D01*
X272900Y240395D01*
X273024Y240358D01*
X273150Y240325D01*
X273277Y240296D01*
X273404Y240270D01*
X273532Y240249D01*
X273661Y240231D01*
X273790Y240218D01*
X273920Y240208D01*
X274050Y240202D01*
X274180Y240200D01*
X278484Y240200D01*
X273319Y240200D02*
X269876Y233314D01*
X255095Y244935D02*
X255097Y245057D01*
X255103Y245178D01*
X255112Y245300D01*
X255126Y245421D01*
X255143Y245541D01*
X255164Y245661D01*
X255188Y245780D01*
X255217Y245898D01*
X255249Y246016D01*
X255285Y246132D01*
X255324Y246247D01*
X255367Y246361D01*
X255414Y246474D01*
X255464Y246584D01*
X255517Y246694D01*
X255574Y246801D01*
X255634Y246907D01*
X255698Y247011D01*
X255765Y247113D01*
X255835Y247212D01*
X255908Y247309D01*
X255984Y247404D01*
X256063Y247497D01*
X256145Y247587D01*
X256230Y247674D01*
X256317Y247759D01*
X256407Y247841D01*
X256500Y247920D01*
X256595Y247996D01*
X256692Y248069D01*
X256791Y248139D01*
X256893Y248206D01*
X256997Y248270D01*
X257103Y248330D01*
X257210Y248387D01*
X257320Y248440D01*
X257430Y248490D01*
X257543Y248537D01*
X257657Y248580D01*
X257772Y248619D01*
X257888Y248655D01*
X258006Y248687D01*
X258124Y248716D01*
X258243Y248740D01*
X258363Y248761D01*
X258483Y248778D01*
X258604Y248792D01*
X258726Y248801D01*
X258847Y248807D01*
X258969Y248809D01*
X258969Y248808D02*
X259108Y248806D01*
X259247Y248800D01*
X259386Y248791D01*
X259524Y248777D01*
X259662Y248759D01*
X259799Y248738D01*
X259936Y248713D01*
X260072Y248684D01*
X260207Y248651D01*
X260342Y248615D01*
X260475Y248575D01*
X260607Y248531D01*
X260737Y248483D01*
X260867Y248432D01*
X260994Y248377D01*
X261121Y248319D01*
X261245Y248257D01*
X261368Y248192D01*
X261489Y248123D01*
X261608Y248051D01*
X261725Y247975D01*
X261839Y247897D01*
X261952Y247815D01*
X262062Y247730D01*
X262170Y247642D01*
X262275Y247551D01*
X262377Y247457D01*
X262477Y247361D01*
X262575Y247261D01*
X262669Y247159D01*
X262761Y247055D01*
X262849Y246947D01*
X262935Y246838D01*
X263017Y246726D01*
X263096Y246611D01*
X263172Y246495D01*
X263245Y246377D01*
X263315Y246256D01*
X263381Y246134D01*
X263443Y246009D01*
X263502Y245884D01*
X263558Y245756D01*
X263610Y245627D01*
X263658Y245497D01*
X263703Y245365D01*
X256386Y241922D02*
X256297Y242009D01*
X256211Y242099D01*
X256127Y242192D01*
X256046Y242287D01*
X255968Y242384D01*
X255893Y242484D01*
X255821Y242586D01*
X255752Y242690D01*
X255687Y242796D01*
X255624Y242904D01*
X255565Y243014D01*
X255509Y243126D01*
X255456Y243239D01*
X255407Y243353D01*
X255362Y243470D01*
X255319Y243587D01*
X255281Y243706D01*
X255246Y243825D01*
X255214Y243946D01*
X255186Y244068D01*
X255162Y244190D01*
X255142Y244313D01*
X255125Y244437D01*
X255112Y244561D01*
X255102Y244686D01*
X255097Y244810D01*
X255095Y244935D01*
X256387Y241922D02*
X263704Y233314D01*
X255096Y233314D01*
X248838Y241061D02*
X248834Y241366D01*
X248823Y241670D01*
X248805Y241975D01*
X248780Y242278D01*
X248747Y242581D01*
X248707Y242884D01*
X248660Y243185D01*
X248606Y243485D01*
X248544Y243783D01*
X248476Y244080D01*
X248400Y244376D01*
X248318Y244669D01*
X248228Y244960D01*
X248131Y245249D01*
X248028Y245536D01*
X247918Y245820D01*
X247801Y246102D01*
X247677Y246380D01*
X247547Y246656D01*
X247509Y246759D01*
X247469Y246861D01*
X247424Y246961D01*
X247376Y247060D01*
X247325Y247157D01*
X247271Y247252D01*
X247213Y247346D01*
X247152Y247437D01*
X247088Y247526D01*
X247021Y247613D01*
X246951Y247697D01*
X246878Y247779D01*
X246802Y247859D01*
X246724Y247936D01*
X246643Y248010D01*
X246559Y248081D01*
X246473Y248149D01*
X246385Y248215D01*
X246295Y248277D01*
X246202Y248336D01*
X246108Y248392D01*
X246012Y248445D01*
X245914Y248494D01*
X245814Y248540D01*
X245713Y248582D01*
X245610Y248621D01*
X245506Y248656D01*
X245401Y248688D01*
X245295Y248716D01*
X245188Y248740D01*
X245080Y248761D01*
X244972Y248778D01*
X244863Y248791D01*
X244753Y248800D01*
X244644Y248806D01*
X244534Y248808D01*
X244424Y248806D01*
X244315Y248800D01*
X244205Y248791D01*
X244096Y248778D01*
X243988Y248761D01*
X243880Y248740D01*
X243773Y248716D01*
X243667Y248688D01*
X243562Y248656D01*
X243458Y248621D01*
X243355Y248582D01*
X243254Y248540D01*
X243154Y248494D01*
X243056Y248445D01*
X242960Y248392D01*
X242866Y248336D01*
X242773Y248277D01*
X242683Y248215D01*
X242595Y248149D01*
X242509Y248081D01*
X242425Y248010D01*
X242344Y247936D01*
X242266Y247859D01*
X242190Y247780D01*
X242117Y247697D01*
X242047Y247613D01*
X241980Y247526D01*
X241916Y247437D01*
X241855Y247346D01*
X241797Y247252D01*
X241743Y247157D01*
X241692Y247060D01*
X241644Y246961D01*
X241599Y246861D01*
X241559Y246759D01*
X241521Y246656D01*
X241391Y246380D01*
X241267Y246102D01*
X241150Y245820D01*
X241040Y245536D01*
X240937Y245249D01*
X240840Y244960D01*
X240750Y244669D01*
X240668Y244376D01*
X240592Y244080D01*
X240524Y243783D01*
X240462Y243485D01*
X240408Y243185D01*
X240361Y242884D01*
X240321Y242581D01*
X240288Y242278D01*
X240263Y241975D01*
X240245Y241670D01*
X240234Y241366D01*
X240230Y241061D01*
X248838Y241061D02*
X248834Y240756D01*
X248823Y240452D01*
X248805Y240147D01*
X248780Y239844D01*
X248747Y239541D01*
X248707Y239238D01*
X248660Y238937D01*
X248606Y238637D01*
X248544Y238339D01*
X248476Y238042D01*
X248400Y237746D01*
X248318Y237453D01*
X248228Y237162D01*
X248131Y236873D01*
X248028Y236586D01*
X247918Y236302D01*
X247801Y236020D01*
X247677Y235742D01*
X247547Y235466D01*
X247509Y235363D01*
X247469Y235261D01*
X247424Y235161D01*
X247376Y235062D01*
X247325Y234965D01*
X247271Y234870D01*
X247213Y234776D01*
X247152Y234685D01*
X247088Y234596D01*
X247021Y234509D01*
X246951Y234425D01*
X246878Y234342D01*
X246802Y234263D01*
X246724Y234186D01*
X246643Y234112D01*
X246559Y234041D01*
X246473Y233973D01*
X246385Y233907D01*
X246295Y233845D01*
X246202Y233786D01*
X246108Y233730D01*
X246012Y233677D01*
X245914Y233628D01*
X245814Y233582D01*
X245713Y233540D01*
X245610Y233501D01*
X245506Y233466D01*
X245401Y233434D01*
X245295Y233406D01*
X245188Y233382D01*
X245080Y233361D01*
X244972Y233344D01*
X244863Y233331D01*
X244753Y233322D01*
X244644Y233316D01*
X244534Y233314D01*
X241521Y235466D02*
X241391Y235742D01*
X241267Y236020D01*
X241150Y236302D01*
X241040Y236586D01*
X240937Y236873D01*
X240840Y237162D01*
X240750Y237453D01*
X240668Y237746D01*
X240592Y238042D01*
X240524Y238339D01*
X240462Y238637D01*
X240408Y238937D01*
X240361Y239238D01*
X240321Y239541D01*
X240288Y239844D01*
X240263Y240147D01*
X240245Y240452D01*
X240234Y240756D01*
X240230Y241061D01*
X241521Y235466D02*
X241559Y235363D01*
X241599Y235261D01*
X241644Y235161D01*
X241692Y235062D01*
X241743Y234965D01*
X241797Y234870D01*
X241855Y234776D01*
X241916Y234685D01*
X241980Y234596D01*
X242047Y234509D01*
X242117Y234424D01*
X242190Y234342D01*
X242266Y234263D01*
X242344Y234186D01*
X242425Y234112D01*
X242509Y234041D01*
X242595Y233973D01*
X242683Y233907D01*
X242773Y233845D01*
X242866Y233786D01*
X242960Y233730D01*
X243056Y233677D01*
X243155Y233628D01*
X243254Y233582D01*
X243355Y233540D01*
X243458Y233501D01*
X243562Y233466D01*
X243667Y233434D01*
X243773Y233406D01*
X243880Y233382D01*
X243988Y233361D01*
X244096Y233344D01*
X244205Y233331D01*
X244315Y233322D01*
X244424Y233316D01*
X244534Y233314D01*
X247977Y236757D02*
X241091Y245365D01*
D13*
X473851Y385931D02*
X475940Y385931D01*
X476029Y385933D01*
X476117Y385939D01*
X476205Y385948D01*
X476293Y385961D01*
X476380Y385978D01*
X476466Y385998D01*
X476551Y386023D01*
X476636Y386050D01*
X476719Y386082D01*
X476800Y386116D01*
X476880Y386155D01*
X476958Y386196D01*
X477035Y386241D01*
X477109Y386289D01*
X477182Y386340D01*
X477252Y386394D01*
X477319Y386452D01*
X477385Y386512D01*
X477447Y386574D01*
X477507Y386640D01*
X477565Y386707D01*
X477619Y386777D01*
X477670Y386850D01*
X477718Y386924D01*
X477763Y387001D01*
X477804Y387079D01*
X477843Y387159D01*
X477877Y387240D01*
X477909Y387323D01*
X477936Y387408D01*
X477961Y387493D01*
X477981Y387579D01*
X477998Y387666D01*
X478011Y387754D01*
X478020Y387842D01*
X478026Y387930D01*
X478028Y388019D01*
X478028Y393240D01*
X478026Y393329D01*
X478020Y393417D01*
X478011Y393505D01*
X477998Y393593D01*
X477981Y393680D01*
X477961Y393766D01*
X477936Y393851D01*
X477909Y393936D01*
X477877Y394019D01*
X477843Y394100D01*
X477804Y394180D01*
X477763Y394258D01*
X477718Y394335D01*
X477670Y394409D01*
X477619Y394482D01*
X477565Y394552D01*
X477507Y394619D01*
X477447Y394685D01*
X477385Y394747D01*
X477319Y394807D01*
X477252Y394865D01*
X477182Y394919D01*
X477109Y394970D01*
X477035Y395018D01*
X476958Y395063D01*
X476880Y395104D01*
X476800Y395143D01*
X476719Y395177D01*
X476636Y395209D01*
X476551Y395236D01*
X476466Y395261D01*
X476380Y395281D01*
X476293Y395298D01*
X476205Y395311D01*
X476117Y395320D01*
X476029Y395326D01*
X475940Y395328D01*
X475940Y395329D02*
X473851Y395329D01*
X470382Y393240D02*
X467772Y395329D01*
X467772Y385931D01*
X470382Y385931D02*
X465161Y385931D01*
D10*
X430336Y355601D02*
X410207Y355601D01*
D13*
X422992Y342945D02*
X425080Y342945D01*
X425169Y342947D01*
X425257Y342953D01*
X425345Y342962D01*
X425433Y342975D01*
X425520Y342992D01*
X425606Y343012D01*
X425691Y343037D01*
X425776Y343064D01*
X425859Y343096D01*
X425940Y343130D01*
X426020Y343169D01*
X426098Y343210D01*
X426175Y343255D01*
X426249Y343303D01*
X426322Y343354D01*
X426392Y343408D01*
X426459Y343466D01*
X426525Y343526D01*
X426587Y343588D01*
X426647Y343654D01*
X426705Y343721D01*
X426759Y343791D01*
X426810Y343864D01*
X426858Y343938D01*
X426903Y344015D01*
X426944Y344093D01*
X426983Y344173D01*
X427017Y344254D01*
X427049Y344337D01*
X427076Y344422D01*
X427101Y344507D01*
X427121Y344593D01*
X427138Y344680D01*
X427151Y344768D01*
X427160Y344856D01*
X427166Y344944D01*
X427168Y345033D01*
X427169Y345033D02*
X427169Y350254D01*
X427168Y350254D02*
X427166Y350343D01*
X427160Y350431D01*
X427151Y350519D01*
X427138Y350607D01*
X427121Y350694D01*
X427101Y350780D01*
X427076Y350865D01*
X427049Y350950D01*
X427017Y351033D01*
X426983Y351114D01*
X426944Y351194D01*
X426903Y351272D01*
X426858Y351349D01*
X426810Y351423D01*
X426759Y351496D01*
X426705Y351566D01*
X426647Y351633D01*
X426587Y351699D01*
X426525Y351761D01*
X426459Y351821D01*
X426392Y351879D01*
X426322Y351933D01*
X426249Y351984D01*
X426175Y352032D01*
X426098Y352077D01*
X426020Y352118D01*
X425940Y352157D01*
X425859Y352191D01*
X425776Y352223D01*
X425691Y352250D01*
X425606Y352275D01*
X425520Y352295D01*
X425433Y352312D01*
X425345Y352325D01*
X425257Y352334D01*
X425169Y352340D01*
X425080Y352342D01*
X425080Y352343D02*
X422992Y352343D01*
X416651Y352343D02*
X416556Y352341D01*
X416462Y352335D01*
X416368Y352326D01*
X416274Y352313D01*
X416181Y352296D01*
X416089Y352275D01*
X415997Y352250D01*
X415907Y352222D01*
X415818Y352190D01*
X415730Y352155D01*
X415644Y352116D01*
X415559Y352074D01*
X415476Y352028D01*
X415395Y351979D01*
X415316Y351927D01*
X415239Y351872D01*
X415165Y351813D01*
X415093Y351752D01*
X415023Y351688D01*
X414956Y351621D01*
X414892Y351551D01*
X414831Y351479D01*
X414772Y351405D01*
X414717Y351328D01*
X414665Y351249D01*
X414616Y351168D01*
X414570Y351085D01*
X414528Y351000D01*
X414489Y350914D01*
X414454Y350826D01*
X414422Y350737D01*
X414394Y350647D01*
X414369Y350555D01*
X414348Y350463D01*
X414331Y350370D01*
X414318Y350276D01*
X414309Y350182D01*
X414303Y350088D01*
X414301Y349993D01*
X416651Y352343D02*
X416759Y352341D01*
X416868Y352335D01*
X416976Y352325D01*
X417083Y352312D01*
X417190Y352294D01*
X417297Y352273D01*
X417402Y352248D01*
X417507Y352219D01*
X417610Y352187D01*
X417712Y352150D01*
X417813Y352110D01*
X417912Y352067D01*
X418010Y352020D01*
X418106Y351969D01*
X418200Y351915D01*
X418292Y351858D01*
X418382Y351797D01*
X418470Y351733D01*
X418555Y351667D01*
X418638Y351597D01*
X418718Y351524D01*
X418796Y351448D01*
X418871Y351370D01*
X418943Y351289D01*
X419012Y351205D01*
X419078Y351119D01*
X419141Y351031D01*
X419200Y350940D01*
X419257Y350848D01*
X419310Y350753D01*
X419359Y350656D01*
X419405Y350558D01*
X419448Y350459D01*
X419487Y350357D01*
X419522Y350255D01*
X415084Y348165D02*
X415015Y348234D01*
X414949Y348305D01*
X414885Y348378D01*
X414824Y348454D01*
X414766Y348533D01*
X414712Y348613D01*
X414660Y348696D01*
X414612Y348780D01*
X414566Y348866D01*
X414525Y348954D01*
X414486Y349044D01*
X414451Y349135D01*
X414420Y349227D01*
X414392Y349320D01*
X414368Y349414D01*
X414348Y349509D01*
X414331Y349605D01*
X414318Y349702D01*
X414309Y349799D01*
X414303Y349896D01*
X414301Y349993D01*
X415085Y348166D02*
X419523Y342945D01*
X414302Y342945D01*
D12*
X371029Y438889D02*
X366029Y443889D01*
X301029Y373899D02*
X301029Y373889D01*
X375799Y436539D02*
X375801Y436628D01*
X375807Y436717D01*
X375817Y436806D01*
X375831Y436894D01*
X375848Y436981D01*
X375870Y437067D01*
X375896Y437153D01*
X375925Y437237D01*
X375958Y437320D01*
X375994Y437401D01*
X376035Y437481D01*
X376078Y437558D01*
X376125Y437634D01*
X376176Y437707D01*
X376229Y437778D01*
X376286Y437847D01*
X376346Y437913D01*
X376409Y437977D01*
X376474Y438037D01*
X376542Y438095D01*
X376613Y438149D01*
X376686Y438200D01*
X376761Y438248D01*
X376838Y438293D01*
X376917Y438334D01*
X376998Y438371D01*
X377080Y438405D01*
X377164Y438436D01*
X377249Y438462D01*
X377335Y438485D01*
X377422Y438503D01*
X377510Y438518D01*
X377599Y438529D01*
X377688Y438536D01*
X377777Y438539D01*
X377866Y438538D01*
X377955Y438533D01*
X378043Y438524D01*
X378132Y438511D01*
X378219Y438494D01*
X378306Y438474D01*
X378392Y438449D01*
X378476Y438421D01*
X378559Y438389D01*
X378641Y438353D01*
X378721Y438314D01*
X378799Y438271D01*
X378875Y438225D01*
X378949Y438175D01*
X379021Y438122D01*
X379090Y438066D01*
X379157Y438007D01*
X379221Y437945D01*
X379282Y437881D01*
X379341Y437813D01*
X379396Y437743D01*
X379448Y437671D01*
X379497Y437596D01*
X379542Y437520D01*
X379584Y437441D01*
X379622Y437361D01*
X379657Y437279D01*
X379688Y437195D01*
X379716Y437110D01*
X379739Y437024D01*
X379759Y436937D01*
X379775Y436850D01*
X379787Y436761D01*
X379795Y436673D01*
X379799Y436584D01*
X379799Y436494D01*
X379795Y436405D01*
X379787Y436317D01*
X379775Y436228D01*
X379759Y436141D01*
X379739Y436054D01*
X379716Y435968D01*
X379688Y435883D01*
X379657Y435799D01*
X379622Y435717D01*
X379584Y435637D01*
X379542Y435558D01*
X379497Y435482D01*
X379448Y435407D01*
X379396Y435335D01*
X379341Y435265D01*
X379282Y435197D01*
X379221Y435133D01*
X379157Y435071D01*
X379090Y435012D01*
X379021Y434956D01*
X378949Y434903D01*
X378875Y434853D01*
X378799Y434807D01*
X378721Y434764D01*
X378641Y434725D01*
X378559Y434689D01*
X378476Y434657D01*
X378392Y434629D01*
X378306Y434604D01*
X378219Y434584D01*
X378132Y434567D01*
X378043Y434554D01*
X377955Y434545D01*
X377866Y434540D01*
X377777Y434539D01*
X377688Y434542D01*
X377599Y434549D01*
X377510Y434560D01*
X377422Y434575D01*
X377335Y434593D01*
X377249Y434616D01*
X377164Y434642D01*
X377080Y434673D01*
X376998Y434707D01*
X376917Y434744D01*
X376838Y434785D01*
X376761Y434830D01*
X376686Y434878D01*
X376613Y434929D01*
X376542Y434983D01*
X376474Y435041D01*
X376409Y435101D01*
X376346Y435165D01*
X376286Y435231D01*
X376229Y435300D01*
X376176Y435371D01*
X376125Y435444D01*
X376078Y435520D01*
X376035Y435597D01*
X375994Y435677D01*
X375958Y435758D01*
X375925Y435841D01*
X375896Y435925D01*
X375870Y436011D01*
X375848Y436097D01*
X375831Y436184D01*
X375817Y436272D01*
X375807Y436361D01*
X375801Y436450D01*
X375799Y436539D01*
X301069Y443899D02*
X301069Y443909D01*
X305769Y443909D01*
X305729Y373899D02*
X301029Y373899D01*
X301069Y439209D02*
X301069Y443899D01*
X301019Y378589D02*
X301019Y373889D01*
X366349Y373889D02*
X371049Y373889D01*
X371049Y373879D02*
X371049Y378579D01*
D13*
X316294Y452711D02*
X316294Y459498D01*
X316295Y452711D02*
X316293Y452610D01*
X316287Y452509D01*
X316277Y452408D01*
X316264Y452308D01*
X316246Y452208D01*
X316225Y452109D01*
X316199Y452011D01*
X316170Y451914D01*
X316138Y451818D01*
X316101Y451724D01*
X316061Y451631D01*
X316017Y451539D01*
X315970Y451450D01*
X315919Y451362D01*
X315865Y451276D01*
X315808Y451193D01*
X315748Y451111D01*
X315684Y451033D01*
X315618Y450956D01*
X315548Y450883D01*
X315476Y450812D01*
X315401Y450744D01*
X315323Y450679D01*
X315243Y450617D01*
X315161Y450558D01*
X315076Y450502D01*
X314989Y450450D01*
X314901Y450401D01*
X314810Y450355D01*
X314718Y450314D01*
X314624Y450275D01*
X314529Y450241D01*
X314433Y450210D01*
X314335Y450183D01*
X314237Y450159D01*
X314137Y450140D01*
X314037Y450124D01*
X313937Y450112D01*
X313836Y450104D01*
X313735Y450100D01*
X313633Y450100D01*
X313532Y450104D01*
X313431Y450112D01*
X313331Y450124D01*
X313231Y450140D01*
X313131Y450159D01*
X313033Y450183D01*
X312935Y450210D01*
X312839Y450241D01*
X312744Y450275D01*
X312650Y450314D01*
X312558Y450355D01*
X312467Y450401D01*
X312379Y450450D01*
X312292Y450502D01*
X312207Y450558D01*
X312125Y450617D01*
X312045Y450679D01*
X311967Y450744D01*
X311892Y450812D01*
X311820Y450883D01*
X311750Y450956D01*
X311684Y451033D01*
X311620Y451111D01*
X311560Y451193D01*
X311503Y451276D01*
X311449Y451362D01*
X311398Y451450D01*
X311351Y451539D01*
X311307Y451631D01*
X311267Y451724D01*
X311230Y451818D01*
X311198Y451914D01*
X311169Y452011D01*
X311143Y452109D01*
X311122Y452208D01*
X311104Y452308D01*
X311091Y452408D01*
X311081Y452509D01*
X311075Y452610D01*
X311073Y452711D01*
X311073Y459498D01*
X306845Y457410D02*
X304235Y459498D01*
X304235Y450100D01*
X306845Y450100D02*
X301624Y450100D01*
D14*
X391813Y402938D02*
X427373Y402938D01*
X427373Y423258D01*
X391813Y423258D01*
X391813Y402938D01*
D13*
X438908Y424960D02*
X445173Y415562D01*
X438908Y415562D02*
X445173Y424960D01*
X435507Y422871D02*
X432896Y424960D01*
X432896Y415562D01*
X430286Y415562D02*
X435507Y415562D01*
D10*
X279258Y431086D02*
X259128Y431086D01*
D13*
X270442Y419029D02*
X272530Y419029D01*
X272619Y419031D01*
X272707Y419037D01*
X272795Y419046D01*
X272883Y419059D01*
X272970Y419076D01*
X273056Y419096D01*
X273141Y419121D01*
X273226Y419148D01*
X273309Y419180D01*
X273390Y419214D01*
X273470Y419253D01*
X273548Y419294D01*
X273625Y419339D01*
X273699Y419387D01*
X273772Y419438D01*
X273842Y419492D01*
X273909Y419550D01*
X273975Y419610D01*
X274037Y419672D01*
X274097Y419738D01*
X274155Y419805D01*
X274209Y419875D01*
X274260Y419948D01*
X274308Y420022D01*
X274353Y420099D01*
X274394Y420177D01*
X274433Y420257D01*
X274467Y420338D01*
X274499Y420421D01*
X274526Y420506D01*
X274551Y420591D01*
X274571Y420677D01*
X274588Y420764D01*
X274601Y420852D01*
X274610Y420940D01*
X274616Y421028D01*
X274618Y421117D01*
X274619Y421117D02*
X274619Y426338D01*
X274618Y426338D02*
X274616Y426427D01*
X274610Y426515D01*
X274601Y426603D01*
X274588Y426691D01*
X274571Y426778D01*
X274551Y426864D01*
X274526Y426949D01*
X274499Y427034D01*
X274467Y427117D01*
X274433Y427198D01*
X274394Y427278D01*
X274353Y427356D01*
X274308Y427433D01*
X274260Y427507D01*
X274209Y427580D01*
X274155Y427650D01*
X274097Y427717D01*
X274037Y427783D01*
X273975Y427845D01*
X273909Y427905D01*
X273842Y427963D01*
X273772Y428017D01*
X273699Y428068D01*
X273625Y428116D01*
X273548Y428161D01*
X273470Y428202D01*
X273390Y428241D01*
X273309Y428275D01*
X273226Y428307D01*
X273141Y428334D01*
X273056Y428359D01*
X272970Y428379D01*
X272883Y428396D01*
X272795Y428409D01*
X272707Y428418D01*
X272619Y428424D01*
X272530Y428426D01*
X272530Y428427D02*
X270442Y428427D01*
X266973Y419029D02*
X264362Y419029D01*
X264362Y419028D02*
X264261Y419030D01*
X264160Y419036D01*
X264059Y419046D01*
X263959Y419059D01*
X263859Y419077D01*
X263760Y419098D01*
X263662Y419124D01*
X263565Y419153D01*
X263469Y419185D01*
X263375Y419222D01*
X263282Y419262D01*
X263190Y419306D01*
X263101Y419353D01*
X263013Y419404D01*
X262927Y419458D01*
X262844Y419515D01*
X262762Y419575D01*
X262684Y419639D01*
X262607Y419705D01*
X262534Y419775D01*
X262463Y419847D01*
X262395Y419922D01*
X262330Y420000D01*
X262268Y420080D01*
X262209Y420162D01*
X262153Y420247D01*
X262101Y420334D01*
X262052Y420422D01*
X262006Y420513D01*
X261965Y420605D01*
X261926Y420699D01*
X261892Y420794D01*
X261861Y420890D01*
X261834Y420988D01*
X261810Y421086D01*
X261791Y421186D01*
X261775Y421286D01*
X261763Y421386D01*
X261755Y421487D01*
X261751Y421588D01*
X261751Y421690D01*
X261755Y421791D01*
X261763Y421892D01*
X261775Y421992D01*
X261791Y422092D01*
X261810Y422192D01*
X261834Y422290D01*
X261861Y422388D01*
X261892Y422484D01*
X261926Y422579D01*
X261965Y422673D01*
X262006Y422765D01*
X262052Y422856D01*
X262101Y422945D01*
X262153Y423031D01*
X262209Y423116D01*
X262268Y423198D01*
X262330Y423278D01*
X262395Y423356D01*
X262463Y423431D01*
X262534Y423503D01*
X262607Y423573D01*
X262684Y423639D01*
X262762Y423703D01*
X262844Y423763D01*
X262927Y423820D01*
X263013Y423874D01*
X263101Y423925D01*
X263190Y423972D01*
X263282Y424016D01*
X263375Y424056D01*
X263469Y424093D01*
X263565Y424125D01*
X263662Y424154D01*
X263760Y424180D01*
X263859Y424201D01*
X263959Y424219D01*
X264059Y424232D01*
X264160Y424242D01*
X264261Y424248D01*
X264362Y424250D01*
X263840Y428427D02*
X266973Y428427D01*
X263840Y428426D02*
X263750Y428424D01*
X263661Y428418D01*
X263571Y428409D01*
X263482Y428395D01*
X263394Y428378D01*
X263307Y428357D01*
X263220Y428332D01*
X263135Y428303D01*
X263051Y428271D01*
X262969Y428236D01*
X262888Y428196D01*
X262809Y428154D01*
X262732Y428108D01*
X262657Y428058D01*
X262584Y428006D01*
X262513Y427950D01*
X262445Y427892D01*
X262380Y427830D01*
X262317Y427766D01*
X262257Y427699D01*
X262200Y427630D01*
X262146Y427558D01*
X262095Y427484D01*
X262047Y427408D01*
X262003Y427330D01*
X261962Y427250D01*
X261924Y427168D01*
X261890Y427085D01*
X261860Y427000D01*
X261833Y426914D01*
X261810Y426828D01*
X261791Y426740D01*
X261776Y426651D01*
X261764Y426562D01*
X261756Y426473D01*
X261752Y426383D01*
X261752Y426293D01*
X261756Y426203D01*
X261764Y426114D01*
X261776Y426025D01*
X261791Y425936D01*
X261810Y425848D01*
X261833Y425762D01*
X261860Y425676D01*
X261890Y425591D01*
X261924Y425508D01*
X261962Y425426D01*
X262003Y425346D01*
X262047Y425268D01*
X262095Y425192D01*
X262146Y425118D01*
X262200Y425046D01*
X262257Y424977D01*
X262317Y424910D01*
X262380Y424846D01*
X262445Y424784D01*
X262513Y424726D01*
X262584Y424670D01*
X262657Y424618D01*
X262732Y424568D01*
X262809Y424522D01*
X262888Y424480D01*
X262969Y424440D01*
X263051Y424405D01*
X263135Y424373D01*
X263220Y424344D01*
X263307Y424319D01*
X263394Y424298D01*
X263482Y424281D01*
X263571Y424267D01*
X263661Y424258D01*
X263750Y424252D01*
X263840Y424250D01*
X265929Y424250D01*
D10*
X274686Y356390D02*
X254556Y356390D01*
D13*
X266500Y343472D02*
X268588Y343472D01*
X268677Y343474D01*
X268765Y343480D01*
X268853Y343489D01*
X268941Y343502D01*
X269028Y343519D01*
X269114Y343539D01*
X269199Y343564D01*
X269284Y343591D01*
X269367Y343623D01*
X269448Y343657D01*
X269528Y343696D01*
X269606Y343737D01*
X269683Y343782D01*
X269757Y343830D01*
X269830Y343881D01*
X269900Y343935D01*
X269967Y343993D01*
X270033Y344053D01*
X270095Y344115D01*
X270155Y344181D01*
X270213Y344248D01*
X270267Y344318D01*
X270318Y344391D01*
X270366Y344465D01*
X270411Y344542D01*
X270452Y344620D01*
X270491Y344700D01*
X270525Y344781D01*
X270557Y344864D01*
X270584Y344949D01*
X270609Y345034D01*
X270629Y345120D01*
X270646Y345207D01*
X270659Y345295D01*
X270668Y345383D01*
X270674Y345471D01*
X270676Y345560D01*
X270676Y350781D01*
X270674Y350870D01*
X270668Y350958D01*
X270659Y351046D01*
X270646Y351134D01*
X270629Y351221D01*
X270609Y351307D01*
X270584Y351392D01*
X270557Y351477D01*
X270525Y351560D01*
X270491Y351641D01*
X270452Y351721D01*
X270411Y351799D01*
X270366Y351876D01*
X270318Y351950D01*
X270267Y352023D01*
X270213Y352093D01*
X270155Y352160D01*
X270095Y352226D01*
X270033Y352288D01*
X269967Y352348D01*
X269900Y352406D01*
X269830Y352460D01*
X269757Y352511D01*
X269683Y352559D01*
X269606Y352604D01*
X269528Y352645D01*
X269448Y352684D01*
X269367Y352718D01*
X269284Y352750D01*
X269199Y352777D01*
X269114Y352802D01*
X269028Y352822D01*
X268941Y352839D01*
X268853Y352852D01*
X268765Y352861D01*
X268677Y352867D01*
X268588Y352869D01*
X268588Y352870D02*
X266500Y352870D01*
X260942Y352870D02*
X263031Y345560D01*
X257810Y345560D01*
X259376Y347648D02*
X259376Y343472D01*
X403908Y353403D02*
X405996Y353403D01*
X406085Y353405D01*
X406173Y353411D01*
X406261Y353420D01*
X406349Y353433D01*
X406436Y353450D01*
X406522Y353470D01*
X406607Y353495D01*
X406692Y353522D01*
X406775Y353554D01*
X406856Y353588D01*
X406936Y353627D01*
X407014Y353668D01*
X407091Y353713D01*
X407165Y353761D01*
X407238Y353812D01*
X407308Y353866D01*
X407375Y353924D01*
X407441Y353984D01*
X407503Y354046D01*
X407563Y354112D01*
X407621Y354179D01*
X407675Y354249D01*
X407726Y354322D01*
X407774Y354396D01*
X407819Y354473D01*
X407860Y354551D01*
X407899Y354631D01*
X407933Y354712D01*
X407965Y354795D01*
X407992Y354880D01*
X408017Y354965D01*
X408037Y355051D01*
X408054Y355138D01*
X408067Y355226D01*
X408076Y355314D01*
X408082Y355402D01*
X408084Y355491D01*
X408085Y355491D02*
X408085Y360712D01*
X408084Y360712D02*
X408082Y360801D01*
X408076Y360889D01*
X408067Y360977D01*
X408054Y361065D01*
X408037Y361152D01*
X408017Y361238D01*
X407992Y361323D01*
X407965Y361408D01*
X407933Y361491D01*
X407899Y361572D01*
X407860Y361652D01*
X407819Y361730D01*
X407774Y361807D01*
X407726Y361881D01*
X407675Y361954D01*
X407621Y362024D01*
X407563Y362091D01*
X407503Y362157D01*
X407441Y362219D01*
X407375Y362279D01*
X407308Y362337D01*
X407238Y362391D01*
X407165Y362442D01*
X407091Y362490D01*
X407014Y362535D01*
X406936Y362576D01*
X406856Y362615D01*
X406775Y362649D01*
X406692Y362681D01*
X406607Y362708D01*
X406522Y362733D01*
X406436Y362753D01*
X406349Y362770D01*
X406261Y362783D01*
X406173Y362792D01*
X406085Y362798D01*
X405996Y362800D01*
X405996Y362801D02*
X403908Y362801D01*
X400439Y353403D02*
X397306Y353403D01*
X397217Y353405D01*
X397129Y353411D01*
X397041Y353420D01*
X396953Y353433D01*
X396866Y353450D01*
X396780Y353470D01*
X396695Y353495D01*
X396610Y353522D01*
X396527Y353554D01*
X396446Y353588D01*
X396366Y353627D01*
X396288Y353668D01*
X396211Y353713D01*
X396137Y353761D01*
X396064Y353812D01*
X395994Y353866D01*
X395927Y353924D01*
X395861Y353984D01*
X395799Y354046D01*
X395739Y354112D01*
X395681Y354179D01*
X395627Y354249D01*
X395576Y354322D01*
X395528Y354396D01*
X395483Y354473D01*
X395442Y354551D01*
X395403Y354631D01*
X395369Y354712D01*
X395337Y354795D01*
X395310Y354880D01*
X395285Y354965D01*
X395265Y355051D01*
X395248Y355138D01*
X395235Y355226D01*
X395226Y355314D01*
X395220Y355402D01*
X395218Y355491D01*
X395218Y356536D01*
X395220Y356625D01*
X395226Y356713D01*
X395235Y356801D01*
X395248Y356889D01*
X395265Y356976D01*
X395285Y357062D01*
X395310Y357147D01*
X395337Y357232D01*
X395369Y357315D01*
X395403Y357396D01*
X395442Y357476D01*
X395483Y357554D01*
X395528Y357631D01*
X395576Y357705D01*
X395627Y357778D01*
X395681Y357848D01*
X395739Y357915D01*
X395799Y357981D01*
X395861Y358043D01*
X395927Y358103D01*
X395994Y358161D01*
X396064Y358215D01*
X396137Y358266D01*
X396211Y358314D01*
X396288Y358359D01*
X396366Y358400D01*
X396446Y358439D01*
X396527Y358473D01*
X396610Y358505D01*
X396695Y358532D01*
X396780Y358557D01*
X396866Y358577D01*
X396953Y358594D01*
X397041Y358607D01*
X397129Y358616D01*
X397217Y358622D01*
X397306Y358624D01*
X400439Y358624D01*
X400439Y362801D01*
X395218Y362801D01*
X293046Y422976D02*
X290958Y422976D01*
X293046Y422976D02*
X293135Y422978D01*
X293223Y422984D01*
X293311Y422993D01*
X293399Y423006D01*
X293486Y423023D01*
X293572Y423043D01*
X293657Y423068D01*
X293742Y423095D01*
X293825Y423127D01*
X293906Y423161D01*
X293986Y423200D01*
X294064Y423241D01*
X294141Y423286D01*
X294215Y423334D01*
X294288Y423385D01*
X294358Y423439D01*
X294425Y423497D01*
X294491Y423557D01*
X294553Y423619D01*
X294613Y423685D01*
X294671Y423752D01*
X294725Y423822D01*
X294776Y423895D01*
X294824Y423969D01*
X294869Y424046D01*
X294910Y424124D01*
X294949Y424204D01*
X294983Y424285D01*
X295015Y424368D01*
X295042Y424453D01*
X295067Y424538D01*
X295087Y424624D01*
X295104Y424711D01*
X295117Y424799D01*
X295126Y424887D01*
X295132Y424975D01*
X295134Y425064D01*
X295134Y430286D01*
X295132Y430375D01*
X295126Y430463D01*
X295117Y430551D01*
X295104Y430639D01*
X295087Y430726D01*
X295067Y430812D01*
X295042Y430897D01*
X295015Y430982D01*
X294983Y431065D01*
X294949Y431146D01*
X294910Y431226D01*
X294869Y431304D01*
X294824Y431381D01*
X294776Y431455D01*
X294725Y431528D01*
X294671Y431598D01*
X294613Y431665D01*
X294553Y431731D01*
X294491Y431793D01*
X294425Y431853D01*
X294358Y431911D01*
X294288Y431965D01*
X294215Y432016D01*
X294141Y432064D01*
X294064Y432109D01*
X293986Y432150D01*
X293906Y432189D01*
X293825Y432223D01*
X293742Y432255D01*
X293657Y432282D01*
X293572Y432307D01*
X293486Y432327D01*
X293399Y432344D01*
X293311Y432357D01*
X293223Y432366D01*
X293135Y432372D01*
X293046Y432374D01*
X290958Y432374D01*
X287489Y428197D02*
X284356Y428197D01*
X284267Y428195D01*
X284179Y428189D01*
X284091Y428180D01*
X284003Y428167D01*
X283916Y428150D01*
X283830Y428130D01*
X283745Y428105D01*
X283660Y428078D01*
X283577Y428046D01*
X283496Y428012D01*
X283416Y427973D01*
X283338Y427932D01*
X283261Y427887D01*
X283187Y427839D01*
X283114Y427788D01*
X283044Y427734D01*
X282977Y427676D01*
X282911Y427616D01*
X282849Y427554D01*
X282789Y427488D01*
X282731Y427421D01*
X282677Y427351D01*
X282626Y427278D01*
X282578Y427204D01*
X282533Y427127D01*
X282492Y427049D01*
X282453Y426969D01*
X282419Y426888D01*
X282387Y426805D01*
X282360Y426720D01*
X282335Y426635D01*
X282315Y426549D01*
X282298Y426462D01*
X282285Y426374D01*
X282276Y426286D01*
X282270Y426198D01*
X282268Y426109D01*
X282268Y425587D01*
X282267Y425587D02*
X282269Y425486D01*
X282275Y425385D01*
X282285Y425284D01*
X282298Y425184D01*
X282316Y425084D01*
X282337Y424985D01*
X282363Y424887D01*
X282392Y424790D01*
X282424Y424694D01*
X282461Y424600D01*
X282501Y424507D01*
X282545Y424415D01*
X282592Y424326D01*
X282643Y424238D01*
X282697Y424152D01*
X282754Y424069D01*
X282814Y423987D01*
X282878Y423909D01*
X282944Y423832D01*
X283014Y423759D01*
X283086Y423688D01*
X283161Y423620D01*
X283239Y423555D01*
X283319Y423493D01*
X283401Y423434D01*
X283486Y423378D01*
X283573Y423326D01*
X283661Y423277D01*
X283752Y423231D01*
X283844Y423190D01*
X283938Y423151D01*
X284033Y423117D01*
X284129Y423086D01*
X284227Y423059D01*
X284325Y423035D01*
X284425Y423016D01*
X284525Y423000D01*
X284625Y422988D01*
X284726Y422980D01*
X284827Y422976D01*
X284929Y422976D01*
X285030Y422980D01*
X285131Y422988D01*
X285231Y423000D01*
X285331Y423016D01*
X285431Y423035D01*
X285529Y423059D01*
X285627Y423086D01*
X285723Y423117D01*
X285818Y423151D01*
X285912Y423190D01*
X286004Y423231D01*
X286095Y423277D01*
X286183Y423326D01*
X286270Y423378D01*
X286355Y423434D01*
X286437Y423493D01*
X286517Y423555D01*
X286595Y423620D01*
X286670Y423688D01*
X286742Y423759D01*
X286812Y423832D01*
X286878Y423909D01*
X286942Y423987D01*
X287002Y424069D01*
X287059Y424152D01*
X287113Y424238D01*
X287164Y424326D01*
X287211Y424415D01*
X287255Y424507D01*
X287295Y424600D01*
X287332Y424694D01*
X287364Y424790D01*
X287393Y424887D01*
X287419Y424985D01*
X287440Y425084D01*
X287458Y425184D01*
X287471Y425284D01*
X287481Y425385D01*
X287487Y425486D01*
X287489Y425587D01*
X287489Y428197D01*
X287487Y428323D01*
X287481Y428449D01*
X287472Y428575D01*
X287459Y428700D01*
X287441Y428825D01*
X287421Y428950D01*
X287396Y429074D01*
X287368Y429197D01*
X287336Y429319D01*
X287300Y429440D01*
X287261Y429560D01*
X287218Y429678D01*
X287171Y429795D01*
X287121Y429911D01*
X287067Y430026D01*
X287011Y430138D01*
X286950Y430249D01*
X286887Y430358D01*
X286820Y430465D01*
X286750Y430570D01*
X286676Y430673D01*
X286600Y430773D01*
X286521Y430871D01*
X286439Y430967D01*
X286353Y431060D01*
X286266Y431151D01*
X286175Y431238D01*
X286082Y431324D01*
X285986Y431406D01*
X285888Y431485D01*
X285788Y431561D01*
X285685Y431635D01*
X285580Y431705D01*
X285473Y431772D01*
X285364Y431835D01*
X285253Y431896D01*
X285141Y431952D01*
X285026Y432006D01*
X284910Y432056D01*
X284793Y432103D01*
X284675Y432146D01*
X284555Y432185D01*
X284434Y432221D01*
X284312Y432253D01*
X284189Y432281D01*
X284065Y432306D01*
X283940Y432326D01*
X283815Y432344D01*
X283690Y432357D01*
X283564Y432366D01*
X283438Y432372D01*
X283312Y432374D01*
X390806Y467726D02*
X392894Y467726D01*
X392983Y467728D01*
X393071Y467734D01*
X393159Y467743D01*
X393247Y467756D01*
X393334Y467773D01*
X393420Y467793D01*
X393505Y467818D01*
X393590Y467845D01*
X393673Y467877D01*
X393754Y467911D01*
X393834Y467950D01*
X393912Y467991D01*
X393989Y468036D01*
X394063Y468084D01*
X394136Y468135D01*
X394206Y468189D01*
X394273Y468247D01*
X394339Y468307D01*
X394401Y468369D01*
X394461Y468435D01*
X394519Y468502D01*
X394573Y468572D01*
X394624Y468645D01*
X394672Y468719D01*
X394717Y468796D01*
X394758Y468874D01*
X394797Y468954D01*
X394831Y469035D01*
X394863Y469118D01*
X394890Y469203D01*
X394915Y469288D01*
X394935Y469374D01*
X394952Y469461D01*
X394965Y469549D01*
X394974Y469637D01*
X394980Y469725D01*
X394982Y469814D01*
X394983Y469814D02*
X394983Y475035D01*
X394982Y475035D02*
X394980Y475124D01*
X394974Y475212D01*
X394965Y475300D01*
X394952Y475388D01*
X394935Y475475D01*
X394915Y475561D01*
X394890Y475646D01*
X394863Y475731D01*
X394831Y475814D01*
X394797Y475895D01*
X394758Y475975D01*
X394717Y476053D01*
X394672Y476130D01*
X394624Y476204D01*
X394573Y476277D01*
X394519Y476347D01*
X394461Y476414D01*
X394401Y476480D01*
X394339Y476542D01*
X394273Y476602D01*
X394206Y476660D01*
X394136Y476714D01*
X394063Y476765D01*
X393989Y476813D01*
X393912Y476858D01*
X393834Y476899D01*
X393754Y476938D01*
X393673Y476972D01*
X393590Y477004D01*
X393505Y477031D01*
X393420Y477056D01*
X393334Y477076D01*
X393247Y477093D01*
X393159Y477106D01*
X393071Y477115D01*
X392983Y477121D01*
X392894Y477123D01*
X392894Y477124D02*
X390806Y477124D01*
X387337Y477124D02*
X387337Y476080D01*
X387337Y477124D02*
X382116Y477124D01*
X384726Y467726D01*
X290808Y352320D02*
X288719Y352320D01*
X290808Y352321D02*
X290897Y352323D01*
X290985Y352329D01*
X291073Y352338D01*
X291161Y352351D01*
X291248Y352368D01*
X291334Y352388D01*
X291419Y352413D01*
X291504Y352440D01*
X291587Y352472D01*
X291668Y352506D01*
X291748Y352545D01*
X291826Y352586D01*
X291903Y352631D01*
X291977Y352679D01*
X292050Y352730D01*
X292120Y352784D01*
X292187Y352842D01*
X292253Y352902D01*
X292315Y352964D01*
X292375Y353030D01*
X292433Y353097D01*
X292487Y353167D01*
X292538Y353240D01*
X292586Y353314D01*
X292631Y353391D01*
X292672Y353469D01*
X292711Y353549D01*
X292745Y353630D01*
X292777Y353713D01*
X292804Y353798D01*
X292829Y353883D01*
X292849Y353969D01*
X292866Y354056D01*
X292879Y354144D01*
X292888Y354232D01*
X292894Y354320D01*
X292896Y354409D01*
X292896Y359630D01*
X292894Y359719D01*
X292888Y359807D01*
X292879Y359895D01*
X292866Y359983D01*
X292849Y360070D01*
X292829Y360156D01*
X292804Y360241D01*
X292777Y360326D01*
X292745Y360409D01*
X292711Y360490D01*
X292672Y360570D01*
X292631Y360648D01*
X292586Y360725D01*
X292538Y360799D01*
X292487Y360872D01*
X292433Y360942D01*
X292375Y361009D01*
X292315Y361075D01*
X292253Y361137D01*
X292187Y361197D01*
X292120Y361255D01*
X292050Y361309D01*
X291977Y361360D01*
X291903Y361408D01*
X291826Y361453D01*
X291748Y361494D01*
X291668Y361533D01*
X291587Y361567D01*
X291504Y361599D01*
X291419Y361626D01*
X291334Y361651D01*
X291248Y361671D01*
X291161Y361688D01*
X291073Y361701D01*
X290985Y361710D01*
X290897Y361716D01*
X290808Y361718D01*
X288719Y361718D01*
X285251Y354931D02*
X285249Y355032D01*
X285243Y355133D01*
X285233Y355234D01*
X285220Y355334D01*
X285202Y355434D01*
X285181Y355533D01*
X285155Y355631D01*
X285126Y355728D01*
X285094Y355824D01*
X285057Y355918D01*
X285017Y356011D01*
X284973Y356103D01*
X284926Y356192D01*
X284875Y356280D01*
X284821Y356366D01*
X284764Y356449D01*
X284704Y356531D01*
X284640Y356609D01*
X284574Y356686D01*
X284504Y356759D01*
X284432Y356830D01*
X284357Y356898D01*
X284279Y356963D01*
X284199Y357025D01*
X284117Y357084D01*
X284032Y357140D01*
X283946Y357192D01*
X283857Y357241D01*
X283766Y357287D01*
X283674Y357328D01*
X283580Y357367D01*
X283485Y357401D01*
X283389Y357432D01*
X283291Y357459D01*
X283193Y357483D01*
X283093Y357502D01*
X282993Y357518D01*
X282893Y357530D01*
X282792Y357538D01*
X282691Y357542D01*
X282589Y357542D01*
X282488Y357538D01*
X282387Y357530D01*
X282287Y357518D01*
X282187Y357502D01*
X282087Y357483D01*
X281989Y357459D01*
X281891Y357432D01*
X281795Y357401D01*
X281700Y357367D01*
X281606Y357328D01*
X281514Y357287D01*
X281423Y357241D01*
X281335Y357192D01*
X281248Y357140D01*
X281163Y357084D01*
X281081Y357025D01*
X281001Y356963D01*
X280923Y356898D01*
X280848Y356830D01*
X280776Y356759D01*
X280706Y356686D01*
X280640Y356609D01*
X280576Y356531D01*
X280516Y356449D01*
X280459Y356366D01*
X280405Y356280D01*
X280354Y356192D01*
X280307Y356103D01*
X280263Y356011D01*
X280223Y355918D01*
X280186Y355824D01*
X280154Y355728D01*
X280125Y355631D01*
X280099Y355533D01*
X280078Y355434D01*
X280060Y355334D01*
X280047Y355234D01*
X280037Y355133D01*
X280031Y355032D01*
X280029Y354931D01*
X280031Y354830D01*
X280037Y354729D01*
X280047Y354628D01*
X280060Y354528D01*
X280078Y354428D01*
X280099Y354329D01*
X280125Y354231D01*
X280154Y354134D01*
X280186Y354038D01*
X280223Y353944D01*
X280263Y353851D01*
X280307Y353759D01*
X280354Y353670D01*
X280405Y353582D01*
X280459Y353496D01*
X280516Y353413D01*
X280576Y353331D01*
X280640Y353253D01*
X280706Y353176D01*
X280776Y353103D01*
X280848Y353032D01*
X280923Y352964D01*
X281001Y352899D01*
X281081Y352837D01*
X281163Y352778D01*
X281248Y352722D01*
X281335Y352670D01*
X281423Y352621D01*
X281514Y352575D01*
X281606Y352534D01*
X281700Y352495D01*
X281795Y352461D01*
X281891Y352430D01*
X281989Y352403D01*
X282087Y352379D01*
X282187Y352360D01*
X282287Y352344D01*
X282387Y352332D01*
X282488Y352324D01*
X282589Y352320D01*
X282691Y352320D01*
X282792Y352324D01*
X282893Y352332D01*
X282993Y352344D01*
X283093Y352360D01*
X283193Y352379D01*
X283291Y352403D01*
X283389Y352430D01*
X283485Y352461D01*
X283580Y352495D01*
X283674Y352534D01*
X283766Y352575D01*
X283857Y352621D01*
X283945Y352670D01*
X284032Y352722D01*
X284117Y352778D01*
X284199Y352837D01*
X284279Y352899D01*
X284357Y352964D01*
X284432Y353032D01*
X284504Y353103D01*
X284574Y353176D01*
X284640Y353253D01*
X284704Y353331D01*
X284764Y353413D01*
X284821Y353496D01*
X284875Y353582D01*
X284926Y353670D01*
X284973Y353759D01*
X285017Y353851D01*
X285057Y353944D01*
X285094Y354038D01*
X285126Y354134D01*
X285155Y354231D01*
X285181Y354329D01*
X285202Y354428D01*
X285220Y354528D01*
X285233Y354628D01*
X285243Y354729D01*
X285249Y354830D01*
X285251Y354931D01*
X284728Y359630D02*
X284726Y359720D01*
X284720Y359809D01*
X284711Y359899D01*
X284697Y359988D01*
X284680Y360076D01*
X284659Y360163D01*
X284634Y360250D01*
X284605Y360335D01*
X284573Y360419D01*
X284538Y360501D01*
X284498Y360582D01*
X284456Y360661D01*
X284410Y360738D01*
X284360Y360813D01*
X284308Y360886D01*
X284252Y360957D01*
X284194Y361025D01*
X284132Y361090D01*
X284068Y361153D01*
X284001Y361213D01*
X283932Y361270D01*
X283860Y361324D01*
X283786Y361375D01*
X283710Y361423D01*
X283632Y361467D01*
X283552Y361508D01*
X283470Y361546D01*
X283387Y361580D01*
X283302Y361610D01*
X283216Y361637D01*
X283130Y361660D01*
X283042Y361679D01*
X282953Y361694D01*
X282864Y361706D01*
X282775Y361714D01*
X282685Y361718D01*
X282595Y361718D01*
X282505Y361714D01*
X282416Y361706D01*
X282327Y361694D01*
X282238Y361679D01*
X282150Y361660D01*
X282064Y361637D01*
X281978Y361610D01*
X281893Y361580D01*
X281810Y361546D01*
X281728Y361508D01*
X281648Y361467D01*
X281570Y361423D01*
X281494Y361375D01*
X281420Y361324D01*
X281348Y361270D01*
X281279Y361213D01*
X281212Y361153D01*
X281148Y361090D01*
X281086Y361025D01*
X281028Y360957D01*
X280972Y360886D01*
X280920Y360813D01*
X280870Y360738D01*
X280824Y360661D01*
X280782Y360582D01*
X280742Y360501D01*
X280707Y360419D01*
X280675Y360335D01*
X280646Y360250D01*
X280621Y360163D01*
X280600Y360076D01*
X280583Y359988D01*
X280569Y359899D01*
X280560Y359809D01*
X280554Y359720D01*
X280552Y359630D01*
X280554Y359540D01*
X280560Y359451D01*
X280569Y359361D01*
X280583Y359272D01*
X280600Y359184D01*
X280621Y359097D01*
X280646Y359010D01*
X280675Y358925D01*
X280707Y358841D01*
X280742Y358759D01*
X280782Y358678D01*
X280824Y358599D01*
X280870Y358522D01*
X280920Y358447D01*
X280972Y358374D01*
X281028Y358303D01*
X281086Y358235D01*
X281148Y358170D01*
X281212Y358107D01*
X281279Y358047D01*
X281348Y357990D01*
X281420Y357936D01*
X281494Y357885D01*
X281570Y357837D01*
X281648Y357793D01*
X281728Y357752D01*
X281810Y357714D01*
X281893Y357680D01*
X281978Y357650D01*
X282064Y357623D01*
X282150Y357600D01*
X282238Y357581D01*
X282327Y357566D01*
X282416Y357554D01*
X282505Y357546D01*
X282595Y357542D01*
X282685Y357542D01*
X282775Y357546D01*
X282864Y357554D01*
X282953Y357566D01*
X283042Y357581D01*
X283130Y357600D01*
X283216Y357623D01*
X283302Y357650D01*
X283387Y357680D01*
X283470Y357714D01*
X283552Y357752D01*
X283632Y357793D01*
X283710Y357837D01*
X283786Y357885D01*
X283860Y357936D01*
X283932Y357990D01*
X284001Y358047D01*
X284068Y358107D01*
X284132Y358170D01*
X284194Y358235D01*
X284252Y358303D01*
X284308Y358374D01*
X284360Y358447D01*
X284410Y358522D01*
X284456Y358599D01*
X284498Y358678D01*
X284538Y358759D01*
X284573Y358841D01*
X284605Y358925D01*
X284634Y359010D01*
X284659Y359097D01*
X284680Y359184D01*
X284697Y359272D01*
X284711Y359361D01*
X284720Y359451D01*
X284726Y359540D01*
X284728Y359630D01*
X430250Y431902D02*
X432338Y431902D01*
X432427Y431904D01*
X432515Y431910D01*
X432603Y431919D01*
X432691Y431932D01*
X432778Y431949D01*
X432864Y431969D01*
X432949Y431994D01*
X433034Y432021D01*
X433117Y432053D01*
X433198Y432087D01*
X433278Y432126D01*
X433356Y432167D01*
X433433Y432212D01*
X433507Y432260D01*
X433580Y432311D01*
X433650Y432365D01*
X433717Y432423D01*
X433783Y432483D01*
X433845Y432545D01*
X433905Y432611D01*
X433963Y432678D01*
X434017Y432748D01*
X434068Y432821D01*
X434116Y432895D01*
X434161Y432972D01*
X434202Y433050D01*
X434241Y433130D01*
X434275Y433211D01*
X434307Y433294D01*
X434334Y433379D01*
X434359Y433464D01*
X434379Y433550D01*
X434396Y433637D01*
X434409Y433725D01*
X434418Y433813D01*
X434424Y433901D01*
X434426Y433990D01*
X434426Y439211D01*
X434424Y439300D01*
X434418Y439388D01*
X434409Y439476D01*
X434396Y439564D01*
X434379Y439651D01*
X434359Y439737D01*
X434334Y439822D01*
X434307Y439907D01*
X434275Y439990D01*
X434241Y440071D01*
X434202Y440151D01*
X434161Y440229D01*
X434116Y440306D01*
X434068Y440380D01*
X434017Y440453D01*
X433963Y440523D01*
X433905Y440590D01*
X433845Y440656D01*
X433783Y440718D01*
X433717Y440778D01*
X433650Y440836D01*
X433580Y440890D01*
X433507Y440941D01*
X433433Y440989D01*
X433356Y441034D01*
X433278Y441075D01*
X433198Y441114D01*
X433117Y441148D01*
X433034Y441180D01*
X432949Y441207D01*
X432864Y441232D01*
X432778Y441252D01*
X432691Y441269D01*
X432603Y441282D01*
X432515Y441291D01*
X432427Y441297D01*
X432338Y441299D01*
X432338Y441300D02*
X430250Y441300D01*
X424692Y436078D02*
X421560Y436078D01*
X424692Y436079D02*
X424781Y436081D01*
X424869Y436087D01*
X424957Y436096D01*
X425045Y436109D01*
X425132Y436126D01*
X425218Y436146D01*
X425303Y436171D01*
X425388Y436198D01*
X425471Y436230D01*
X425552Y436264D01*
X425632Y436303D01*
X425710Y436344D01*
X425787Y436389D01*
X425861Y436437D01*
X425934Y436488D01*
X426004Y436542D01*
X426071Y436600D01*
X426137Y436660D01*
X426199Y436722D01*
X426259Y436788D01*
X426317Y436855D01*
X426371Y436925D01*
X426422Y436998D01*
X426470Y437072D01*
X426515Y437149D01*
X426556Y437227D01*
X426595Y437307D01*
X426629Y437388D01*
X426661Y437471D01*
X426688Y437556D01*
X426713Y437641D01*
X426733Y437727D01*
X426750Y437814D01*
X426763Y437902D01*
X426772Y437990D01*
X426778Y438078D01*
X426780Y438167D01*
X426781Y438167D02*
X426781Y438689D01*
X426779Y438790D01*
X426773Y438891D01*
X426763Y438992D01*
X426750Y439092D01*
X426732Y439192D01*
X426711Y439291D01*
X426685Y439389D01*
X426656Y439486D01*
X426624Y439582D01*
X426587Y439676D01*
X426547Y439769D01*
X426503Y439861D01*
X426456Y439950D01*
X426405Y440038D01*
X426351Y440124D01*
X426294Y440207D01*
X426234Y440289D01*
X426170Y440367D01*
X426104Y440444D01*
X426034Y440517D01*
X425962Y440588D01*
X425887Y440656D01*
X425809Y440721D01*
X425729Y440783D01*
X425647Y440842D01*
X425562Y440898D01*
X425476Y440950D01*
X425387Y440999D01*
X425296Y441045D01*
X425204Y441086D01*
X425110Y441125D01*
X425015Y441159D01*
X424919Y441190D01*
X424821Y441217D01*
X424723Y441241D01*
X424623Y441260D01*
X424523Y441276D01*
X424423Y441288D01*
X424322Y441296D01*
X424221Y441300D01*
X424119Y441300D01*
X424018Y441296D01*
X423917Y441288D01*
X423817Y441276D01*
X423717Y441260D01*
X423617Y441241D01*
X423519Y441217D01*
X423421Y441190D01*
X423325Y441159D01*
X423230Y441125D01*
X423136Y441086D01*
X423044Y441045D01*
X422953Y440999D01*
X422865Y440950D01*
X422778Y440898D01*
X422693Y440842D01*
X422611Y440783D01*
X422531Y440721D01*
X422453Y440656D01*
X422378Y440588D01*
X422306Y440517D01*
X422236Y440444D01*
X422170Y440367D01*
X422106Y440289D01*
X422046Y440207D01*
X421989Y440124D01*
X421935Y440038D01*
X421884Y439950D01*
X421837Y439861D01*
X421793Y439769D01*
X421753Y439676D01*
X421716Y439582D01*
X421684Y439486D01*
X421655Y439389D01*
X421629Y439291D01*
X421608Y439192D01*
X421590Y439092D01*
X421577Y438992D01*
X421567Y438891D01*
X421561Y438790D01*
X421559Y438689D01*
X421560Y438689D02*
X421560Y436078D01*
X421559Y436078D02*
X421561Y435952D01*
X421567Y435826D01*
X421576Y435700D01*
X421589Y435575D01*
X421607Y435450D01*
X421627Y435325D01*
X421652Y435201D01*
X421680Y435078D01*
X421712Y434956D01*
X421748Y434835D01*
X421787Y434715D01*
X421830Y434597D01*
X421877Y434480D01*
X421927Y434364D01*
X421981Y434249D01*
X422037Y434137D01*
X422098Y434026D01*
X422161Y433917D01*
X422228Y433810D01*
X422298Y433705D01*
X422372Y433602D01*
X422448Y433502D01*
X422527Y433404D01*
X422609Y433308D01*
X422695Y433215D01*
X422782Y433124D01*
X422873Y433037D01*
X422966Y432951D01*
X423062Y432869D01*
X423160Y432790D01*
X423260Y432714D01*
X423363Y432640D01*
X423468Y432570D01*
X423575Y432503D01*
X423684Y432440D01*
X423795Y432379D01*
X423907Y432323D01*
X424022Y432269D01*
X424138Y432219D01*
X424255Y432172D01*
X424373Y432129D01*
X424493Y432090D01*
X424614Y432054D01*
X424736Y432022D01*
X424859Y431994D01*
X424983Y431969D01*
X425108Y431949D01*
X425233Y431931D01*
X425358Y431918D01*
X425484Y431909D01*
X425610Y431903D01*
X425736Y431901D01*
X446598Y360474D02*
X446598Y351076D01*
X446598Y360474D02*
X443988Y360474D01*
X443988Y360475D02*
X443887Y360473D01*
X443786Y360467D01*
X443685Y360457D01*
X443585Y360444D01*
X443485Y360426D01*
X443386Y360405D01*
X443288Y360379D01*
X443191Y360350D01*
X443095Y360318D01*
X443001Y360281D01*
X442908Y360241D01*
X442816Y360197D01*
X442727Y360150D01*
X442639Y360099D01*
X442553Y360045D01*
X442470Y359988D01*
X442388Y359928D01*
X442310Y359864D01*
X442233Y359798D01*
X442160Y359728D01*
X442089Y359656D01*
X442021Y359581D01*
X441956Y359503D01*
X441894Y359423D01*
X441835Y359341D01*
X441779Y359256D01*
X441727Y359170D01*
X441678Y359081D01*
X441632Y358990D01*
X441591Y358898D01*
X441552Y358804D01*
X441518Y358709D01*
X441487Y358613D01*
X441460Y358515D01*
X441436Y358417D01*
X441417Y358317D01*
X441401Y358217D01*
X441389Y358117D01*
X441381Y358016D01*
X441377Y357915D01*
X441377Y357813D01*
X441381Y357712D01*
X441389Y357611D01*
X441401Y357511D01*
X441417Y357411D01*
X441436Y357311D01*
X441460Y357213D01*
X441487Y357115D01*
X441518Y357019D01*
X441552Y356924D01*
X441591Y356830D01*
X441632Y356738D01*
X441678Y356647D01*
X441727Y356559D01*
X441779Y356472D01*
X441835Y356387D01*
X441894Y356305D01*
X441956Y356225D01*
X442021Y356147D01*
X442089Y356072D01*
X442160Y356000D01*
X442233Y355930D01*
X442310Y355864D01*
X442388Y355800D01*
X442470Y355740D01*
X442553Y355683D01*
X442639Y355629D01*
X442727Y355578D01*
X442816Y355531D01*
X442908Y355487D01*
X443001Y355447D01*
X443095Y355410D01*
X443191Y355378D01*
X443288Y355349D01*
X443386Y355323D01*
X443485Y355302D01*
X443585Y355284D01*
X443685Y355271D01*
X443786Y355261D01*
X443887Y355255D01*
X443988Y355253D01*
X446598Y355253D01*
X443466Y355253D02*
X441377Y351076D01*
X437511Y351076D02*
X434901Y351076D01*
X434800Y351078D01*
X434699Y351084D01*
X434598Y351094D01*
X434498Y351107D01*
X434398Y351125D01*
X434299Y351146D01*
X434201Y351172D01*
X434104Y351201D01*
X434008Y351233D01*
X433914Y351270D01*
X433821Y351310D01*
X433729Y351354D01*
X433640Y351401D01*
X433552Y351452D01*
X433466Y351506D01*
X433383Y351563D01*
X433301Y351623D01*
X433223Y351687D01*
X433146Y351753D01*
X433073Y351823D01*
X433002Y351895D01*
X432934Y351970D01*
X432869Y352048D01*
X432807Y352128D01*
X432748Y352210D01*
X432692Y352295D01*
X432640Y352382D01*
X432591Y352470D01*
X432545Y352561D01*
X432504Y352653D01*
X432465Y352747D01*
X432431Y352842D01*
X432400Y352938D01*
X432373Y353036D01*
X432349Y353134D01*
X432330Y353234D01*
X432314Y353334D01*
X432302Y353434D01*
X432294Y353535D01*
X432290Y353636D01*
X432290Y353738D01*
X432294Y353839D01*
X432302Y353940D01*
X432314Y354040D01*
X432330Y354140D01*
X432349Y354240D01*
X432373Y354338D01*
X432400Y354436D01*
X432431Y354532D01*
X432465Y354627D01*
X432504Y354721D01*
X432545Y354813D01*
X432591Y354904D01*
X432640Y354993D01*
X432692Y355079D01*
X432748Y355164D01*
X432807Y355246D01*
X432869Y355326D01*
X432934Y355404D01*
X433002Y355479D01*
X433073Y355551D01*
X433146Y355621D01*
X433223Y355687D01*
X433301Y355751D01*
X433383Y355811D01*
X433466Y355868D01*
X433552Y355922D01*
X433640Y355973D01*
X433729Y356020D01*
X433821Y356064D01*
X433914Y356104D01*
X434008Y356141D01*
X434104Y356173D01*
X434201Y356202D01*
X434299Y356228D01*
X434398Y356249D01*
X434498Y356267D01*
X434598Y356280D01*
X434699Y356290D01*
X434800Y356296D01*
X434901Y356298D01*
X434379Y360474D02*
X437511Y360474D01*
X434379Y360474D02*
X434289Y360472D01*
X434200Y360466D01*
X434110Y360457D01*
X434021Y360443D01*
X433933Y360426D01*
X433846Y360405D01*
X433759Y360380D01*
X433674Y360351D01*
X433590Y360319D01*
X433508Y360284D01*
X433427Y360244D01*
X433348Y360202D01*
X433271Y360156D01*
X433196Y360106D01*
X433123Y360054D01*
X433052Y359998D01*
X432984Y359940D01*
X432919Y359878D01*
X432856Y359814D01*
X432796Y359747D01*
X432739Y359678D01*
X432685Y359606D01*
X432634Y359532D01*
X432586Y359456D01*
X432542Y359378D01*
X432501Y359298D01*
X432463Y359216D01*
X432429Y359133D01*
X432399Y359048D01*
X432372Y358962D01*
X432349Y358876D01*
X432330Y358788D01*
X432315Y358699D01*
X432303Y358610D01*
X432295Y358521D01*
X432291Y358431D01*
X432291Y358341D01*
X432295Y358251D01*
X432303Y358162D01*
X432315Y358073D01*
X432330Y357984D01*
X432349Y357896D01*
X432372Y357810D01*
X432399Y357724D01*
X432429Y357639D01*
X432463Y357556D01*
X432501Y357474D01*
X432542Y357394D01*
X432586Y357316D01*
X432634Y357240D01*
X432685Y357166D01*
X432739Y357094D01*
X432796Y357025D01*
X432856Y356958D01*
X432919Y356894D01*
X432984Y356832D01*
X433052Y356774D01*
X433123Y356718D01*
X433196Y356666D01*
X433271Y356616D01*
X433348Y356570D01*
X433427Y356528D01*
X433508Y356488D01*
X433590Y356453D01*
X433674Y356421D01*
X433759Y356392D01*
X433846Y356367D01*
X433933Y356346D01*
X434021Y356329D01*
X434110Y356315D01*
X434200Y356306D01*
X434289Y356300D01*
X434379Y356298D01*
X434379Y356297D02*
X436467Y356297D01*
D10*
X371064Y328967D02*
X363564Y328967D01*
X363564Y321467D01*
D15*
X367038Y325506D03*
D10*
X363564Y293467D02*
X363564Y285967D01*
X406564Y285967D02*
X406564Y293467D01*
X406564Y321467D02*
X406564Y328967D01*
X399064Y328967D01*
X399064Y285967D02*
X406564Y285967D01*
X371064Y285967D02*
X363564Y285967D01*
D11*
X408034Y332948D02*
X408034Y336633D01*
X408034Y332948D02*
X408032Y332874D01*
X408026Y332800D01*
X408017Y332726D01*
X408003Y332653D01*
X407986Y332581D01*
X407965Y332510D01*
X407940Y332440D01*
X407911Y332372D01*
X407880Y332305D01*
X407844Y332240D01*
X407805Y332176D01*
X407763Y332115D01*
X407718Y332056D01*
X407670Y332000D01*
X407619Y331946D01*
X407565Y331895D01*
X407509Y331847D01*
X407450Y331802D01*
X407389Y331760D01*
X407326Y331721D01*
X407260Y331685D01*
X407193Y331654D01*
X407125Y331625D01*
X407055Y331600D01*
X406984Y331579D01*
X406912Y331562D01*
X406839Y331548D01*
X406765Y331539D01*
X406691Y331533D01*
X406617Y331531D01*
X406543Y331533D01*
X406469Y331539D01*
X406395Y331548D01*
X406322Y331562D01*
X406250Y331579D01*
X406179Y331600D01*
X406109Y331625D01*
X406041Y331654D01*
X405974Y331685D01*
X405909Y331721D01*
X405845Y331760D01*
X405784Y331802D01*
X405725Y331847D01*
X405669Y331895D01*
X405615Y331946D01*
X405564Y332000D01*
X405516Y332056D01*
X405471Y332115D01*
X405429Y332176D01*
X405390Y332240D01*
X405354Y332305D01*
X405323Y332372D01*
X405294Y332440D01*
X405269Y332510D01*
X405248Y332581D01*
X405231Y332653D01*
X405217Y332726D01*
X405208Y332800D01*
X405202Y332874D01*
X405200Y332948D01*
X405199Y332948D02*
X405199Y336633D01*
X400785Y336633D02*
X400716Y336631D01*
X400647Y336626D01*
X400579Y336616D01*
X400511Y336603D01*
X400444Y336586D01*
X400378Y336566D01*
X400313Y336542D01*
X400249Y336515D01*
X400187Y336484D01*
X400127Y336450D01*
X400069Y336413D01*
X400013Y336373D01*
X399959Y336330D01*
X399908Y336283D01*
X399859Y336235D01*
X399812Y336183D01*
X399769Y336129D01*
X399729Y336073D01*
X399692Y336015D01*
X399658Y335955D01*
X399627Y335893D01*
X399600Y335829D01*
X399576Y335764D01*
X399556Y335698D01*
X399539Y335631D01*
X399526Y335563D01*
X399516Y335495D01*
X399511Y335426D01*
X399509Y335357D01*
X400785Y336633D02*
X400864Y336631D01*
X400943Y336625D01*
X401022Y336616D01*
X401100Y336602D01*
X401178Y336585D01*
X401254Y336564D01*
X401329Y336540D01*
X401404Y336512D01*
X401476Y336480D01*
X401547Y336445D01*
X401616Y336406D01*
X401684Y336365D01*
X401749Y336320D01*
X401812Y336271D01*
X401873Y336220D01*
X401931Y336166D01*
X401986Y336109D01*
X402038Y336050D01*
X402088Y335988D01*
X402135Y335924D01*
X402178Y335858D01*
X402218Y335789D01*
X402255Y335719D01*
X402288Y335647D01*
X402318Y335574D01*
X402344Y335499D01*
X399934Y334365D02*
X399885Y334414D01*
X399839Y334466D01*
X399795Y334519D01*
X399754Y334575D01*
X399716Y334633D01*
X399681Y334693D01*
X399649Y334754D01*
X399620Y334817D01*
X399594Y334882D01*
X399572Y334947D01*
X399553Y335014D01*
X399537Y335082D01*
X399525Y335150D01*
X399516Y335219D01*
X399511Y335288D01*
X399509Y335357D01*
X399934Y334365D02*
X402344Y331530D01*
X399509Y331530D01*
D13*
X306319Y300477D02*
X306319Y291079D01*
X306319Y300477D02*
X303708Y300477D01*
X303607Y300475D01*
X303506Y300469D01*
X303405Y300459D01*
X303305Y300446D01*
X303205Y300428D01*
X303106Y300407D01*
X303008Y300381D01*
X302911Y300352D01*
X302815Y300320D01*
X302721Y300283D01*
X302628Y300243D01*
X302536Y300199D01*
X302447Y300152D01*
X302359Y300101D01*
X302273Y300047D01*
X302190Y299990D01*
X302108Y299930D01*
X302030Y299866D01*
X301953Y299800D01*
X301880Y299730D01*
X301809Y299658D01*
X301741Y299583D01*
X301676Y299505D01*
X301614Y299425D01*
X301555Y299343D01*
X301499Y299258D01*
X301447Y299172D01*
X301398Y299083D01*
X301352Y298992D01*
X301311Y298900D01*
X301272Y298806D01*
X301238Y298711D01*
X301207Y298615D01*
X301180Y298517D01*
X301156Y298419D01*
X301137Y298319D01*
X301121Y298219D01*
X301109Y298119D01*
X301101Y298018D01*
X301097Y297917D01*
X301097Y297815D01*
X301101Y297714D01*
X301109Y297613D01*
X301121Y297513D01*
X301137Y297413D01*
X301156Y297313D01*
X301180Y297215D01*
X301207Y297117D01*
X301238Y297021D01*
X301272Y296926D01*
X301311Y296832D01*
X301352Y296740D01*
X301398Y296649D01*
X301447Y296561D01*
X301499Y296474D01*
X301555Y296389D01*
X301614Y296307D01*
X301676Y296227D01*
X301741Y296149D01*
X301809Y296074D01*
X301880Y296002D01*
X301953Y295932D01*
X302030Y295866D01*
X302108Y295802D01*
X302190Y295742D01*
X302273Y295685D01*
X302359Y295631D01*
X302447Y295580D01*
X302536Y295533D01*
X302628Y295489D01*
X302721Y295449D01*
X302815Y295412D01*
X302911Y295380D01*
X303008Y295351D01*
X303106Y295325D01*
X303205Y295304D01*
X303305Y295286D01*
X303405Y295273D01*
X303506Y295263D01*
X303607Y295257D01*
X303708Y295255D01*
X303708Y295256D02*
X306319Y295256D01*
X303186Y295256D02*
X301098Y291079D01*
X297232Y293689D02*
X297230Y293790D01*
X297224Y293891D01*
X297214Y293992D01*
X297201Y294092D01*
X297183Y294192D01*
X297162Y294291D01*
X297136Y294389D01*
X297107Y294486D01*
X297075Y294582D01*
X297038Y294676D01*
X296998Y294769D01*
X296954Y294861D01*
X296907Y294950D01*
X296856Y295038D01*
X296802Y295124D01*
X296745Y295207D01*
X296685Y295289D01*
X296621Y295367D01*
X296555Y295444D01*
X296485Y295517D01*
X296413Y295588D01*
X296338Y295656D01*
X296260Y295721D01*
X296180Y295783D01*
X296098Y295842D01*
X296013Y295898D01*
X295927Y295950D01*
X295838Y295999D01*
X295747Y296045D01*
X295655Y296086D01*
X295561Y296125D01*
X295466Y296159D01*
X295370Y296190D01*
X295272Y296217D01*
X295174Y296241D01*
X295074Y296260D01*
X294974Y296276D01*
X294874Y296288D01*
X294773Y296296D01*
X294672Y296300D01*
X294570Y296300D01*
X294469Y296296D01*
X294368Y296288D01*
X294268Y296276D01*
X294168Y296260D01*
X294068Y296241D01*
X293970Y296217D01*
X293872Y296190D01*
X293776Y296159D01*
X293681Y296125D01*
X293587Y296086D01*
X293495Y296045D01*
X293404Y295999D01*
X293316Y295950D01*
X293229Y295898D01*
X293144Y295842D01*
X293062Y295783D01*
X292982Y295721D01*
X292904Y295656D01*
X292829Y295588D01*
X292757Y295517D01*
X292687Y295444D01*
X292621Y295367D01*
X292557Y295289D01*
X292497Y295207D01*
X292440Y295124D01*
X292386Y295038D01*
X292335Y294950D01*
X292288Y294861D01*
X292244Y294769D01*
X292204Y294676D01*
X292167Y294582D01*
X292135Y294486D01*
X292106Y294389D01*
X292080Y294291D01*
X292059Y294192D01*
X292041Y294092D01*
X292028Y293992D01*
X292018Y293891D01*
X292012Y293790D01*
X292010Y293689D01*
X292012Y293588D01*
X292018Y293487D01*
X292028Y293386D01*
X292041Y293286D01*
X292059Y293186D01*
X292080Y293087D01*
X292106Y292989D01*
X292135Y292892D01*
X292167Y292796D01*
X292204Y292702D01*
X292244Y292609D01*
X292288Y292517D01*
X292335Y292428D01*
X292386Y292340D01*
X292440Y292254D01*
X292497Y292171D01*
X292557Y292089D01*
X292621Y292011D01*
X292687Y291934D01*
X292757Y291861D01*
X292829Y291790D01*
X292904Y291722D01*
X292982Y291657D01*
X293062Y291595D01*
X293144Y291536D01*
X293229Y291480D01*
X293316Y291428D01*
X293404Y291379D01*
X293495Y291333D01*
X293587Y291292D01*
X293681Y291253D01*
X293776Y291219D01*
X293872Y291188D01*
X293970Y291161D01*
X294068Y291137D01*
X294168Y291118D01*
X294268Y291102D01*
X294368Y291090D01*
X294469Y291082D01*
X294570Y291078D01*
X294672Y291078D01*
X294773Y291082D01*
X294874Y291090D01*
X294974Y291102D01*
X295074Y291118D01*
X295174Y291137D01*
X295272Y291161D01*
X295370Y291188D01*
X295466Y291219D01*
X295561Y291253D01*
X295655Y291292D01*
X295747Y291333D01*
X295838Y291379D01*
X295926Y291428D01*
X296013Y291480D01*
X296098Y291536D01*
X296180Y291595D01*
X296260Y291657D01*
X296338Y291722D01*
X296413Y291790D01*
X296485Y291861D01*
X296555Y291934D01*
X296621Y292011D01*
X296685Y292089D01*
X296745Y292171D01*
X296802Y292254D01*
X296856Y292340D01*
X296907Y292428D01*
X296954Y292517D01*
X296998Y292609D01*
X297038Y292702D01*
X297075Y292796D01*
X297107Y292892D01*
X297136Y292989D01*
X297162Y293087D01*
X297183Y293186D01*
X297201Y293286D01*
X297214Y293386D01*
X297224Y293487D01*
X297230Y293588D01*
X297232Y293689D01*
X296709Y298388D02*
X296707Y298478D01*
X296701Y298567D01*
X296692Y298657D01*
X296678Y298746D01*
X296661Y298834D01*
X296640Y298921D01*
X296615Y299008D01*
X296586Y299093D01*
X296554Y299177D01*
X296519Y299259D01*
X296479Y299340D01*
X296437Y299419D01*
X296391Y299496D01*
X296341Y299571D01*
X296289Y299644D01*
X296233Y299715D01*
X296175Y299783D01*
X296113Y299848D01*
X296049Y299911D01*
X295982Y299971D01*
X295913Y300028D01*
X295841Y300082D01*
X295767Y300133D01*
X295691Y300181D01*
X295613Y300225D01*
X295533Y300266D01*
X295451Y300304D01*
X295368Y300338D01*
X295283Y300368D01*
X295197Y300395D01*
X295111Y300418D01*
X295023Y300437D01*
X294934Y300452D01*
X294845Y300464D01*
X294756Y300472D01*
X294666Y300476D01*
X294576Y300476D01*
X294486Y300472D01*
X294397Y300464D01*
X294308Y300452D01*
X294219Y300437D01*
X294131Y300418D01*
X294045Y300395D01*
X293959Y300368D01*
X293874Y300338D01*
X293791Y300304D01*
X293709Y300266D01*
X293629Y300225D01*
X293551Y300181D01*
X293475Y300133D01*
X293401Y300082D01*
X293329Y300028D01*
X293260Y299971D01*
X293193Y299911D01*
X293129Y299848D01*
X293067Y299783D01*
X293009Y299715D01*
X292953Y299644D01*
X292901Y299571D01*
X292851Y299496D01*
X292805Y299419D01*
X292763Y299340D01*
X292723Y299259D01*
X292688Y299177D01*
X292656Y299093D01*
X292627Y299008D01*
X292602Y298921D01*
X292581Y298834D01*
X292564Y298746D01*
X292550Y298657D01*
X292541Y298567D01*
X292535Y298478D01*
X292533Y298388D01*
X292535Y298298D01*
X292541Y298209D01*
X292550Y298119D01*
X292564Y298030D01*
X292581Y297942D01*
X292602Y297855D01*
X292627Y297768D01*
X292656Y297683D01*
X292688Y297599D01*
X292723Y297517D01*
X292763Y297436D01*
X292805Y297357D01*
X292851Y297280D01*
X292901Y297205D01*
X292953Y297132D01*
X293009Y297061D01*
X293067Y296993D01*
X293129Y296928D01*
X293193Y296865D01*
X293260Y296805D01*
X293329Y296748D01*
X293401Y296694D01*
X293475Y296643D01*
X293551Y296595D01*
X293629Y296551D01*
X293709Y296510D01*
X293791Y296472D01*
X293874Y296438D01*
X293959Y296408D01*
X294045Y296381D01*
X294131Y296358D01*
X294219Y296339D01*
X294308Y296324D01*
X294397Y296312D01*
X294486Y296304D01*
X294576Y296300D01*
X294666Y296300D01*
X294756Y296304D01*
X294845Y296312D01*
X294934Y296324D01*
X295023Y296339D01*
X295111Y296358D01*
X295197Y296381D01*
X295283Y296408D01*
X295368Y296438D01*
X295451Y296472D01*
X295533Y296510D01*
X295613Y296551D01*
X295691Y296595D01*
X295767Y296643D01*
X295841Y296694D01*
X295913Y296748D01*
X295982Y296805D01*
X296049Y296865D01*
X296113Y296928D01*
X296175Y296993D01*
X296233Y297061D01*
X296289Y297132D01*
X296341Y297205D01*
X296391Y297280D01*
X296437Y297357D01*
X296479Y297436D01*
X296519Y297517D01*
X296554Y297599D01*
X296586Y297683D01*
X296615Y297768D01*
X296640Y297855D01*
X296661Y297942D01*
X296678Y298030D01*
X296692Y298119D01*
X296701Y298209D01*
X296707Y298298D01*
X296709Y298388D01*
X287396Y279395D02*
X287396Y269997D01*
X287396Y279395D02*
X284785Y279395D01*
X284684Y279393D01*
X284583Y279387D01*
X284482Y279377D01*
X284382Y279364D01*
X284282Y279346D01*
X284183Y279325D01*
X284085Y279299D01*
X283988Y279270D01*
X283892Y279238D01*
X283798Y279201D01*
X283705Y279161D01*
X283613Y279117D01*
X283524Y279070D01*
X283436Y279019D01*
X283350Y278965D01*
X283267Y278908D01*
X283185Y278848D01*
X283107Y278784D01*
X283030Y278718D01*
X282957Y278648D01*
X282886Y278576D01*
X282818Y278501D01*
X282753Y278423D01*
X282691Y278343D01*
X282632Y278261D01*
X282576Y278176D01*
X282524Y278090D01*
X282475Y278001D01*
X282429Y277910D01*
X282388Y277818D01*
X282349Y277724D01*
X282315Y277629D01*
X282284Y277533D01*
X282257Y277435D01*
X282233Y277337D01*
X282214Y277237D01*
X282198Y277137D01*
X282186Y277037D01*
X282178Y276936D01*
X282174Y276835D01*
X282174Y276733D01*
X282178Y276632D01*
X282186Y276531D01*
X282198Y276431D01*
X282214Y276331D01*
X282233Y276231D01*
X282257Y276133D01*
X282284Y276035D01*
X282315Y275939D01*
X282349Y275844D01*
X282388Y275750D01*
X282429Y275658D01*
X282475Y275567D01*
X282524Y275479D01*
X282576Y275392D01*
X282632Y275307D01*
X282691Y275225D01*
X282753Y275145D01*
X282818Y275067D01*
X282886Y274992D01*
X282957Y274920D01*
X283030Y274850D01*
X283107Y274784D01*
X283185Y274720D01*
X283267Y274660D01*
X283350Y274603D01*
X283436Y274549D01*
X283524Y274498D01*
X283613Y274451D01*
X283705Y274407D01*
X283798Y274367D01*
X283892Y274330D01*
X283988Y274298D01*
X284085Y274269D01*
X284183Y274243D01*
X284282Y274222D01*
X284382Y274204D01*
X284482Y274191D01*
X284583Y274181D01*
X284684Y274175D01*
X284785Y274173D01*
X284785Y274174D02*
X287396Y274174D01*
X284263Y274174D02*
X282175Y269997D01*
X276221Y274174D02*
X273088Y274174D01*
X276221Y274174D02*
X276310Y274176D01*
X276398Y274182D01*
X276486Y274191D01*
X276574Y274204D01*
X276661Y274221D01*
X276747Y274241D01*
X276832Y274266D01*
X276917Y274293D01*
X277000Y274325D01*
X277081Y274359D01*
X277161Y274398D01*
X277239Y274439D01*
X277316Y274484D01*
X277390Y274532D01*
X277463Y274583D01*
X277533Y274637D01*
X277600Y274695D01*
X277666Y274755D01*
X277728Y274817D01*
X277788Y274883D01*
X277846Y274950D01*
X277900Y275020D01*
X277951Y275093D01*
X277999Y275167D01*
X278044Y275244D01*
X278085Y275322D01*
X278124Y275402D01*
X278158Y275483D01*
X278190Y275566D01*
X278217Y275651D01*
X278242Y275736D01*
X278262Y275822D01*
X278279Y275909D01*
X278292Y275997D01*
X278301Y276085D01*
X278307Y276173D01*
X278309Y276262D01*
X278309Y276784D01*
X278307Y276885D01*
X278301Y276986D01*
X278291Y277087D01*
X278278Y277187D01*
X278260Y277287D01*
X278239Y277386D01*
X278213Y277484D01*
X278184Y277581D01*
X278152Y277677D01*
X278115Y277771D01*
X278075Y277864D01*
X278031Y277956D01*
X277984Y278045D01*
X277933Y278133D01*
X277879Y278219D01*
X277822Y278302D01*
X277762Y278384D01*
X277698Y278462D01*
X277632Y278539D01*
X277562Y278612D01*
X277490Y278683D01*
X277415Y278751D01*
X277337Y278816D01*
X277257Y278878D01*
X277175Y278937D01*
X277090Y278993D01*
X277004Y279045D01*
X276915Y279094D01*
X276824Y279140D01*
X276732Y279181D01*
X276638Y279220D01*
X276543Y279254D01*
X276447Y279285D01*
X276349Y279312D01*
X276251Y279336D01*
X276151Y279355D01*
X276051Y279371D01*
X275951Y279383D01*
X275850Y279391D01*
X275749Y279395D01*
X275647Y279395D01*
X275546Y279391D01*
X275445Y279383D01*
X275345Y279371D01*
X275245Y279355D01*
X275145Y279336D01*
X275047Y279312D01*
X274949Y279285D01*
X274853Y279254D01*
X274758Y279220D01*
X274664Y279181D01*
X274572Y279140D01*
X274481Y279094D01*
X274393Y279045D01*
X274306Y278993D01*
X274221Y278937D01*
X274139Y278878D01*
X274059Y278816D01*
X273981Y278751D01*
X273906Y278683D01*
X273834Y278612D01*
X273764Y278539D01*
X273698Y278462D01*
X273634Y278384D01*
X273574Y278302D01*
X273517Y278219D01*
X273463Y278133D01*
X273412Y278045D01*
X273365Y277956D01*
X273321Y277864D01*
X273281Y277771D01*
X273244Y277677D01*
X273212Y277581D01*
X273183Y277484D01*
X273157Y277386D01*
X273136Y277287D01*
X273118Y277187D01*
X273105Y277087D01*
X273095Y276986D01*
X273089Y276885D01*
X273087Y276784D01*
X273088Y276784D02*
X273088Y274174D01*
X273090Y274048D01*
X273096Y273922D01*
X273105Y273796D01*
X273118Y273671D01*
X273136Y273546D01*
X273156Y273421D01*
X273181Y273297D01*
X273209Y273174D01*
X273241Y273052D01*
X273277Y272931D01*
X273316Y272811D01*
X273359Y272693D01*
X273406Y272576D01*
X273456Y272460D01*
X273510Y272345D01*
X273566Y272233D01*
X273627Y272122D01*
X273690Y272013D01*
X273757Y271906D01*
X273827Y271801D01*
X273901Y271698D01*
X273977Y271598D01*
X274056Y271500D01*
X274138Y271404D01*
X274224Y271311D01*
X274311Y271220D01*
X274402Y271133D01*
X274495Y271047D01*
X274591Y270965D01*
X274689Y270886D01*
X274789Y270810D01*
X274892Y270736D01*
X274997Y270666D01*
X275104Y270599D01*
X275213Y270536D01*
X275324Y270475D01*
X275436Y270419D01*
X275551Y270365D01*
X275667Y270315D01*
X275784Y270268D01*
X275902Y270225D01*
X276022Y270186D01*
X276143Y270150D01*
X276265Y270118D01*
X276388Y270090D01*
X276512Y270065D01*
X276637Y270045D01*
X276762Y270027D01*
X276887Y270014D01*
X277013Y270005D01*
X277139Y269999D01*
X277265Y269997D01*
X348488Y208734D02*
X348488Y206646D01*
X348490Y206557D01*
X348496Y206469D01*
X348505Y206381D01*
X348518Y206293D01*
X348535Y206206D01*
X348555Y206120D01*
X348580Y206035D01*
X348607Y205950D01*
X348639Y205867D01*
X348673Y205786D01*
X348712Y205706D01*
X348753Y205628D01*
X348798Y205551D01*
X348846Y205477D01*
X348897Y205404D01*
X348951Y205334D01*
X349009Y205267D01*
X349069Y205201D01*
X349131Y205139D01*
X349197Y205079D01*
X349264Y205021D01*
X349334Y204967D01*
X349407Y204916D01*
X349481Y204868D01*
X349558Y204823D01*
X349636Y204782D01*
X349716Y204743D01*
X349797Y204709D01*
X349880Y204677D01*
X349965Y204650D01*
X350050Y204625D01*
X350136Y204605D01*
X350223Y204588D01*
X350311Y204575D01*
X350399Y204566D01*
X350487Y204560D01*
X350576Y204558D01*
X350576Y204557D02*
X355798Y204557D01*
X355798Y204558D02*
X355889Y204560D01*
X355980Y204566D01*
X356071Y204576D01*
X356161Y204590D01*
X356250Y204607D01*
X356338Y204629D01*
X356426Y204655D01*
X356512Y204684D01*
X356597Y204717D01*
X356680Y204754D01*
X356762Y204794D01*
X356842Y204838D01*
X356920Y204885D01*
X356996Y204936D01*
X357069Y204989D01*
X357140Y205046D01*
X357209Y205107D01*
X357274Y205170D01*
X357337Y205235D01*
X357397Y205304D01*
X357455Y205375D01*
X357508Y205448D01*
X357559Y205524D01*
X357606Y205602D01*
X357650Y205682D01*
X357690Y205764D01*
X357727Y205847D01*
X357760Y205932D01*
X357789Y206018D01*
X357815Y206106D01*
X357837Y206194D01*
X357854Y206283D01*
X357868Y206373D01*
X357878Y206464D01*
X357884Y206555D01*
X357886Y206646D01*
X357886Y208734D01*
X355798Y212203D02*
X357886Y214813D01*
X348488Y214813D01*
X348488Y212203D02*
X348488Y217424D01*
X348488Y221347D02*
X348488Y223957D01*
X348490Y224058D01*
X348496Y224159D01*
X348506Y224260D01*
X348519Y224360D01*
X348537Y224460D01*
X348558Y224559D01*
X348584Y224657D01*
X348613Y224754D01*
X348645Y224850D01*
X348682Y224944D01*
X348722Y225037D01*
X348766Y225129D01*
X348813Y225218D01*
X348864Y225306D01*
X348918Y225392D01*
X348975Y225475D01*
X349035Y225557D01*
X349099Y225635D01*
X349165Y225712D01*
X349235Y225785D01*
X349307Y225856D01*
X349382Y225924D01*
X349460Y225989D01*
X349540Y226051D01*
X349622Y226110D01*
X349707Y226166D01*
X349794Y226218D01*
X349882Y226267D01*
X349973Y226313D01*
X350065Y226354D01*
X350159Y226393D01*
X350254Y226427D01*
X350350Y226458D01*
X350448Y226485D01*
X350546Y226509D01*
X350646Y226528D01*
X350746Y226544D01*
X350846Y226556D01*
X350947Y226564D01*
X351048Y226568D01*
X351150Y226568D01*
X351251Y226564D01*
X351352Y226556D01*
X351452Y226544D01*
X351552Y226528D01*
X351652Y226509D01*
X351750Y226485D01*
X351848Y226458D01*
X351944Y226427D01*
X352039Y226393D01*
X352133Y226354D01*
X352225Y226313D01*
X352316Y226267D01*
X352405Y226218D01*
X352491Y226166D01*
X352576Y226110D01*
X352658Y226051D01*
X352738Y225989D01*
X352816Y225924D01*
X352891Y225856D01*
X352963Y225785D01*
X353033Y225712D01*
X353099Y225635D01*
X353163Y225557D01*
X353223Y225475D01*
X353280Y225392D01*
X353334Y225306D01*
X353385Y225218D01*
X353432Y225129D01*
X353476Y225037D01*
X353516Y224944D01*
X353553Y224850D01*
X353585Y224754D01*
X353614Y224657D01*
X353640Y224559D01*
X353661Y224460D01*
X353679Y224360D01*
X353692Y224260D01*
X353702Y224159D01*
X353708Y224058D01*
X353710Y223957D01*
X357886Y224480D02*
X357886Y221347D01*
X357886Y224480D02*
X357884Y224570D01*
X357878Y224659D01*
X357869Y224749D01*
X357855Y224838D01*
X357838Y224926D01*
X357817Y225013D01*
X357792Y225100D01*
X357763Y225185D01*
X357731Y225269D01*
X357696Y225351D01*
X357656Y225432D01*
X357614Y225511D01*
X357568Y225588D01*
X357518Y225663D01*
X357466Y225736D01*
X357410Y225807D01*
X357352Y225875D01*
X357290Y225940D01*
X357226Y226003D01*
X357159Y226063D01*
X357090Y226120D01*
X357018Y226174D01*
X356944Y226225D01*
X356868Y226273D01*
X356790Y226317D01*
X356710Y226358D01*
X356628Y226396D01*
X356545Y226430D01*
X356460Y226460D01*
X356374Y226487D01*
X356288Y226510D01*
X356200Y226529D01*
X356111Y226544D01*
X356022Y226556D01*
X355933Y226564D01*
X355843Y226568D01*
X355753Y226568D01*
X355663Y226564D01*
X355574Y226556D01*
X355485Y226544D01*
X355396Y226529D01*
X355308Y226510D01*
X355222Y226487D01*
X355136Y226460D01*
X355051Y226430D01*
X354968Y226396D01*
X354886Y226358D01*
X354806Y226317D01*
X354728Y226273D01*
X354652Y226225D01*
X354578Y226174D01*
X354506Y226120D01*
X354437Y226063D01*
X354370Y226003D01*
X354306Y225940D01*
X354244Y225875D01*
X354186Y225807D01*
X354130Y225736D01*
X354078Y225663D01*
X354028Y225588D01*
X353982Y225511D01*
X353940Y225432D01*
X353900Y225351D01*
X353865Y225269D01*
X353833Y225185D01*
X353804Y225100D01*
X353779Y225013D01*
X353758Y224926D01*
X353741Y224838D01*
X353727Y224749D01*
X353718Y224659D01*
X353712Y224570D01*
X353710Y224480D01*
X353709Y224480D02*
X353709Y222391D01*
X313436Y208607D02*
X313436Y206519D01*
X313438Y206430D01*
X313444Y206342D01*
X313453Y206254D01*
X313466Y206166D01*
X313483Y206079D01*
X313503Y205993D01*
X313528Y205908D01*
X313555Y205823D01*
X313587Y205740D01*
X313621Y205659D01*
X313660Y205579D01*
X313701Y205501D01*
X313746Y205424D01*
X313794Y205350D01*
X313845Y205277D01*
X313899Y205207D01*
X313957Y205140D01*
X314017Y205074D01*
X314079Y205012D01*
X314145Y204952D01*
X314212Y204894D01*
X314282Y204840D01*
X314355Y204789D01*
X314429Y204741D01*
X314506Y204696D01*
X314584Y204655D01*
X314664Y204616D01*
X314745Y204582D01*
X314828Y204550D01*
X314913Y204523D01*
X314998Y204498D01*
X315084Y204478D01*
X315171Y204461D01*
X315259Y204448D01*
X315347Y204439D01*
X315435Y204433D01*
X315524Y204431D01*
X315524Y204430D02*
X320746Y204430D01*
X320746Y204431D02*
X320837Y204433D01*
X320928Y204439D01*
X321019Y204449D01*
X321109Y204463D01*
X321198Y204480D01*
X321286Y204502D01*
X321374Y204528D01*
X321460Y204557D01*
X321545Y204590D01*
X321628Y204627D01*
X321710Y204667D01*
X321790Y204711D01*
X321868Y204758D01*
X321944Y204809D01*
X322017Y204862D01*
X322088Y204919D01*
X322157Y204980D01*
X322222Y205043D01*
X322285Y205108D01*
X322345Y205177D01*
X322403Y205248D01*
X322456Y205321D01*
X322507Y205397D01*
X322554Y205475D01*
X322598Y205555D01*
X322638Y205637D01*
X322675Y205720D01*
X322708Y205805D01*
X322737Y205891D01*
X322763Y205979D01*
X322785Y206067D01*
X322802Y206156D01*
X322816Y206246D01*
X322826Y206337D01*
X322832Y206428D01*
X322834Y206519D01*
X322834Y208607D01*
X320746Y212076D02*
X322834Y214686D01*
X313436Y214686D01*
X313436Y212076D02*
X313436Y217297D01*
X315524Y221220D02*
X322834Y223308D01*
X315524Y221220D02*
X315524Y226441D01*
X317613Y224875D02*
X313436Y224875D01*
X374104Y235717D02*
X374104Y245115D01*
X371494Y245115D01*
X371494Y245116D02*
X371393Y245114D01*
X371292Y245108D01*
X371191Y245098D01*
X371091Y245085D01*
X370991Y245067D01*
X370892Y245046D01*
X370794Y245020D01*
X370697Y244991D01*
X370601Y244959D01*
X370507Y244922D01*
X370414Y244882D01*
X370322Y244838D01*
X370233Y244791D01*
X370145Y244740D01*
X370059Y244686D01*
X369976Y244629D01*
X369894Y244569D01*
X369816Y244505D01*
X369739Y244439D01*
X369666Y244369D01*
X369595Y244297D01*
X369527Y244222D01*
X369462Y244144D01*
X369400Y244064D01*
X369341Y243982D01*
X369285Y243897D01*
X369233Y243811D01*
X369184Y243722D01*
X369138Y243631D01*
X369097Y243539D01*
X369058Y243445D01*
X369024Y243350D01*
X368993Y243254D01*
X368966Y243156D01*
X368942Y243058D01*
X368923Y242958D01*
X368907Y242858D01*
X368895Y242758D01*
X368887Y242657D01*
X368883Y242556D01*
X368883Y242454D01*
X368887Y242353D01*
X368895Y242252D01*
X368907Y242152D01*
X368923Y242052D01*
X368942Y241952D01*
X368966Y241854D01*
X368993Y241756D01*
X369024Y241660D01*
X369058Y241565D01*
X369097Y241471D01*
X369138Y241379D01*
X369184Y241288D01*
X369233Y241200D01*
X369285Y241113D01*
X369341Y241028D01*
X369400Y240946D01*
X369462Y240866D01*
X369527Y240788D01*
X369595Y240713D01*
X369666Y240641D01*
X369739Y240571D01*
X369816Y240505D01*
X369894Y240441D01*
X369976Y240381D01*
X370059Y240324D01*
X370145Y240270D01*
X370233Y240219D01*
X370322Y240172D01*
X370414Y240128D01*
X370507Y240088D01*
X370601Y240051D01*
X370697Y240019D01*
X370794Y239990D01*
X370892Y239964D01*
X370991Y239943D01*
X371091Y239925D01*
X371191Y239912D01*
X371292Y239902D01*
X371393Y239896D01*
X371494Y239894D01*
X374104Y239894D01*
X370971Y239894D02*
X368883Y235717D01*
X365017Y237806D02*
X362929Y245115D01*
X365017Y237806D02*
X359796Y237806D01*
X361362Y239894D02*
X361362Y235717D01*
X396710Y220096D02*
X396710Y210698D01*
X396710Y220096D02*
X394100Y220096D01*
X394100Y220097D02*
X393999Y220095D01*
X393898Y220089D01*
X393797Y220079D01*
X393697Y220066D01*
X393597Y220048D01*
X393498Y220027D01*
X393400Y220001D01*
X393303Y219972D01*
X393207Y219940D01*
X393113Y219903D01*
X393020Y219863D01*
X392928Y219819D01*
X392839Y219772D01*
X392751Y219721D01*
X392665Y219667D01*
X392582Y219610D01*
X392500Y219550D01*
X392422Y219486D01*
X392345Y219420D01*
X392272Y219350D01*
X392201Y219278D01*
X392133Y219203D01*
X392068Y219125D01*
X392006Y219045D01*
X391947Y218963D01*
X391891Y218878D01*
X391839Y218792D01*
X391790Y218703D01*
X391744Y218612D01*
X391703Y218520D01*
X391664Y218426D01*
X391630Y218331D01*
X391599Y218235D01*
X391572Y218137D01*
X391548Y218039D01*
X391529Y217939D01*
X391513Y217839D01*
X391501Y217739D01*
X391493Y217638D01*
X391489Y217537D01*
X391489Y217435D01*
X391493Y217334D01*
X391501Y217233D01*
X391513Y217133D01*
X391529Y217033D01*
X391548Y216933D01*
X391572Y216835D01*
X391599Y216737D01*
X391630Y216641D01*
X391664Y216546D01*
X391703Y216452D01*
X391744Y216360D01*
X391790Y216269D01*
X391839Y216181D01*
X391891Y216094D01*
X391947Y216009D01*
X392006Y215927D01*
X392068Y215847D01*
X392133Y215769D01*
X392201Y215694D01*
X392272Y215622D01*
X392345Y215552D01*
X392422Y215486D01*
X392500Y215422D01*
X392582Y215362D01*
X392665Y215305D01*
X392751Y215251D01*
X392839Y215200D01*
X392928Y215153D01*
X393020Y215109D01*
X393113Y215069D01*
X393207Y215032D01*
X393303Y215000D01*
X393400Y214971D01*
X393498Y214945D01*
X393597Y214924D01*
X393697Y214906D01*
X393797Y214893D01*
X393898Y214883D01*
X393999Y214877D01*
X394100Y214875D01*
X396710Y214875D01*
X393577Y214875D02*
X391489Y210698D01*
X387623Y210698D02*
X384491Y210698D01*
X384491Y210699D02*
X384402Y210701D01*
X384314Y210707D01*
X384226Y210716D01*
X384138Y210729D01*
X384051Y210746D01*
X383965Y210766D01*
X383880Y210791D01*
X383795Y210818D01*
X383712Y210850D01*
X383631Y210884D01*
X383551Y210923D01*
X383473Y210964D01*
X383396Y211009D01*
X383322Y211057D01*
X383249Y211108D01*
X383179Y211162D01*
X383112Y211220D01*
X383046Y211280D01*
X382984Y211342D01*
X382924Y211408D01*
X382866Y211475D01*
X382812Y211545D01*
X382761Y211618D01*
X382713Y211692D01*
X382668Y211769D01*
X382627Y211847D01*
X382588Y211927D01*
X382554Y212008D01*
X382522Y212091D01*
X382495Y212176D01*
X382470Y212261D01*
X382450Y212347D01*
X382433Y212434D01*
X382420Y212522D01*
X382411Y212610D01*
X382405Y212698D01*
X382403Y212787D01*
X382402Y212787D02*
X382402Y213831D01*
X382403Y213831D02*
X382405Y213920D01*
X382411Y214008D01*
X382420Y214096D01*
X382433Y214184D01*
X382450Y214271D01*
X382470Y214357D01*
X382495Y214442D01*
X382522Y214527D01*
X382554Y214610D01*
X382588Y214691D01*
X382627Y214771D01*
X382668Y214849D01*
X382713Y214926D01*
X382761Y215000D01*
X382812Y215073D01*
X382866Y215143D01*
X382924Y215210D01*
X382984Y215276D01*
X383046Y215338D01*
X383112Y215398D01*
X383179Y215456D01*
X383249Y215510D01*
X383322Y215561D01*
X383396Y215609D01*
X383473Y215654D01*
X383551Y215695D01*
X383631Y215734D01*
X383712Y215768D01*
X383795Y215800D01*
X383880Y215827D01*
X383965Y215852D01*
X384051Y215872D01*
X384138Y215889D01*
X384226Y215902D01*
X384314Y215911D01*
X384402Y215917D01*
X384491Y215919D01*
X387623Y215919D01*
X387623Y220096D01*
X382402Y220096D01*
X430149Y250373D02*
X430149Y252462D01*
X430149Y250373D02*
X430151Y250284D01*
X430157Y250196D01*
X430166Y250108D01*
X430179Y250020D01*
X430196Y249933D01*
X430216Y249847D01*
X430241Y249762D01*
X430268Y249677D01*
X430300Y249594D01*
X430334Y249513D01*
X430373Y249433D01*
X430414Y249355D01*
X430459Y249278D01*
X430507Y249204D01*
X430558Y249131D01*
X430612Y249061D01*
X430670Y248994D01*
X430730Y248928D01*
X430792Y248866D01*
X430858Y248806D01*
X430925Y248748D01*
X430995Y248694D01*
X431068Y248643D01*
X431142Y248595D01*
X431219Y248550D01*
X431297Y248509D01*
X431377Y248470D01*
X431458Y248436D01*
X431541Y248404D01*
X431626Y248377D01*
X431711Y248352D01*
X431797Y248332D01*
X431884Y248315D01*
X431972Y248302D01*
X432060Y248293D01*
X432148Y248287D01*
X432237Y248285D01*
X437459Y248285D01*
X437550Y248287D01*
X437641Y248293D01*
X437732Y248303D01*
X437822Y248317D01*
X437911Y248334D01*
X437999Y248356D01*
X438087Y248382D01*
X438173Y248411D01*
X438258Y248444D01*
X438341Y248481D01*
X438423Y248521D01*
X438503Y248565D01*
X438581Y248612D01*
X438657Y248663D01*
X438730Y248716D01*
X438801Y248773D01*
X438870Y248834D01*
X438935Y248897D01*
X438998Y248962D01*
X439058Y249031D01*
X439116Y249102D01*
X439169Y249175D01*
X439220Y249251D01*
X439267Y249329D01*
X439311Y249409D01*
X439351Y249491D01*
X439388Y249574D01*
X439421Y249659D01*
X439450Y249745D01*
X439476Y249833D01*
X439498Y249921D01*
X439515Y250010D01*
X439529Y250100D01*
X439539Y250191D01*
X439545Y250282D01*
X439547Y250373D01*
X439547Y252462D01*
X437459Y255931D02*
X439547Y258541D01*
X430149Y258541D01*
X430149Y255931D02*
X430149Y261152D01*
X430149Y265075D02*
X430149Y268207D01*
X430151Y268296D01*
X430157Y268384D01*
X430166Y268472D01*
X430179Y268560D01*
X430196Y268647D01*
X430216Y268733D01*
X430241Y268818D01*
X430268Y268903D01*
X430300Y268986D01*
X430334Y269067D01*
X430373Y269147D01*
X430414Y269225D01*
X430459Y269302D01*
X430507Y269376D01*
X430558Y269449D01*
X430612Y269519D01*
X430670Y269586D01*
X430730Y269652D01*
X430792Y269714D01*
X430858Y269774D01*
X430925Y269832D01*
X430995Y269886D01*
X431068Y269937D01*
X431142Y269985D01*
X431219Y270030D01*
X431297Y270071D01*
X431377Y270110D01*
X431458Y270144D01*
X431541Y270176D01*
X431626Y270203D01*
X431711Y270228D01*
X431797Y270248D01*
X431884Y270265D01*
X431972Y270278D01*
X432060Y270287D01*
X432148Y270293D01*
X432237Y270295D01*
X432237Y270296D02*
X433282Y270296D01*
X433282Y270295D02*
X433371Y270293D01*
X433459Y270287D01*
X433547Y270278D01*
X433635Y270265D01*
X433722Y270248D01*
X433808Y270228D01*
X433893Y270203D01*
X433978Y270176D01*
X434061Y270144D01*
X434142Y270110D01*
X434222Y270071D01*
X434300Y270030D01*
X434377Y269985D01*
X434451Y269937D01*
X434524Y269886D01*
X434594Y269832D01*
X434661Y269774D01*
X434727Y269714D01*
X434789Y269652D01*
X434849Y269586D01*
X434907Y269519D01*
X434961Y269449D01*
X435012Y269376D01*
X435060Y269302D01*
X435105Y269225D01*
X435146Y269147D01*
X435185Y269067D01*
X435219Y268986D01*
X435251Y268903D01*
X435278Y268818D01*
X435303Y268733D01*
X435323Y268647D01*
X435340Y268560D01*
X435353Y268472D01*
X435362Y268384D01*
X435368Y268296D01*
X435370Y268207D01*
X435370Y265075D01*
X439547Y265075D01*
X439547Y270296D01*
X434970Y324861D02*
X434970Y334259D01*
X432359Y334259D01*
X432258Y334257D01*
X432157Y334251D01*
X432056Y334241D01*
X431956Y334228D01*
X431856Y334210D01*
X431757Y334189D01*
X431659Y334163D01*
X431562Y334134D01*
X431466Y334102D01*
X431372Y334065D01*
X431279Y334025D01*
X431187Y333981D01*
X431098Y333934D01*
X431010Y333883D01*
X430924Y333829D01*
X430841Y333772D01*
X430759Y333712D01*
X430681Y333648D01*
X430604Y333582D01*
X430531Y333512D01*
X430460Y333440D01*
X430392Y333365D01*
X430327Y333287D01*
X430265Y333207D01*
X430206Y333125D01*
X430150Y333040D01*
X430098Y332954D01*
X430049Y332865D01*
X430003Y332774D01*
X429962Y332682D01*
X429923Y332588D01*
X429889Y332493D01*
X429858Y332397D01*
X429831Y332299D01*
X429807Y332201D01*
X429788Y332101D01*
X429772Y332001D01*
X429760Y331901D01*
X429752Y331800D01*
X429748Y331699D01*
X429748Y331597D01*
X429752Y331496D01*
X429760Y331395D01*
X429772Y331295D01*
X429788Y331195D01*
X429807Y331095D01*
X429831Y330997D01*
X429858Y330899D01*
X429889Y330803D01*
X429923Y330708D01*
X429962Y330614D01*
X430003Y330522D01*
X430049Y330431D01*
X430098Y330343D01*
X430150Y330256D01*
X430206Y330171D01*
X430265Y330089D01*
X430327Y330009D01*
X430392Y329931D01*
X430460Y329856D01*
X430531Y329784D01*
X430604Y329714D01*
X430681Y329648D01*
X430759Y329584D01*
X430841Y329524D01*
X430924Y329467D01*
X431010Y329413D01*
X431098Y329362D01*
X431187Y329315D01*
X431279Y329271D01*
X431372Y329231D01*
X431466Y329194D01*
X431562Y329162D01*
X431659Y329133D01*
X431757Y329107D01*
X431856Y329086D01*
X431956Y329068D01*
X432056Y329055D01*
X432157Y329045D01*
X432258Y329039D01*
X432359Y329037D01*
X432359Y329038D02*
X434970Y329038D01*
X431837Y329038D02*
X429749Y324861D01*
X425883Y333215D02*
X425883Y334259D01*
X420662Y334259D01*
X423273Y324861D01*
X305811Y279141D02*
X305811Y269743D01*
X305811Y279141D02*
X303200Y279141D01*
X303099Y279139D01*
X302998Y279133D01*
X302897Y279123D01*
X302797Y279110D01*
X302697Y279092D01*
X302598Y279071D01*
X302500Y279045D01*
X302403Y279016D01*
X302307Y278984D01*
X302213Y278947D01*
X302120Y278907D01*
X302028Y278863D01*
X301939Y278816D01*
X301851Y278765D01*
X301765Y278711D01*
X301682Y278654D01*
X301600Y278594D01*
X301522Y278530D01*
X301445Y278464D01*
X301372Y278394D01*
X301301Y278322D01*
X301233Y278247D01*
X301168Y278169D01*
X301106Y278089D01*
X301047Y278007D01*
X300991Y277922D01*
X300939Y277836D01*
X300890Y277747D01*
X300844Y277656D01*
X300803Y277564D01*
X300764Y277470D01*
X300730Y277375D01*
X300699Y277279D01*
X300672Y277181D01*
X300648Y277083D01*
X300629Y276983D01*
X300613Y276883D01*
X300601Y276783D01*
X300593Y276682D01*
X300589Y276581D01*
X300589Y276479D01*
X300593Y276378D01*
X300601Y276277D01*
X300613Y276177D01*
X300629Y276077D01*
X300648Y275977D01*
X300672Y275879D01*
X300699Y275781D01*
X300730Y275685D01*
X300764Y275590D01*
X300803Y275496D01*
X300844Y275404D01*
X300890Y275313D01*
X300939Y275225D01*
X300991Y275138D01*
X301047Y275053D01*
X301106Y274971D01*
X301168Y274891D01*
X301233Y274813D01*
X301301Y274738D01*
X301372Y274666D01*
X301445Y274596D01*
X301522Y274530D01*
X301600Y274466D01*
X301682Y274406D01*
X301765Y274349D01*
X301851Y274295D01*
X301939Y274244D01*
X302028Y274197D01*
X302120Y274153D01*
X302213Y274113D01*
X302307Y274076D01*
X302403Y274044D01*
X302500Y274015D01*
X302598Y273989D01*
X302697Y273968D01*
X302797Y273950D01*
X302897Y273937D01*
X302998Y273927D01*
X303099Y273921D01*
X303200Y273919D01*
X303200Y273920D02*
X305811Y273920D01*
X302678Y273920D02*
X300590Y269743D01*
X296724Y274964D02*
X293591Y274964D01*
X293502Y274962D01*
X293414Y274956D01*
X293326Y274947D01*
X293238Y274934D01*
X293151Y274917D01*
X293065Y274897D01*
X292980Y274872D01*
X292895Y274845D01*
X292812Y274813D01*
X292731Y274779D01*
X292651Y274740D01*
X292573Y274699D01*
X292496Y274654D01*
X292422Y274606D01*
X292349Y274555D01*
X292279Y274501D01*
X292212Y274443D01*
X292146Y274383D01*
X292084Y274321D01*
X292024Y274255D01*
X291966Y274188D01*
X291912Y274118D01*
X291861Y274045D01*
X291813Y273971D01*
X291768Y273894D01*
X291727Y273816D01*
X291688Y273736D01*
X291654Y273655D01*
X291622Y273572D01*
X291595Y273487D01*
X291570Y273402D01*
X291550Y273316D01*
X291533Y273229D01*
X291520Y273141D01*
X291511Y273053D01*
X291505Y272965D01*
X291503Y272876D01*
X291503Y272353D01*
X291502Y272353D02*
X291504Y272252D01*
X291510Y272151D01*
X291520Y272050D01*
X291533Y271950D01*
X291551Y271850D01*
X291572Y271751D01*
X291598Y271653D01*
X291627Y271556D01*
X291659Y271460D01*
X291696Y271366D01*
X291736Y271273D01*
X291780Y271181D01*
X291827Y271092D01*
X291878Y271004D01*
X291932Y270918D01*
X291989Y270835D01*
X292049Y270753D01*
X292113Y270675D01*
X292179Y270598D01*
X292249Y270525D01*
X292321Y270454D01*
X292396Y270386D01*
X292474Y270321D01*
X292554Y270259D01*
X292636Y270200D01*
X292721Y270144D01*
X292808Y270092D01*
X292896Y270043D01*
X292987Y269997D01*
X293079Y269956D01*
X293173Y269917D01*
X293268Y269883D01*
X293364Y269852D01*
X293462Y269825D01*
X293560Y269801D01*
X293660Y269782D01*
X293760Y269766D01*
X293860Y269754D01*
X293961Y269746D01*
X294062Y269742D01*
X294164Y269742D01*
X294265Y269746D01*
X294366Y269754D01*
X294466Y269766D01*
X294566Y269782D01*
X294666Y269801D01*
X294764Y269825D01*
X294862Y269852D01*
X294958Y269883D01*
X295053Y269917D01*
X295147Y269956D01*
X295239Y269997D01*
X295330Y270043D01*
X295418Y270092D01*
X295505Y270144D01*
X295590Y270200D01*
X295672Y270259D01*
X295752Y270321D01*
X295830Y270386D01*
X295905Y270454D01*
X295977Y270525D01*
X296047Y270598D01*
X296113Y270675D01*
X296177Y270753D01*
X296237Y270835D01*
X296294Y270918D01*
X296348Y271004D01*
X296399Y271092D01*
X296446Y271181D01*
X296490Y271273D01*
X296530Y271366D01*
X296567Y271460D01*
X296599Y271556D01*
X296628Y271653D01*
X296654Y271751D01*
X296675Y271850D01*
X296693Y271950D01*
X296706Y272050D01*
X296716Y272151D01*
X296722Y272252D01*
X296724Y272353D01*
X296724Y274964D01*
X296722Y275090D01*
X296716Y275216D01*
X296707Y275342D01*
X296694Y275467D01*
X296676Y275592D01*
X296656Y275717D01*
X296631Y275841D01*
X296603Y275964D01*
X296571Y276086D01*
X296535Y276207D01*
X296496Y276327D01*
X296453Y276445D01*
X296406Y276562D01*
X296356Y276678D01*
X296302Y276793D01*
X296246Y276905D01*
X296185Y277016D01*
X296122Y277125D01*
X296055Y277232D01*
X295985Y277337D01*
X295911Y277440D01*
X295835Y277540D01*
X295756Y277638D01*
X295674Y277734D01*
X295588Y277827D01*
X295501Y277918D01*
X295410Y278005D01*
X295317Y278091D01*
X295221Y278173D01*
X295123Y278252D01*
X295023Y278328D01*
X294920Y278402D01*
X294815Y278472D01*
X294708Y278539D01*
X294599Y278602D01*
X294488Y278663D01*
X294376Y278719D01*
X294261Y278773D01*
X294145Y278823D01*
X294028Y278870D01*
X293910Y278913D01*
X293790Y278952D01*
X293669Y278988D01*
X293547Y279020D01*
X293424Y279048D01*
X293300Y279073D01*
X293175Y279093D01*
X293050Y279111D01*
X292925Y279124D01*
X292799Y279133D01*
X292673Y279139D01*
X292547Y279141D01*
X417195Y252462D02*
X417195Y250373D01*
X417197Y250284D01*
X417203Y250196D01*
X417212Y250108D01*
X417225Y250020D01*
X417242Y249933D01*
X417262Y249847D01*
X417287Y249762D01*
X417314Y249677D01*
X417346Y249594D01*
X417380Y249513D01*
X417419Y249433D01*
X417460Y249355D01*
X417505Y249278D01*
X417553Y249204D01*
X417604Y249131D01*
X417658Y249061D01*
X417716Y248994D01*
X417776Y248928D01*
X417838Y248866D01*
X417904Y248806D01*
X417971Y248748D01*
X418041Y248694D01*
X418114Y248643D01*
X418188Y248595D01*
X418265Y248550D01*
X418343Y248509D01*
X418423Y248470D01*
X418504Y248436D01*
X418587Y248404D01*
X418672Y248377D01*
X418757Y248352D01*
X418843Y248332D01*
X418930Y248315D01*
X419018Y248302D01*
X419106Y248293D01*
X419194Y248287D01*
X419283Y248285D01*
X424505Y248285D01*
X424596Y248287D01*
X424687Y248293D01*
X424778Y248303D01*
X424868Y248317D01*
X424957Y248334D01*
X425045Y248356D01*
X425133Y248382D01*
X425219Y248411D01*
X425304Y248444D01*
X425387Y248481D01*
X425469Y248521D01*
X425549Y248565D01*
X425627Y248612D01*
X425703Y248663D01*
X425776Y248716D01*
X425847Y248773D01*
X425916Y248834D01*
X425981Y248897D01*
X426044Y248962D01*
X426104Y249031D01*
X426162Y249102D01*
X426215Y249175D01*
X426266Y249251D01*
X426313Y249329D01*
X426357Y249409D01*
X426397Y249491D01*
X426434Y249574D01*
X426467Y249659D01*
X426496Y249745D01*
X426522Y249833D01*
X426544Y249921D01*
X426561Y250010D01*
X426575Y250100D01*
X426585Y250191D01*
X426591Y250282D01*
X426593Y250373D01*
X426593Y252462D01*
X424505Y255931D02*
X426593Y258541D01*
X417195Y258541D01*
X417195Y255931D02*
X417195Y261152D01*
X424505Y265075D02*
X426593Y267685D01*
X417195Y267685D01*
X417195Y265075D02*
X417195Y270296D01*
X361950Y332669D02*
X361950Y334758D01*
X361950Y332669D02*
X361952Y332580D01*
X361958Y332492D01*
X361967Y332404D01*
X361980Y332316D01*
X361997Y332229D01*
X362017Y332143D01*
X362042Y332058D01*
X362069Y331973D01*
X362101Y331890D01*
X362135Y331809D01*
X362174Y331729D01*
X362215Y331651D01*
X362260Y331574D01*
X362308Y331500D01*
X362359Y331427D01*
X362413Y331357D01*
X362471Y331290D01*
X362531Y331224D01*
X362593Y331162D01*
X362659Y331102D01*
X362726Y331044D01*
X362796Y330990D01*
X362869Y330939D01*
X362943Y330891D01*
X363020Y330846D01*
X363098Y330805D01*
X363178Y330766D01*
X363259Y330732D01*
X363342Y330700D01*
X363427Y330673D01*
X363512Y330648D01*
X363598Y330628D01*
X363685Y330611D01*
X363773Y330598D01*
X363861Y330589D01*
X363949Y330583D01*
X364038Y330581D01*
X369260Y330581D01*
X369351Y330583D01*
X369442Y330589D01*
X369533Y330599D01*
X369623Y330613D01*
X369712Y330630D01*
X369800Y330652D01*
X369888Y330678D01*
X369974Y330707D01*
X370059Y330740D01*
X370142Y330777D01*
X370224Y330817D01*
X370304Y330861D01*
X370382Y330908D01*
X370458Y330959D01*
X370531Y331012D01*
X370602Y331069D01*
X370671Y331130D01*
X370736Y331193D01*
X370799Y331258D01*
X370859Y331327D01*
X370917Y331398D01*
X370970Y331471D01*
X371021Y331547D01*
X371068Y331625D01*
X371112Y331705D01*
X371152Y331787D01*
X371189Y331870D01*
X371222Y331955D01*
X371251Y332041D01*
X371277Y332129D01*
X371299Y332217D01*
X371316Y332306D01*
X371330Y332396D01*
X371340Y332487D01*
X371346Y332578D01*
X371348Y332669D01*
X371348Y334758D01*
X369260Y338227D02*
X371348Y340837D01*
X361950Y340837D01*
X361950Y338227D02*
X361950Y343448D01*
X368999Y352592D02*
X369094Y352590D01*
X369188Y352584D01*
X369282Y352575D01*
X369376Y352562D01*
X369469Y352545D01*
X369561Y352524D01*
X369653Y352499D01*
X369743Y352471D01*
X369832Y352439D01*
X369920Y352404D01*
X370006Y352365D01*
X370091Y352323D01*
X370174Y352277D01*
X370255Y352228D01*
X370334Y352176D01*
X370411Y352121D01*
X370485Y352062D01*
X370557Y352001D01*
X370627Y351937D01*
X370694Y351870D01*
X370758Y351800D01*
X370819Y351728D01*
X370878Y351654D01*
X370933Y351577D01*
X370985Y351498D01*
X371034Y351417D01*
X371080Y351334D01*
X371122Y351249D01*
X371161Y351163D01*
X371196Y351075D01*
X371228Y350986D01*
X371256Y350896D01*
X371281Y350804D01*
X371302Y350712D01*
X371319Y350619D01*
X371332Y350525D01*
X371341Y350431D01*
X371347Y350337D01*
X371349Y350242D01*
X371348Y350242D02*
X371346Y350134D01*
X371340Y350025D01*
X371330Y349917D01*
X371317Y349810D01*
X371299Y349703D01*
X371278Y349596D01*
X371253Y349491D01*
X371224Y349386D01*
X371192Y349283D01*
X371155Y349181D01*
X371115Y349080D01*
X371072Y348981D01*
X371025Y348883D01*
X370974Y348787D01*
X370920Y348693D01*
X370863Y348601D01*
X370802Y348511D01*
X370738Y348423D01*
X370672Y348338D01*
X370602Y348255D01*
X370529Y348175D01*
X370453Y348097D01*
X370375Y348022D01*
X370294Y347950D01*
X370210Y347881D01*
X370124Y347815D01*
X370036Y347752D01*
X369945Y347693D01*
X369853Y347636D01*
X369758Y347583D01*
X369662Y347534D01*
X369563Y347488D01*
X369464Y347445D01*
X369362Y347406D01*
X369260Y347371D01*
X367171Y351809D02*
X367240Y351878D01*
X367311Y351944D01*
X367384Y352008D01*
X367460Y352069D01*
X367539Y352127D01*
X367619Y352181D01*
X367702Y352233D01*
X367786Y352281D01*
X367872Y352327D01*
X367960Y352368D01*
X368050Y352407D01*
X368141Y352442D01*
X368233Y352473D01*
X368326Y352501D01*
X368420Y352525D01*
X368515Y352545D01*
X368611Y352562D01*
X368708Y352575D01*
X368805Y352584D01*
X368902Y352590D01*
X368999Y352592D01*
X367171Y351809D02*
X361950Y347371D01*
X361950Y352592D01*
D10*
X339903Y318173D02*
X319773Y318173D01*
D13*
X308229Y332757D02*
X308229Y334845D01*
X308229Y332757D02*
X308231Y332668D01*
X308237Y332580D01*
X308246Y332492D01*
X308259Y332404D01*
X308276Y332317D01*
X308296Y332231D01*
X308321Y332146D01*
X308348Y332061D01*
X308380Y331978D01*
X308414Y331897D01*
X308453Y331817D01*
X308494Y331739D01*
X308539Y331662D01*
X308587Y331588D01*
X308638Y331515D01*
X308692Y331445D01*
X308750Y331378D01*
X308810Y331312D01*
X308872Y331250D01*
X308938Y331190D01*
X309005Y331132D01*
X309075Y331078D01*
X309148Y331027D01*
X309222Y330979D01*
X309299Y330934D01*
X309377Y330893D01*
X309457Y330854D01*
X309538Y330820D01*
X309621Y330788D01*
X309706Y330761D01*
X309791Y330736D01*
X309877Y330716D01*
X309964Y330699D01*
X310052Y330686D01*
X310140Y330677D01*
X310228Y330671D01*
X310317Y330669D01*
X310317Y330668D02*
X315539Y330668D01*
X315539Y330669D02*
X315630Y330671D01*
X315721Y330677D01*
X315812Y330687D01*
X315902Y330701D01*
X315991Y330718D01*
X316079Y330740D01*
X316167Y330766D01*
X316253Y330795D01*
X316338Y330828D01*
X316421Y330865D01*
X316503Y330905D01*
X316583Y330949D01*
X316661Y330996D01*
X316737Y331047D01*
X316810Y331100D01*
X316881Y331157D01*
X316950Y331218D01*
X317015Y331281D01*
X317078Y331346D01*
X317138Y331415D01*
X317196Y331486D01*
X317249Y331559D01*
X317300Y331635D01*
X317347Y331713D01*
X317391Y331793D01*
X317431Y331875D01*
X317468Y331958D01*
X317501Y332043D01*
X317530Y332129D01*
X317556Y332217D01*
X317578Y332305D01*
X317595Y332394D01*
X317609Y332484D01*
X317619Y332575D01*
X317625Y332666D01*
X317627Y332757D01*
X317627Y334845D01*
X315539Y338314D02*
X317627Y340924D01*
X308229Y340924D01*
X308229Y338314D02*
X308229Y343535D01*
X312928Y347458D02*
X313113Y347460D01*
X313298Y347467D01*
X313482Y347478D01*
X313666Y347493D01*
X313850Y347513D01*
X314034Y347537D01*
X314216Y347566D01*
X314398Y347599D01*
X314579Y347636D01*
X314759Y347678D01*
X314939Y347724D01*
X315117Y347774D01*
X315293Y347828D01*
X315469Y347887D01*
X315643Y347949D01*
X315815Y348016D01*
X315986Y348087D01*
X316155Y348162D01*
X316322Y348241D01*
X316322Y348240D02*
X316402Y348270D01*
X316481Y348303D01*
X316558Y348340D01*
X316634Y348380D01*
X316708Y348423D01*
X316780Y348469D01*
X316849Y348519D01*
X316917Y348571D01*
X316982Y348627D01*
X317045Y348685D01*
X317104Y348747D01*
X317162Y348810D01*
X317216Y348877D01*
X317267Y348945D01*
X317315Y349016D01*
X317360Y349089D01*
X317402Y349163D01*
X317440Y349240D01*
X317475Y349318D01*
X317507Y349397D01*
X317535Y349478D01*
X317559Y349560D01*
X317580Y349644D01*
X317597Y349727D01*
X317610Y349812D01*
X317619Y349897D01*
X317625Y349982D01*
X317627Y350068D01*
X317625Y350154D01*
X317619Y350239D01*
X317610Y350324D01*
X317597Y350409D01*
X317580Y350492D01*
X317559Y350576D01*
X317535Y350658D01*
X317507Y350739D01*
X317475Y350818D01*
X317440Y350896D01*
X317402Y350973D01*
X317360Y351047D01*
X317315Y351120D01*
X317267Y351191D01*
X317216Y351259D01*
X317162Y351326D01*
X317104Y351389D01*
X317045Y351451D01*
X316982Y351509D01*
X316917Y351565D01*
X316849Y351617D01*
X316780Y351667D01*
X316708Y351713D01*
X316634Y351756D01*
X316558Y351796D01*
X316481Y351833D01*
X316402Y351866D01*
X316322Y351896D01*
X316155Y351975D01*
X315986Y352050D01*
X315815Y352121D01*
X315643Y352188D01*
X315469Y352250D01*
X315293Y352309D01*
X315117Y352363D01*
X314939Y352413D01*
X314759Y352459D01*
X314579Y352501D01*
X314398Y352538D01*
X314216Y352571D01*
X314034Y352600D01*
X313850Y352624D01*
X313666Y352644D01*
X313482Y352659D01*
X313298Y352670D01*
X313113Y352677D01*
X312928Y352679D01*
X312928Y347458D02*
X312743Y347460D01*
X312558Y347467D01*
X312374Y347478D01*
X312190Y347493D01*
X312006Y347513D01*
X311822Y347537D01*
X311640Y347566D01*
X311458Y347599D01*
X311277Y347636D01*
X311097Y347678D01*
X310917Y347724D01*
X310739Y347774D01*
X310563Y347828D01*
X310387Y347887D01*
X310213Y347949D01*
X310041Y348016D01*
X309870Y348087D01*
X309701Y348162D01*
X309534Y348241D01*
X309534Y348240D02*
X309454Y348270D01*
X309375Y348303D01*
X309298Y348340D01*
X309222Y348380D01*
X309148Y348423D01*
X309076Y348469D01*
X309007Y348519D01*
X308939Y348572D01*
X308874Y348627D01*
X308811Y348686D01*
X308752Y348747D01*
X308694Y348810D01*
X308640Y348877D01*
X308589Y348945D01*
X308541Y349016D01*
X308496Y349089D01*
X308454Y349163D01*
X308416Y349240D01*
X308381Y349318D01*
X308349Y349397D01*
X308321Y349478D01*
X308297Y349560D01*
X308276Y349644D01*
X308259Y349727D01*
X308246Y349812D01*
X308237Y349897D01*
X308231Y349982D01*
X308229Y350068D01*
X309534Y351896D02*
X309701Y351975D01*
X309870Y352050D01*
X310041Y352121D01*
X310213Y352188D01*
X310387Y352250D01*
X310563Y352309D01*
X310739Y352363D01*
X310917Y352413D01*
X311097Y352459D01*
X311277Y352501D01*
X311458Y352538D01*
X311640Y352571D01*
X311822Y352600D01*
X312006Y352624D01*
X312190Y352644D01*
X312374Y352659D01*
X312558Y352670D01*
X312743Y352677D01*
X312928Y352679D01*
X309534Y351896D02*
X309454Y351866D01*
X309375Y351833D01*
X309298Y351796D01*
X309222Y351756D01*
X309148Y351713D01*
X309076Y351667D01*
X309007Y351617D01*
X308939Y351565D01*
X308874Y351509D01*
X308811Y351451D01*
X308752Y351389D01*
X308694Y351326D01*
X308640Y351259D01*
X308589Y351191D01*
X308541Y351120D01*
X308496Y351047D01*
X308454Y350973D01*
X308416Y350896D01*
X308381Y350818D01*
X308349Y350739D01*
X308321Y350658D01*
X308297Y350576D01*
X308276Y350492D01*
X308259Y350409D01*
X308246Y350324D01*
X308237Y350239D01*
X308231Y350154D01*
X308229Y350068D01*
X310317Y347980D02*
X315539Y352157D01*
M02*
